<?xml version="1.0" encoding="UTF-8"?>
<svg id="Layer_1" data-name="Layer 1" xmlns="http://www.w3.org/2000/svg" width="45.3" height="66.7" viewBox="0 0 45.3 66.7">
  <defs>
    <style>
      .cls-1 {
        stroke-width: 0px;
      }
    </style>
  </defs>
  <path class="cls-1" d="M10.95,0c2.02,0,3.65,1.63,3.65,3.65v19.6c0,2.02,1.63,3.65,3.65,3.65h8.8c2.02,0,3.65-1.63,3.65-3.65V3.65c0-2.02,1.63-3.65,3.65-3.65h7.3c2.02,0,3.65,1.63,3.65,3.65v59.4c0,2.02-1.63,3.65-3.65,3.65h-7.3c-2.02,0-3.65-1.63-3.65-3.65v-20c0-2.02-1.63-3.65-3.65-3.65h-8.8c-2.02,0-3.65,1.63-3.65,3.65v20c0,2.02-1.63,3.65-3.65,3.65H3.65c-2.02,0-3.65-1.63-3.65-3.65V3.65C0,1.63,1.63,0,3.65,0h7.3Z"/>
</svg>