<?xml version="1.0" encoding="UTF-8"?>
<svg id="Layer_1" data-name="Layer 1" xmlns="http://www.w3.org/2000/svg" width="268.33" height="203.74" viewBox="0 0 268.33 203.74">
  <defs>
    <style>
      .cls-1 {
        fill: none;
        stroke: #ff9adf;
        stroke-linecap: round;
        stroke-linejoin: round;
        stroke-width: 8.43px;
      }
    </style>
  </defs>
  <path id="STROKE_f8b62e0c-9613-4ba3-a6a7-c17f5a644d20" data-name="STROKE f8b62e0c-9613-4ba3-a6a7-c17f5a644d20" class="cls-1" d="M215.94,178.25l-2.03-.36c-1.1-.29-4.98-1.49-11.65-3.61-6.67-2.12-16.94-6.13-30.82-12.04-13.88-5.91-24.42-10.48-31.62-13.71-7.2-3.22-15.16-7.06-23.86-11.5-8.71-4.44-16.62-8.9-23.73-13.36-7.12-4.46-12.66-8.09-16.64-10.9-3.97-2.8-8.23-5.99-12.75-9.57-4.53-3.58-8.42-6.8-11.67-9.67-3.25-2.87-6.4-5.76-9.47-8.69-3.06-2.93-6.85-6.87-11.36-11.84-4.51-4.97-8.23-9.51-11.17-13.63-2.93-4.12-5.09-7.36-6.48-9.74-1.39-2.37-2.89-5.45-4.5-9.23-1.61-3.78-2.71-7.18-3.29-10.19-.58-3.02-.79-5.76-.64-8.22.15-2.47.52-4.49,1.11-6.05.59-1.57,1.08-2.67,1.48-3.32.4-.65.84-1.26,1.32-1.82.48-.56,1.55-1.45,3.23-2.65,1.67-1.2,4.19-2.15,7.54-2.85,3.35-.7,6.2-1.06,8.54-1.09,2.35-.03,5.06.1,8.14.4,3.08.3,8.17,1.14,15.26,2.53,7.09,1.39,12.46,2.55,16.1,3.48,3.64.93,7.92,2.16,12.84,3.68,4.92,1.52,8.62,2.71,11.1,3.56,2.48.85,5.77,2.07,9.86,3.65,4.1,1.58,9.93,4.25,17.5,8,7.57,3.75,13.38,6.76,17.42,9.02,4.04,2.26,7.27,4.12,9.67,5.56,2.4,1.45,6.33,3.84,11.79,7.17,5.46,3.34,12.29,7.56,20.49,12.69,8.2,5.12,16.19,10.31,23.96,15.56,7.78,5.25,14.57,10.3,20.38,15.15,5.81,4.85,10.01,8.56,12.59,11.14,2.58,2.58,5.77,6.19,9.58,10.84,3.81,4.65,7.27,9.74,10.37,15.29,3.1,5.54,5.25,9.95,6.45,13.22,1.19,3.27,2.05,6.68,2.58,10.24.53,3.55.67,6.92.41,10.11-.26,3.18-.87,6.19-1.83,9.03-.97,2.84-2.28,5.53-3.95,8.06-1.67,2.53-4.07,5.05-7.22,7.54s-6.42,4.46-9.84,5.88c-3.42,1.43-7.59,2.44-12.54,3.05-4.94.61-9.99.62-15.13.04-5.14-.58-10.56-1.85-16.25-3.8-5.69-1.95-10.45-3.85-14.27-5.71-3.82-1.86-8.96-4.96-15.44-9.3-6.47-4.34-11.38-7.89-14.74-10.65-3.35-2.76-7.14-6.07-11.35-9.93-4.21-3.87-9.07-8.61-14.56-14.25-5.5-5.63-10.27-10.81-14.32-15.54-4.05-4.73-8.37-10.29-12.95-16.69-4.59-6.4-9.01-13.52-13.28-21.38-4.27-7.85-8.89-18.87-13.87-33.05"/>
  <path id="STROKE_d1b46184-9fa8-41a3-abe4-3700558e35f9" data-name="STROKE d1b46184-9fa8-41a3-abe4-3700558e35f9" class="cls-1" d="M334.54,70.05c-.26-.08-1.74.1-4.45.53-9.33-2.95-20.11-7.88-32.35-14.77-12.24-6.9-21.55-12.34-27.94-16.33-6.39-3.99-11.27-7.05-14.63-9.2-3.36-2.15-11.67-7.88-24.92-17.19-13.25-9.31-23.3-16.55-30.15-21.73-6.85-5.18-11.85-8.96-14.99-11.35-3.14-2.39-12.49-10.03-28.04-22.91-15.55-12.88-28.36-23.78-38.44-32.7-10.08-8.92-18.4-16.55-24.97-22.88s-11.49-11.24-14.78-14.73c-3.29-3.49-6.73-7.3-10.31-11.43s-7.73-9.39-12.46-15.79c-4.73-6.4-8.33-12.08-10.81-17.03-2.48-4.96-3.98-8.39-4.52-10.29-.54-1.9-.88-3.56-1.04-4.97-.16-1.41-.22-2.67-.2-3.78.02-1.11.18-2.23.49-3.36.3-1.13.62-1.98.94-2.53.33-.55.86-1.23,1.61-2.05.75-.82,1.73-1.53,2.95-2.15,1.22-.61,2.51-1.1,3.87-1.47,1.37-.36,6.21-.32,14.52.13,8.31.45,18.07,2.03,29.28,4.73,11.21,2.7,20.8,5.27,28.77,7.71,7.97,2.44,14.46,4.56,19.46,6.35,5,1.79,11.38,4.3,19.14,7.52,7.76,3.22,15.02,6.41,21.79,9.55,6.77,3.14,14.82,7.14,24.15,12,9.33,4.86,16.55,8.75,21.64,11.67,5.09,2.92,11.32,6.77,18.69,11.54,7.37,4.77,13.59,8.94,18.65,12.5,5.06,3.56,10.44,7.49,16.13,11.79,5.69,4.29,10.14,7.7,13.36,10.21,3.21,2.51,5.34,4.18,6.37,5.02,1.04.83,3.16,2.54,6.38,5.11,3.22,2.58,5.92,4.75,8.09,6.52,2.17,1.77,5.14,4.21,8.9,7.3,3.76,3.1,8.81,7.35,15.14,12.76,6.33,5.41,11.92,10.2,16.77,14.37,4.85,4.17,12.7,11.43,23.56,21.78,10.86,10.35,19,18.41,24.43,24.18s10.04,10.8,13.85,15.08,7.16,8.16,10.08,11.63c2.91,3.47,6.76,8.28,11.54,14.42,4.78,6.15,9.06,12.03,12.85,17.64,3.79,5.61,6.92,10.69,9.39,15.24,2.47,4.55,4.48,8.92,6.03,13.11,1.55,4.19,2.53,7.91,2.93,11.14.4,3.23.42,5.89.06,7.98-.36,2.09-.78,3.56-1.26,4.43-.48.86-1.22,1.82-2.24,2.87-1.02,1.05-3.52,1.89-7.51,2.52-3.99.64-9.81-.06-17.45-2.08-7.64-2.03-14.38-4.3-20.2-6.83-5.82-2.53-10.23-4.51-13.24-5.95-3-1.44-5.05-2.41-6.14-2.93-1.09-.51-4.27-2.12-9.54-4.82-5.27-2.7-9.31-4.82-12.11-6.36-2.8-1.54-5.74-3.17-8.83-4.89-3.09-1.72-11.02-6.62-23.79-14.68-12.77-8.06-23.22-15.01-31.34-20.84-8.12-5.84-14.02-10.15-17.68-12.94-3.67-2.79-6.64-5.06-8.91-6.8-2.27-1.74-7.2-5.65-14.79-11.71-7.59-6.07-15.66-12.73-24.21-19.99-8.55-7.26-15.21-13.01-19.99-17.26s-10.3-9.36-16.56-15.34c-6.27-5.98-11.25-10.84-14.95-14.58-3.7-3.75-6.97-7.11-9.82-10.1s-6.45-6.83-10.81-11.53c-4.35-4.7-7.71-8.4-10.08-11.11-2.37-2.7-4.99-5.75-7.86-9.14-2.87-3.39-5.91-7.09-9.1-11.1-3.19-4.01-9.39-12.32-18.61-24.91"/>
</svg>