<?xml version="1.0" encoding="UTF-8"?>
<svg id="Layer_1" data-name="Layer 1" xmlns="http://www.w3.org/2000/svg" width="124.84" height="112.31" viewBox="0 0 124.84 112.31">
  <defs>
    <style>
      .cls-1 {
        fill: none;
        stroke: #ff9adf;
        stroke-linecap: round;
        stroke-linejoin: round;
        stroke-width: 8.43px;
      }
    </style>
  </defs>
  <path id="STROKE_cd4a30c3-73c4-4845-9a5f-940cdcc33d25" data-name="STROKE cd4a30c3-73c4-4845-9a5f-940cdcc33d25" class="cls-1" d="M20.97,69c.33,0,.7-.07,1.12-.23l.99-.24c1.62-.34,3.32-.72,5.11-1.15,1.79-.43,5.86-1.03,12.21-1.81s11.8-1.25,16.34-1.42c4.54-.17,8.49-.24,11.85-.22,3.37.02,6.24.08,8.63.17,2.38.09,4.42.21,6.1.35,1.68.14,4.73.34,9.15.59,4.42.25,7.74.41,9.94.47,2.21.06,5.29-.09,9.23-.46,3.95-.37,6.15-.63,6.6-.79.45-.16.91-.35,1.38-.57.47-.23.76-.41.88-.57.12-.15.15-.27.1-.35-.05-.08-.64-.4-1.76-.94-1.12-.55-2.12-.94-3.01-1.18-.89-.24-1.77-.43-2.65-.57-.88-.14-1.65-.27-2.31-.38-.66-.11-5.34-.57-14.04-1.38-8.7-.81-15.25-1.38-19.66-1.72-4.41-.34-8.08-.67-11-.97-2.92-.3-5.44-.6-7.54-.87-2.11-.28-4.35-.64-6.72-1.1-2.37-.45-4.17-.84-5.39-1.17-1.23-.32-2.51-.74-3.85-1.23-1.34-.5-2.36-.92-3.06-1.28s-1.25-.63-1.66-.83c-.71-.58-1.12-1-1.23-1.24.14-.03.37-.13.68-.3.04.03.21.06.51.1.3.03.96.13,1.97.27l1.37.32c.32.1.88.31,1.69.62.8.31,1.46.58,1.96.8.5.22,1.34.56,2.51,1.02,1.17.46,1.77.7,1.81.73.04.02.93.36,2.66,1.02,1.73.66,4.18,1.75,7.36,3.28,3.17,1.53,5.2,2.61,6.07,3.25.87.64,1.48,1.12,1.83,1.46.35.33.82.82,1.4,1.47.59.65,1.33,1.6,2.23,2.84.9,1.25,1.46,2.02,1.67,2.32.21.3.62.95,1.21,1.95s1.99,3.61,4.19,7.83c2.21,4.22,3.91,7.47,5.1,9.74,1.19,2.27,2.08,3.88,2.65,4.82.57.94,1.23,1.97,1.98,3.09.75,1.12,1.79,2.53,3.11,4.23,1.32,1.7,2.21,2.81,2.67,3.32.46.51.8.86,1.03,1.04.23.19.49.41.8.66-.02,0-.1-.22-.23-.66s-.5-1.38-1.1-2.82c-.6-1.44-1.55-3.51-2.85-6.21-1.3-2.69-2.76-5.81-4.38-9.35-1.61-3.54-3.32-7.49-5.11-11.86-1.79-4.36-3.27-8.02-4.42-10.96-1.15-2.95-2.11-5.37-2.87-7.26-.76-1.9-1.71-4.23-2.85-7-1.14-2.77-2.17-5.3-3.09-7.58-.92-2.29-2.03-4.99-3.32-8.12-1.29-3.13-2.31-5.55-3.04-7.26-.73-1.71-1.39-3.2-1.97-4.46-.58-1.26-1.25-2.47-1.99-3.63-.74-1.16-1.15-1.71-1.23-1.64-.08.06-.38,4.04-.89,11.93-.52,7.89-.55,17.92-.11,30.09.45,12.17.9,20.71,1.38,25.61.47,4.9.97,8.1,1.48,9.59s.87,2.33,1.06,2.52c.19.19.41.24.65.14.24-.09.49-.24.75-.44.26-.2.74-.82,1.43-1.85.7-1.03,1.54-2.7,2.52-5,.98-2.3,1.94-4.82,2.89-7.54.94-2.72,1.73-4.95,2.34-6.69.62-1.74,1.32-3.63,2.1-5.69.78-2.05,1.9-4.6,3.38-7.65,1.47-3.05,2.59-5.22,3.35-6.5.76-1.29,1.9-3.08,3.44-5.38,1.54-2.3,2.78-4.03,3.73-5.19.95-1.15,1.96-2.26,3.02-3.31,1.06-1.05,1.78-1.75,2.15-2.1.38-.35.68-.62.91-.79.23-.18.44-.37.64-.56l1.06-.67c.55-.22.92-.34,1.12-.38.19-.03.33-.03.4,0,.07.04.11.12.12.25,0,.13-.66.66-2,1.6-1.34.94-2.79,1.82-4.36,2.64-1.56.82-3.81,1.87-6.74,3.13-2.93,1.26-5.63,2.38-8.1,3.35-2.47.97-6.38,2.29-11.73,3.96-5.35,1.67-10.72,3.01-16.12,4.02-5.4,1.01-9.96,1.69-13.7,2.02-3.73.34-6.85.59-9.37.77-2.51.17-4.77.27-6.77.29-2,.02-3.86,0-5.57-.05-1.71-.05-2.91-.11-3.59-.16-.68-.06-1.27-.09-1.78-.09-.5,0-.9-.05-1.18-.12-.28-.07-.43-.14-.42-.19l.53-.15,1.08-.12c.33-.05,3.52.05,9.58.3,6.06.26,11.94.72,17.63,1.39,5.69.67,11.04,1.52,16.04,2.54,5,1.02,8.73,1.85,11.19,2.5,2.46.65,4.41,1.21,5.84,1.7,1.44.48,2.85.95,4.24,1.4,1.39.45,4.07,1.56,8.05,3.32,3.98,1.76,7.63,3.57,10.96,5.43,3.33,1.86,5.61,3.17,6.83,3.9,1.22.74,3.27,1.91,6.16,3.51s4.95,2.68,6.18,3.23c1.24.56,2.07.89,2.5,1.02.43.12.81.2,1.15.23.33.03.69.04,1.06.03.12-.17.19-.33.2-.47.01-.15-.35-.96-1.08-2.44-.73-1.48-2.55-4.19-5.45-8.13-2.9-3.94-6.32-8.28-10.27-13.01-3.94-4.73-7.86-9.1-11.76-13.1-3.89-4-7.18-7.28-9.86-9.84-2.68-2.56-4.92-4.82-6.71-6.78-1.8-1.96-3.29-3.7-4.48-5.23-1.19-1.53-2.06-2.72-2.63-3.58-.56-.86-.88-1.36-.96-1.51-.08-.15-.44-.78-1.08-1.9s-1.31-2.49-2.02-4.1-1.33-3.25-1.88-4.9c-.54-1.65-.84-2.51-.89-2.57-.05-.06-.63-1.73-1.73-4.99-.11.01-.19.05-.22.11-.03.06-.39,1.65-1.07,4.75-.68,3.1-1.33,6.87-1.94,11.3-.62,4.44-1.03,7.98-1.24,10.64-.21,2.66-.35,5.33-.44,8.01-.09,2.68-.08,5.97.01,9.86s.27,7.73.51,11.49c.25,3.77.56,8.11.94,13.03.38,4.92.7,9.51.96,13.78.26,4.27.45,8.03.57,11.29.12,3.26.13,5.66.03,7.2-.11,1.54-.2,2.33-.29,2.36-.08.03-.22.03-.42,0-.19-.03-.41-.01-.64.05"/>
</svg>