<?xml version="1.0" encoding="UTF-8"?>
<svg id="Layer_1" data-name="Layer 1" xmlns="http://www.w3.org/2000/svg" width="294.67" height="109.13" viewBox="0 0 294.67 109.13">
  <defs>
    <style>
      .cls-1 {
        fill: none;
        stroke: #ff9adf;
        stroke-linecap: round;
        stroke-linejoin: round;
        stroke-width: 8.43px;
      }
    </style>
  </defs>
  <path id="STROKE_a76780b5-bd8e-4d14-ae38-eaa1cccf193a" data-name="STROKE a76780b5-bd8e-4d14-ae38-eaa1cccf193a" class="cls-1" d="M112.62,86.12l-3.01,1.84c-.2.1-1.78-.15-4.74-.74-2.97-.59-6.75-2.01-11.35-4.25-4.6-2.25-9.91-5.23-15.91-8.94-6.01-3.72-13.67-8.79-22.98-15.21-9.31-6.42-16.43-11.53-21.35-15.32-4.92-3.79-9.22-7.57-12.9-11.33-3.67-3.76-6.12-6.61-7.33-8.57-1.21-1.95-2-3.55-2.37-4.79-.37-1.24-.57-2.12-.6-2.64-.03-.52-.02-1.05.04-1.59.06-.54.31-1.31.75-2.3.45-.99,1.1-1.87,1.95-2.65.85-.78,2.13-1.55,3.82-2.32,1.7-.77,4.5-1.51,8.41-2.23,3.91-.72,10.91-.99,21.01-.8,10.09.19,18.42.58,24.99,1.17,6.57.59,11.44,1.06,14.63,1.4,3.19.35,8.54.95,16.07,1.8,7.52.86,14.1,1.71,19.74,2.56,5.64.85,12.82,2.3,21.54,4.35,8.72,2.05,15.98,3.94,21.77,5.66,5.79,1.73,10.37,3.14,13.74,4.23,3.37,1.09,7.37,2.42,12.01,3.97s12.88,4.59,24.73,9.11c11.85,4.52,21.52,8.41,29,11.65,7.48,3.24,12.9,5.73,16.25,7.46,3.35,1.73,7.22,4.09,11.61,7.07,4.39,2.98,8.03,6.08,10.92,9.29,2.89,3.21,4.81,5.87,5.77,7.99.95,2.12,1.48,3.83,1.58,5.15s-.07,2.64-.51,3.99c-.43,1.34-1.57,2.9-3.41,4.67-1.84,1.77-4.24,3.26-7.2,4.47-2.96,1.21-6.7,2.18-11.22,2.92s-8.14,1.19-10.88,1.37c-2.74.17-4.95.29-6.63.34-1.68.05-6.26-.07-13.74-.37-7.48-.3-13.7-.72-18.68-1.26-4.98-.54-9.86-1.18-14.64-1.91-4.78-.73-9.48-1.52-14.09-2.37-4.61-.85-8.2-1.52-10.76-2.02-2.56-.5-7.74-1.73-15.55-3.69-7.8-1.96-14.01-3.65-18.63-5.08-4.62-1.42-9.24-2.93-13.86-4.53-4.63-1.6-10.65-3.89-18.07-6.87-7.42-2.98-15.48-6.5-24.16-10.55-8.69-4.05-15.53-7.35-20.53-9.88-5-2.54-9.44-4.87-13.34-7.02-3.89-2.14-7.15-3.93-9.76-5.37-2.61-1.44-7.87-4.64-15.78-9.61-7.91-4.96-16.16-10.47-24.76-16.52"/>
</svg>