<?xml version="1.0" encoding="UTF-8"?>
<svg id="Layer_1" data-name="Layer 1" xmlns="http://www.w3.org/2000/svg" width="373.14" height="445.01" viewBox="0 0 373.14 445.01">
  <defs>
    <style>
      .cls-1 {
        fill: none;
        stroke: #ff9adf;
        stroke-linecap: round;
        stroke-linejoin: round;
        stroke-width: 8.43px;
      }
    </style>
  </defs>
  <path id="STROKE_119bcd13-6ae2-49c7-b2ba-25057a12a89f" data-name="STROKE 119bcd13-6ae2-49c7-b2ba-25057a12a89f" class="cls-1" d="M91.34,475.55l-1.35-.51c-1.04-.74-3.08-2.43-6.13-5.07-3.04-2.64-7.55-6.85-13.51-12.63-5.96-5.79-10.97-10.87-15.04-15.24-4.07-4.37-8.5-9.19-13.3-14.46s-14.39-16.29-28.77-33.08c-14.38-16.79-25.41-30.08-33.08-39.88-7.68-9.8-13.76-17.84-18.25-24.11-4.49-6.27-10.73-15.48-18.69-27.63-7.97-12.15-13.69-22.08-17.16-29.8-3.47-7.71-5.6-13.24-6.39-16.59-.79-3.35-1.2-5.9-1.21-7.66s.13-3.24.46-4.43.75-2.17,1.27-2.93.93-1.27,1.21-1.56c.28-.29.67-.55,1.18-.78.5-.24,1.19-.43,2.05-.58.86-.15,2.43,0,4.71.48,2.28.47,5.15,1.64,8.61,3.54,3.46,1.89,5.99,3.43,7.58,4.62,1.6,1.18,4.11,3.18,7.55,5.98,3.44,2.8,7.15,6.02,11.15,9.65,4,3.63,9.72,9.17,17.15,16.61s17.6,18.36,30.5,32.76c12.9,14.39,22.62,25.24,29.16,32.54,6.54,7.3,11.19,12.47,13.95,15.5,2.76,3.03,5.48,6.03,8.17,8.98,2.69,2.95,15.03,16.17,37.03,39.67,22,23.49,41.36,44.52,58.08,63.09,16.72,18.57,29.27,32.5,37.64,41.79,8.37,9.29,18.14,20.49,29.31,33.6,11.17,13.12,20.21,23.99,27.14,32.61,6.92,8.63,12.02,15.01,15.28,19.16s7.58,10.38,12.95,18.71c5.37,8.33,9.02,14.59,10.95,18.79,1.94,4.2,3.12,7.33,3.55,9.39.43,2.06.58,3.71.46,4.94-.13,1.23-.39,2.21-.78,2.92-.4.71-.87,1.22-1.42,1.52-.55.3-1.18.56-1.9.77-.71.21-3.05-.06-7.01-.81-3.96-.75-9.39-2.99-16.29-6.72-6.9-3.73-15.02-9.09-24.35-16.09-9.33-7-18.62-14.4-27.87-22.22-9.25-7.82-20.15-17.17-32.69-28.06-12.55-10.89-26.31-23.66-41.28-38.31-14.97-14.65-27.07-26.73-36.3-36.24-9.23-9.51-17.54-18.45-24.95-26.84-7.4-8.39-13.16-15.07-17.26-20.05-4.1-4.98-11.87-14.82-23.32-29.52"/>
  <path id="STROKE_4fe4ebd2-8bfa-4946-bedc-27e8cf2b2227" data-name="STROKE 4fe4ebd2-8bfa-4946-bedc-27e8cf2b2227" class="cls-1" d="M460.68,288.02c-.85.16-1.58.28-2.18.36-.6.08-1.03.13-1.28.15-.25.02-1.66-.3-4.24-.95-2.58-.65-5.17-1.57-7.79-2.74-2.62-1.17-4.25-1.91-4.88-2.22-.64-.3-3.26-2.09-7.89-5.35-4.62-3.26-8.39-6.11-11.32-8.55-2.92-2.44-8.71-7.82-17.37-16.14-8.66-8.32-16.39-16.25-23.2-23.77-6.81-7.53-13.43-15.32-19.87-23.39-6.44-8.06-13.32-17.36-20.64-27.9-7.32-10.54-13.44-20.39-18.38-29.56-4.94-9.17-8.51-16.28-10.71-21.33s-4.4-10.85-6.57-17.39c-2.18-6.54-3.71-11.52-4.58-14.94-.88-3.42-1.63-8.54-2.25-15.38-.62-6.84-.61-12.85.03-18.04.65-5.18,1.81-9.89,3.48-14.12,1.67-4.23,3.5-7.55,5.48-9.96,1.98-2.41,3.99-4.3,6.04-5.68,2.05-1.38,4.14-2.43,6.28-3.15,2.14-.72,4.4-1.21,6.78-1.46,2.38-.25,6.67.36,12.86,1.82,6.19,1.46,13.54,4.55,22.05,9.28s14.73,8.53,18.67,11.4c3.93,2.87,8.21,6.21,12.84,10.01,4.62,3.8,9.6,8.17,14.93,13.12,5.33,4.95,10.89,10.59,16.68,16.91,5.79,6.32,10.62,12.09,14.5,17.29,3.88,5.2,6.67,9.11,8.37,11.71,1.7,2.61,3.44,5.38,5.2,8.33,1.76,2.95,3.02,5.14,3.77,6.59.75,1.45,1.55,2.9,2.39,4.36.84,1.46,3.17,6.66,6.99,15.6,3.82,8.94,6.51,15.91,8.08,20.91,1.57,5,2.73,10.15,3.49,15.45.76,5.3,1.11,9.5,1.04,12.61-.07,3.11-.25,5.73-.53,7.85-.28,2.13-.87,4.56-1.75,7.3-.88,2.74-1.81,5.05-2.77,6.93-.97,1.88-1.68,3.11-2.15,3.68-.46.58-1,1.25-1.6,2.03-.6.78-2.28,2.11-5.04,4-2.76,1.89-5.42,3.24-7.98,4.07-2.56.82-5.88,1.01-9.96.57-4.08-.44-7.65-1.28-10.69-2.52-3.04-1.24-7.03-3.48-11.95-6.71-4.93-3.23-9.38-6.62-13.37-10.16-3.99-3.54-7.32-6.64-9.99-9.29-2.67-2.65-6.75-6.97-12.23-12.94-5.48-5.98-11.72-13.77-18.73-23.38-7-9.61-16.29-25.46-27.87-47.54"/>
  <path id="STROKE_83e8da58-76f7-4b60-8c9f-748f2251a8ca" data-name="STROKE 83e8da58-76f7-4b60-8c9f-748f2251a8ca" class="cls-1" d="M309.92,395.11c-2.77,1.58-4.57,2.57-5.37,2.98-.81.4-2.02.84-3.64,1.31-1.62.47-4.66-.02-9.12-1.48-4.46-1.46-8.22-3.24-11.28-5.36-3.06-2.11-6.23-4.58-9.52-7.39-3.28-2.81-5.85-5.1-7.71-6.87-1.86-1.77-7.74-7.52-17.65-17.26-9.91-9.74-17.75-17.66-23.54-23.77-5.79-6.11-14.24-15.1-25.35-26.99-11.12-11.89-20.01-21.46-26.68-28.74-6.67-7.27-12.8-14.08-18.39-20.44s-10.69-12.25-15.3-17.69c-4.61-5.44-10.97-13.1-19.07-22.97-8.1-9.87-13.42-16.36-15.97-19.46-2.54-3.1-7.83-9.91-15.87-20.43-8.04-10.51-15.3-20.54-21.8-30.07-6.5-9.53-11.18-16.6-14.05-21.2-2.87-4.6-5.65-9.1-8.34-13.5-2.69-4.4-6.74-11.5-12.12-21.3-5.39-9.8-9.9-18.93-13.55-27.37-3.64-8.45-6.23-14.9-7.75-19.37-1.53-4.47-2.59-9.33-3.2-14.59-.61-5.26-.61-9.58,0-12.95.62-3.37,1.38-5.89,2.28-7.55.91-1.66,1.71-2.88,2.41-3.65.7-.77,1.91-1.66,3.62-2.66,1.72-1,3.52-1.64,5.4-1.93,1.88-.28,4.21-.26,7,.05,2.79.32,7.56,1.98,14.31,4.98,6.76,3,14.5,7.78,23.24,14.34,8.74,6.56,16.39,13,22.96,19.33,6.57,6.33,12.15,11.96,16.76,16.87,4.61,4.91,11.32,12.18,20.15,21.78,8.83,9.61,15.6,17.01,20.33,22.2,4.73,5.19,10.23,11.36,16.52,18.5,6.28,7.14,14.01,16.45,23.19,27.93,9.17,11.48,19.43,24.74,30.76,39.78,11.33,15.04,18.26,24.28,20.79,27.73,2.53,3.44,6.12,8.42,10.76,14.92,4.65,6.51,8.63,12.14,11.96,16.92,3.33,4.77,10.04,14.27,20.13,28.5,10.09,14.23,17.75,25,22.98,32.32,5.23,7.32,9.83,13.7,13.79,19.14,3.96,5.45,9.28,13.07,15.94,22.89,6.67,9.81,11.87,17.75,15.59,23.81,3.73,6.06,6.75,11.12,9.06,15.18,2.31,4.06,4.96,9.34,7.92,15.86,2.97,6.52,4.84,11.62,5.61,15.33.77,3.7.98,6.61.62,8.73-.36,2.12-1,3.81-1.92,5.06-.92,1.26-2.04,2.2-3.35,2.84-1.31.64-2.44,1.06-3.39,1.28-.95.22-3.25.15-6.92-.2-3.66-.35-7.09-1.15-10.28-2.4-3.19-1.24-5.96-2.44-8.33-3.6s-7.92-4.62-16.66-10.39c-8.74-5.77-19.97-14.51-33.67-26.22-13.7-11.71-25.42-21.88-35.14-30.52-9.72-8.64-18.97-17.2-27.74-25.68s-15.79-15.32-21.06-20.5c-5.27-5.19-12.7-12.65-22.31-22.38-9.6-9.73-16.95-17.34-22.05-22.83-5.09-5.49-13.43-14.52-25.01-27.09-11.58-12.57-19.97-21.73-25.18-27.48-5.2-5.75-8.61-9.52-10.21-11.3-1.6-1.78-11.41-13.15-29.43-34.09"/>
</svg>