<?xml version="1.0" encoding="UTF-8"?>
<svg id="Layer_1" data-name="Layer 1" xmlns="http://www.w3.org/2000/svg" width="502.67" height="282.77" viewBox="0 0 502.67 282.77">
  <defs>
    <style>
      .cls-1 {
        fill: none;
        stroke: #ff9adf;
        stroke-linecap: round;
        stroke-linejoin: round;
        stroke-width: 8.43px;
      }
    </style>
  </defs>
  <path id="STROKE_444528b2-77e6-4d21-bba0-6da91b8f1ba6" data-name="STROKE 444528b2-77e6-4d21-bba0-6da91b8f1ba6" class="cls-1" d="M448.16,264.41c.15.09,2.48,2.4,7,6.91.06.05-2.19-.32-6.75-1.12-4.56-.79-19.37-6.13-44.44-16.01-25.07-9.88-44.02-17.58-56.86-23.07-12.84-5.5-22.68-9.77-29.51-12.83-6.84-3.05-11.94-5.33-15.31-6.81-3.37-1.49-12.08-5.51-26.13-12.07-14.05-6.56-27.34-12.89-39.86-18.99-12.52-6.1-21.64-10.54-27.36-13.31-5.72-2.78-10.15-4.93-13.29-6.45-3.14-1.52-8.22-4.06-15.23-7.62-7.01-3.55-13.65-6.94-19.92-10.17-6.27-3.23-16.27-8.94-30-17.14-13.73-8.2-23.98-14.57-30.75-19.11-6.77-4.55-11.78-7.99-15.05-10.34-3.27-2.35-8.08-5.93-14.43-10.74-6.35-4.81-13.85-11.22-22.51-19.23-8.65-8.01-14.99-14.11-19.03-18.32-4.03-4.2-7.71-8.33-11.05-12.37-3.33-4.04-5.75-7.21-7.26-9.51s-2.82-4.66-3.94-7.09c-1.12-2.43-1.81-4.36-2.07-5.79-.27-1.43-.27-2.63-.02-3.61.25-.98.65-1.79,1.2-2.43.55-.64,1.13-1.11,1.74-1.41.61-.3,1.26-.57,1.94-.84.68-.26,1.47-.47,2.39-.63.92-.16,3.96-.11,9.13.15,5.17.25,9.73.78,13.68,1.58,3.95.8,9.26,2.16,15.91,4.09,6.65,1.93,13.57,4.11,20.76,6.54,7.19,2.44,13.44,4.63,18.76,6.6,5.32,1.96,9.32,3.47,12.01,4.51,2.69,1.05,7.8,3.13,15.33,6.23s17.11,7.4,28.76,12.89c11.65,5.49,24.4,11.74,38.26,18.77,13.86,7.02,23.65,11.98,29.36,14.87,5.72,2.89,12.42,6.29,20.12,10.2,7.7,3.91,19.69,9.89,35.97,17.94,16.29,8.05,31.32,15.54,45.1,22.47,13.78,6.93,24.59,12.52,32.43,16.77,7.84,4.25,13.85,7.56,18.03,9.93,4.18,2.37,8.03,4.57,11.56,6.61,3.53,2.04,10.7,6.53,21.52,13.47,10.81,6.94,20.34,13.44,28.58,19.5,8.24,6.06,15.91,12.16,22.98,18.31,7.08,6.15,12.45,10.99,16.1,14.54,3.65,3.54,7.91,7.92,12.77,13.12,4.86,5.2,8.41,9.27,10.67,12.19s4.18,5.89,5.77,8.89c1.59,3,2.53,5.17,2.83,6.53.29,1.35.43,2.34.4,2.97-.03.63-.12,1.2-.27,1.72-.15.52-.29.88-.4,1.09s-.46.51-1.04.89c-.58.38-.98.59-1.2.64-.22.04-.41.12-.58.24-.17.12-3.18-.39-9.04-1.5-5.86-1.12-14.61-4.39-26.26-9.83-11.65-5.44-21.76-10.24-30.34-14.39-8.58-4.16-16.58-8.01-24-11.57-7.42-3.56-13.98-6.72-19.7-9.49-5.71-2.76-10.84-5.24-15.38-7.41-4.54-2.18-8.33-4.02-11.36-5.52-3.03-1.5-7.96-3.92-14.76-7.25-6.81-3.33-11.95-5.85-15.43-7.57-3.48-1.71-8.63-4.26-15.45-7.65-6.82-3.38-15.12-7.44-24.89-12.15-9.77-4.72-15.83-7.65-18.19-8.8-2.36-1.15-10.68-5.12-24.98-11.9-14.3-6.78-25.39-12.01-33.29-15.68-7.9-3.67-13.75-6.39-17.56-8.15-3.81-1.77-7.38-3.4-10.71-4.91-3.33-1.5-11-5.08-22.99-10.73-12-5.65-23.23-11.18-33.69-16.58-10.46-5.4-22.67-11.94-36.61-19.62-13.94-7.68-23.79-13.01-29.55-15.98"/>
</svg>