<?xml version="1.0" encoding="UTF-8"?>
<svg id="Layer_1" data-name="Layer 1" xmlns="http://www.w3.org/2000/svg" width="69.13" height="52.42" viewBox="0 0 69.13 52.42">
  <defs>
    <style>
      .cls-1 {
        fill: none;
        stroke: #ff9adf;
        stroke-linecap: round;
        stroke-linejoin: round;
        stroke-width: 8.43px;
      }
    </style>
  </defs>
  <path id="STROKE_57b41b71-d8fe-4fee-8446-2cf79125db97" data-name="STROKE 57b41b71-d8fe-4fee-8446-2cf79125db97" class="cls-1" d="M44.28,58.12c-.08-.03-.13-.06-.15-.08-.01-.02-.02-.09,0-.22,0-.13.11-.75.31-1.85.19-1.11.41-2.18.65-3.2s.43-1.83.58-2.41c.15-.58.23-.9.25-.97.02-.07.2-.9.54-2.48.34-1.59.54-2.63.6-3.13.06-.5.12-1.1.17-1.79.05-.69.09-1.67.11-2.94s0-2.54-.09-3.82c-.08-1.28-.15-2.2-.19-2.76-.04-.56-.1-1.14-.16-1.72-.06-.58-.12-1.2-.17-1.86-.06-.65-.1-1.09-.12-1.31-.02-.22-.05-.63-.08-1.23-.03-.6-.05-1.36-.05-2.26,0-.91.03-1.81.1-2.72.07-.9.15-1.69.26-2.37.11-.67.29-1.54.54-2.59.26-1.05.48-1.9.68-2.55.2-.65.42-1.33.68-2.02.25-.69.48-1.27.68-1.75.2-.47.44-.99.72-1.54.28-.55.51-.98.69-1.27.18-.29.41-.66.67-1.09"/>
  <path id="STROKE_986ae89e-cc60-4923-a77e-ee4d04eede94" data-name="STROKE 986ae89e-cc60-4923-a77e-ee4d04eede94" class="cls-1" d="M55.01,15.26c-.47.54-.88.98-1.22,1.34-.34.36-.69.73-1.04,1.13-.35.4-.84.93-1.45,1.58-.61.66-1.08,1.17-1.42,1.53-.34.36-.72.78-1.16,1.24-.44.47-.98,1.07-1.65,1.8-.66.74-1.17,1.3-1.53,1.69-.36.39-.64.72-.86.96-.21.25-.52.59-.92,1.03-.4.43-.93,1.01-1.61,1.73-.68.72-1.25,1.31-1.71,1.79-.46.47-.93.95-1.4,1.44s-.87.89-1.2,1.23c-.33.34-.54.55-.61.64s-.27.29-.59.62c-.32.33-.7.73-1.13,1.19-.43.47-1.29,1.52-2.58,3.14-1.28,1.63-2.02,2.58-2.21,2.86-.19.28-.5.77-.92,1.46s-.81,1.37-1.15,2.01c-.34.65-.6,1.18-.78,1.58s-.36.89-.56,1.44c-.2.56-.37,1.1-.53,1.62-.16.53-.36,1.27-.61,2.24"/>
  <path id="STROKE_8251e611-381b-4f47-a902-3bbd371ecba7" data-name="STROKE 8251e611-381b-4f47-a902-3bbd371ecba7" class="cls-1" d="M60.79,31.25l-.22.25s-.2.14-.48.4c-.8.15-1.21.22-1.23.21-.02,0-1.59-.05-4.71-.16-3.12-.1-5.81-.22-8.06-.35-2.25-.13-5.94-.38-11.09-.74-5.14-.36-9.19-.69-12.15-.98-2.96-.29-5.58-.48-7.89-.56-2.3-.08-3.89-.1-4.77-.04-.88.06-1.47.11-1.77.15-.3.04-.61.1-.9.16-.3.07-.56.18-.78.33l-1.06.49"/>
  <path id="STROKE_2f29de3d-c366-4755-b43a-dd83fc14c227" data-name="STROKE 2f29de3d-c366-4755-b43a-dd83fc14c227" class="cls-1" d="M64.91,48.21c-.17-.23-.29-.4-.35-.5-.41-.38-.94-.83-1.58-1.36-.64-.53-1.05-.86-1.21-1-.16-.13-.57-.45-1.24-.95-.67-.5-1.49-1.11-2.48-1.84-.99-.73-1.96-1.42-2.92-2.07-.65-.46-1.12-.79-1.41-.98-.29-.19-.76-.51-1.4-.95-.65-.44-1.38-.94-2.2-1.49-.82-.55-1.39-.93-1.69-1.13-.31-.21-.55-.36-.74-.48-.19-.11-.63-.38-1.33-.81-.7-.43-1.36-.82-1.98-1.18-.62-.36-1.32-.77-2.11-1.22-.79-.46-1.71-1.01-2.76-1.66-.63-.39-1.18-.73-1.64-1.05-.46-.31-.97-.65-1.51-1.02-.54-.37-.98-.65-1.3-.86-.33-.21-.76-.47-1.32-.81-.94-.61-1.73-1.15-2.37-1.62-.65-.47-1.1-.81-1.36-1.03-.26-.21-.47-.38-.62-.5-.15-.12-.61-.5-1.38-1.14-.09-.1-.2-.19-.32-.28-.12-.09-.42-.34-.89-.76l-.23-.25c-.5-.48-.89-.85-1.16-1.13-.27-.28-.55-.57-.85-.87-.3-.31-.71-.77-1.24-1.4"/>
</svg>