<?xml version="1.0" encoding="UTF-8"?>
<svg id="Layer_1" data-name="Layer 1" xmlns="http://www.w3.org/2000/svg" width="82.71" height="112.83" viewBox="0 0 82.71 112.83">
  <defs>
    <style>
      .cls-1 {
        fill: none;
        stroke: #ff9adf;
        stroke-linecap: round;
        stroke-linejoin: round;
        stroke-width: 8.43px;
      }
    </style>
  </defs>
  <path id="STROKE_3b8a9e26-2932-4fc1-95ee-cda9e487d480" data-name="STROKE 3b8a9e26-2932-4fc1-95ee-cda9e487d480" class="cls-1" d="M36.91,27.79c.08.38.11.54.1.47.05.04.36.74.92,2.09.56,1.35,1.08,2.65,1.57,3.9.48,1.25.82,2.16,1,2.73s.34,1.03.46,1.38c.13.35.3.95.53,1.79.23.84.43,1.57.59,2.19.16.62.24.93.22.93-.02,0,.05.22.21.65.16.44.53,1.64,1.13,3.61.59,1.97,1.21,4.27,1.84,6.9.64,2.63,1.26,5.38,1.86,8.27.61,2.89,1.13,5.26,1.57,7.11.44,1.86.75,3.14.94,3.86.19.72.36,1.31.51,1.78.15.47.25.81.31,1.04.06.23.08.36.09.39,0,.03,0,.04-.01.03-.01-.01.02.07.1.24.08.17.19.48.34.95.15.46.25.82.31,1.08.06.26.12.54.19.85.07.3.15.62.24.96.09.34.16.59.19.77.04.17.06.3.08.39.02.09.02.08,0-.04-.02-.11.09.42.32,1.59.23,1.17.42,2.17.58,2.98.16.81.28,1.42.37,1.84.09.41.16.75.22,1,.05.25.07.36.06.34-.01-.03.03.2.14.68.11.48.2.96.28,1.42.08.47.14.8.17.99.03.19.05.41.07.64.01.23.04.43.08.59.04.16.06.24.06.23,0,0,0,.03.02.12.02.09.02.07,0-.05-.01-.12,0,.09.07.64.06.55.11.99.16,1.32.04.33.08.59.12.77.03.18.07.36.1.53.03.17.05.29.06.34,0,.05,0,.08,0,.07,0,0,.05.37.16,1.13.11.76.22,1.63.34,2.63.12,1,.23,1.71.33,2.16.09.44.16.78.19,1.02.03.24.08.5.14.79.06.29.09.41.08.36-.01-.05-.02-.06,0-.03,0,.03.03.11.06.24s.06.31.09.54c.02.23.11.74.26,1.53-.01,0-.13.04-.36.12.06-.02-.04-.06-.31-.12-.27-.06-.51-.12-.72-.19-.21-.07-.39-.14-.53-.2-.14-.07-.3-.14-.47-.21-.17-.07-.24-.1-.2-.09.04.01-.02-.02-.18-.1-.15-.08-.22-.13-.19-.13s-.17-.12-.61-.35c-.44-.23-.78-.39-1.04-.49-.25-.1-.4-.16-.45-.16-.05,0-.14-.04-.27-.09-.13-.05-.27-.11-.42-.17-.15-.06-.23-.09-.23-.09,0,0,0,0,.01,0,0,0-.09-.02-.3-.09-.21-.07-.39-.13-.54-.2-.15-.06-.24-.1-.25-.1-.01,0-.01,0,0,0s-.04-.02-.17-.07-.31-.12-.53-.2c-.22-.08-.39-.14-.51-.17-.12-.03-.19-.06-.21-.09-.03-.03-.03-.04-.02-.03,0,0-.16-.04-.51-.12-.35-.09-.83-.29-1.44-.6-.61-.32-1.14-.6-1.59-.85-.45-.25-.77-.41-.98-.49-.2-.08-.35-.17-.42-.27-.08-.1-.14-.17-.19-.21-.05-.03-.18-.09-.38-.16-.2-.07-.33-.12-.37-.15-.05-.02-.19-.11-.42-.25-.24-.14-.36-.21-.37-.2-.01.01-.04.01-.07,0-.03,0-.04-.02-.02-.04.02-.02-.17-.12-.57-.3-.4-.18-.7-.31-.9-.41-.2-.09-.34-.16-.4-.19-.07-.03-.23-.11-.48-.23-.26-.12-.33-.16-.23-.12.1.04.09.03-.03-.05-.12-.07-.61-.24-1.48-.5-.87-.26-1.6-.51-2.2-.74-.6-.23-1.04-.42-1.3-.57s-.49-.28-.66-.39c-.17-.11-.26-.16-.27-.17,0,0-.03-.01-.08-.04-.05-.03-.12-.04-.2-.03-.09.01-.38-.12-.88-.4-.5-.28-.97-.54-1.41-.8-.43-.26-.77-.45-1.01-.57-.24-.12-.37-.2-.41-.22-.03-.03-.06-.04-.07-.05,0,0-.12-.08-.34-.21-.22-.13-.34-.2-.35-.2-.02,0-.02,0,0,.03.01.02-.08-.02-.28-.13-.2-.1-.33-.17-.37-.21-.05-.03-.07-.05-.07-.05,0,0-.08-.07-.24-.19-.16-.13-.25-.2-.28-.22-.03-.02-.02,0,.05.03.06.04-.19-.06-.76-.31-.57-.24-1.01-.45-1.33-.63-.32-.18-.53-.29-.65-.34-.11-.05-.23-.12-.35-.19-.12-.07-.24-.14-.36-.21-.12-.07-.2-.1-.23-.09-.03,0-.03,0,0,.01.03,0-.2-.15-.7-.47-.5-.32-1.04-.61-1.63-.86-.59-.26-1.11-.45-1.55-.58-.44-.13-.78-.25-1.02-.37-.23-.12-.36-.19-.39-.2-.03-.02-.13-.07-.3-.17-.17-.1-.28-.16-.34-.18-.06-.03-.09-.04-.11-.05-.02,0,0,0,.06.02.06.02,0,0-.19-.1-.19-.09-.4-.16-.63-.2-.23-.05-.55-.16-.98-.34-.43-.18-.76-.36-.99-.53-.23-.17-.41-.3-.52-.38-.11-.08-.23-.15-.37-.22-.13-.07-.13-.07,0,0,.14.07-.07-.07-.62-.41-.55-.34-1.04-.62-1.46-.85-.42-.23-.68-.38-.77-.43-.09-.06-.13-.08-.12-.07.01,0,.01,0,0,0s0,0,.02.02c.03.01.03.01,0,0-.03-.02-.15-.09-.36-.24-.21-.14-.32-.21-.32-.21,0,0-.01,0-.03-.01-.02-.01-.15-.08-.39-.21-.24-.13-.38-.2-.39-.22-.02-.02-.04-.03-.05-.04-.02,0-.01,0,0,0,.02,0-.01-.01-.1-.04-.09-.03-.21-.1-.38-.2s-.26-.15-.26-.15c0,0,0,0,0,0,0,0-.07-.05-.2-.13-.13-.08-.25-.15-.34-.21-.09-.06-.14-.09-.13-.1,0-.01,0,0,0,.02,0,.03-.03,0-.06-.11-.03-.1-.07-.23-.1-.39.02-.01.05-.04.11-.07,0,0,0-.02,0-.03-.23,0,.23-.13,1.38-.38,1.15-.25,2.15-.56,3.02-.93.87-.37,1.51-.66,1.93-.87.42-.21.73-.36.93-.45.2-.09.33-.14.4-.16.06-.02.1-.03.12-.04.02,0,.01,0,0,0-.02,0,.04,0,.18-.05.14-.04.49-.17,1.04-.38.55-.21.94-.37,1.16-.48.22-.11.41-.21.56-.29.15-.08.43-.26.85-.55.42-.28.84-.58,1.27-.88.43-.3.89-.6,1.39-.89.5-.29.88-.48,1.15-.59.27-.11.4-.16.4-.16,0,0,.08-.05.25-.13.16-.09.36-.19.6-.32.24-.13.38-.2.42-.23s.13-.06.23-.12c.11-.06.28-.16.51-.29.23-.14.46-.27.69-.4.23-.13.54-.28.93-.47.39-.19.75-.35,1.07-.48.32-.13.53-.22.63-.28.11-.06.29-.13.54-.23.25-.1.52-.21.81-.34.29-.13.56-.24.83-.34s.47-.19.6-.25c.13-.07.31-.14.53-.23.23-.09.37-.14.42-.17.06-.02.04-.02-.06,0-.1.03.25-.17,1.05-.6.8-.42,1.58-.78,2.36-1.06.78-.28,1.46-.55,2.06-.81.6-.26,1.06-.45,1.38-.57.32-.12.55-.21.68-.27.13-.05.28-.12.46-.19.17-.07.26-.1.25-.1,0,0-.02,0-.04,0-.02,0,.06-.04.22-.12.17-.08.96-.35,2.37-.82,1.41-.46,2.51-.87,3.29-1.21.78-.34,1.39-.61,1.83-.81.44-.2.75-.34.95-.41.19-.07.37-.15.53-.22.16-.08.32-.16.48-.25.16-.09.35-.19.56-.28.21-.1.43-.2.66-.31.23-.11.33-.15.3-.13-.04.02.04-.03.23-.13.19-.11.26-.14.2-.1-.06.04.25-.13.92-.52.67-.39,1.22-.74,1.67-1.04.45-.31.76-.54.93-.7.18-.16.34-.3.5-.41.16-.12.26-.18.3-.18.04,0,.08-.02.12-.04.04-.02.04-.03,0-.01-.04.02.18-.14.68-.46.5-.32,1.09-.66,1.76-1.02.67-.36,1.13-.58,1.37-.66.24-.08.45-.15.64-.2.19-.05.3-.09.32-.1s.02-.01-.02,0,.07-.03.32-.13c.25-.11.31-.13.17-.07-.14.06.16-.07.9-.39v-.02s.03-.03.05-.04v-.03c.1-.04.18-.06.23-.07,0,0,0-.02,0-.03.02,0,.04,0,.06-.01,0,0-.02-.11-.06-.29"/>
  <path id="STROKE_da472134-2772-4562-9279-e27e7b1d8d50" data-name="STROKE da472134-2772-4562-9279-e27e7b1d8d50" class="cls-1" d="M66.58,4.3c-.09.13-.13.12-.12-.03.01-.15,0,.02-.02.51-.03.49-.04.93-.03,1.31,0,.38,0,.58,0,.59,0,0,0,.03,0,.07,0,.03,0,.03,0-.03,0-.05,0-.08,0-.07,0,0-.02.23-.07.66-.05.43-.09.68-.11.75-.02.07-.03.11-.04.12,0,0-.01.03,0,.07,0,.04-.05.36-.16.97-.11.6-.28,1.23-.51,1.88-.23.65-.44,1.23-.62,1.77-.19.53-.32.9-.39,1.11-.07.21-.21.58-.42,1.12-.2.54-.36.98-.47,1.31-.11.34-.18.58-.22.73-.04.15-.07.29-.11.42s-.1.35-.19.66c-.09.31-.18.63-.28.95-.09.32-.17.6-.24.84-.07.24-.09.34-.07.28.02-.06-.01.04-.08.3-.07.26-.23.78-.46,1.58-.23.8-.42,1.43-.56,1.89-.14.46-.28.82-.4,1.08-.12.26-.27.66-.46,1.19-.18.53-.33.92-.44,1.16-.11.24-.17.38-.18.42-.01.04-.05.15-.12.33-.07.18-.14.38-.21.62-.07.24-.16.51-.26.79s-.19.53-.25.74c-.06.21-.09.32-.1.34,0,.02,0,.01.01-.01,0-.03-.02.08-.1.32-.08.25-.16.53-.26.85-.1.32-.18.6-.24.84-.06.24-.11.4-.13.49-.02.09-.06.22-.11.41-.05.19-.07.28-.06.26.01-.02-.11.44-.38,1.38-.27.94-.54,1.86-.81,2.78-.27.91-.43,1.55-.48,1.91-.05.36-.16.81-.33,1.35-.17.54-.27.91-.3,1.09-.03.19-.09.51-.19.97-.1.46-.17.81-.21,1.05-.04.24-.09.46-.16.67-.06.21-.15.44-.27.67-.12.24-.17.36-.17.37,0,0,.01,0,.01,0,0,0-.03.08-.11.26-.08.18-.16.43-.26.75-.1.32-.18.58-.25.77-.07.19-.1.3-.09.34,0,.04,0,.1-.02.17-.02.07-.04.14-.05.2-.01.06-.05.23-.1.52-.06.29-.08.41-.08.35,0-.05-.06.19-.2.73-.14.54-.25.91-.32,1.14-.07.22-.19.58-.38,1.06-.19.48-.32.84-.4,1.08-.08.24-.12.35-.12.32,0-.02-.08.13-.21.47-.14.34-.2.5-.19.49,0-.01-.02.06-.09.2-.07.14-.1.21-.1.2,0,0-.04.1-.13.33-.09.23-.14.34-.15.34,0,0-.04.06-.08.2-.04.14-.09.27-.13.4-.04.13-.08.23-.11.28-.03.06-.02.01.04-.13.06-.14-.11.33-.52,1.42-.4,1.09-.78,2.04-1.13,2.85-.35.81-.57,1.34-.64,1.59-.08.26-.13.4-.16.42-.03.02-.05.05-.04.07,0,.02.01.01.02-.03,0-.04-.03,0-.09.14-.06.14-.14.38-.24.72-.1.35-.19.64-.28.88-.09.24-.13.38-.15.43-.01.04-.01.03,0-.04.02-.07-.02.04-.12.33-.1.29-.22.69-.35,1.18-.14.5-.26.91-.37,1.23-.11.32-.19.55-.24.69-.05.14-.07.2-.05.16.02-.03,0,.02-.04.16-.05.14-.14.43-.28.86-.14.43-.23.73-.28.89-.05.16-.08.31-.11.45-.03.14-.05.29-.08.44-.03.15-.05.23-.05.24,0,0,0,0,0,0,.01-.01,0,0-.02.04-.03.04-.11.26-.24.66-.13.4-.27,1.07-.43,2.02-.15.95-.29,1.69-.42,2.24-.13.54-.19.87-.2.98s-.05.27-.11.5c-.06.23-.09.33-.08.31,0-.02,0,.05-.05.21-.04.15-.07.25-.09.29-.01.04-.02.05-.02.03s0-.03,0-.02c0,0,0,.02-.02.04,0,.02-.02.08-.05.17s-.08.36-.17.8c-.09.45-.11.6-.07.46.04-.14.04-.09,0,.15-.05.24-.16.64-.34,1.21-.18.57-.34,1.11-.48,1.64-.14.52-.24.92-.3,1.19-.06.27-.12.46-.19.59s-.12.19-.14.18c-.02,0-.04,0-.03,0,0,0,0,0,0-.01,0,0,0,.02,0,.08,0,.06,0,.23-.03.5-.02.27-.03.41-.05.41-.01,0-.02,0-.03,0,0,0-.03.05-.07.18-.04.12-.08.3-.12.54-.03.23-.07.46-.11.68-.04.22-.05.32-.04.3.01-.02.01-.02,0-.01-.01.01-.04.09-.09.22-.05.14-.11.27-.17.38-.06.12-.1.2-.12.25-.01.05-.03.06-.05.03-.02-.03-.08.17-.18.58-.1.42-.2.87-.29,1.37-.1.5-.18.88-.27,1.14-.08.26-.13.43-.16.49-.02.06-.07.19-.16.38s-.14.31-.17.37c-.03.06-.04.09-.04.1,0,0-.01.09-.05.25-.04.17-.08.26-.14.27-.09.26-.16.47-.2.61-.04.14-.06.19-.05.15,0-.04,0-.05,0-.01,0,.04-.01.06-.03.08-.01.02-.02.02-.01,0,0-.02-.05.15-.17.49-.11.34-.17.51-.17.5,0,0-.05.16-.17.49-.12.33-.21.58-.27.75-.06.17-.09.25-.09.24,0,0,0-.02.01-.03,0-.01-.05.12-.18.39-.13.28-.17.38-.14.32s-.02.03-.16.29c-.14.26-.23.46-.26.6-.03.14-.12.36-.27.66-.15.3-.28.59-.39.87-.11.28-.19.49-.24.63-.06.14-.08.18-.07.13.01-.06-.02.02-.09.23-.07.21-.2.56-.41,1.05-.2.49-.35.86-.45,1.1-.1.25-.19.49-.28.74-.09.25-.12.37-.11.36s.02-.02.02-.03c0-.02,0-.02.01-.03s.01,0,.02-.01,0,0,0,.02c0,.02-.05.11-.13.25-.08.14-.15.28-.22.41-.07.13-.1.2-.09.21,0,0,0,.03,0,.07-.01.04-.02.11-.02.22,0,.11,0,.18-.01.22,0,.04.01-.04.06-.23.05-.19-.21.65-.77,2.5h-.01s-.03.11-.08.27h-.02s0,.04,0,.06c-.01,0-.06.03-.16.1.03.32-.05-.03-.23-1.03-.18-1.01-.32-1.8-.44-2.4-.11-.59-.2-1.02-.27-1.28-.07-.26-.11-.42-.12-.5-.01-.08-.03-.16-.05-.24-.02-.08-.02-.08,0,.02.02.09-.05-.2-.21-.89-.16-.69-.36-1.58-.59-2.68-.01,0-.02,0-.03,0,.02,0,.04,0,.06-.01,0,.02,0,.04.01.06h-.01s-.02.07-.03.13h-.02s0,.04.01.06c.02,0,.09-.04.23-.09,0-.07-.01-.06-.01.02,0,.08.02-.22.07-.88"/>
  <path id="STROKE_244d5760-7503-461c-abd3-1e415f38500b" data-name="STROKE 244d5760-7503-461c-abd3-1e415f38500b" class="cls-1" d="M16.64,67.51c-.21-.23-.31-.32-.29-.26-.31-.25-.43-.34-.35-.26-.33-.17-.45-.24-.37-.2-.37-.24-.49-.32-.36-.23-.16-.06-.24-.09-.23-.09-.01,0-.03,0-.05,0-.15-.39-.2-.51-.14-.36,0-.01,0-.02,0-.03.02,0,.04,0,.06-.01,0-.01,0-.02,0-.03.02,0,.04,0,.06-.01.22.14.28.18.18.12-.1-.05.04.01.44.21s.5.24.31.15c-.19-.1-.08-.06.32.12.4.18.75.35,1.05.53.3.17.47.28.52.33.05.05.06.06.04.05-.02-.02.13.09.45.31.32.23.94.64,1.85,1.25.91.6,1.72,1.13,2.42,1.58.71.45,1.24.77,1.61.96.36.19.57.31.63.36.06.05.22.16.48.33.27.17.62.39,1.06.67.44.28.79.48,1.05.62.26.13.49.27.7.42s.42.29.63.41c.21.12.43.25.65.37.23.13.47.26.73.41.26.15.41.22.43.22.02,0,.06.01.11.02.05.01.11.03.17.06.06.03.24.11.53.26.3.14.44.21.43.19s.08.04.28.17c.19.13.41.26.66.39.25.13.46.22.63.26.17.04.32.1.46.18.14.08.2.11.17.09-.03-.02-.04-.02-.04,0,0,.02.14.08.42.18.28.1.55.22.82.35.27.13.47.23.6.29.13.06.28.11.46.15.18.04.36.1.56.19.2.09.28.13.26.13-.03,0,.09.04.35.14.26.1.4.16.43.17.03.02.1.04.22.06.12.03.23.05.33.07.1.02.16.03.16.03,0,0,.09.06.26.18.17.11.23.15.18.11-.05-.04.01-.03.18.02.17.05.38.11.62.18.24.07.41.12.5.16.09.04.22.11.37.2.15.09.25.15.3.17.05.02.06.02.03.02-.03,0,0,0,.1.02.1.02.3.06.61.14.31.08.76.24,1.35.49.59.25,1.13.49,1.61.71.48.22.88.41,1.22.57.33.16.59.29.77.38.18.09.36.17.55.23.19.06.35.11.46.14.12.03.15.04.08.02-.06-.02-.07-.02,0,0,.06.01.13.02.23.04.1.01.32.06.68.14.36.08.62.13.78.16s.23.04.22.02c.5.03.69.04.59.03.4.06.66.09.8.08.14,0,.31,0,.53.05.21.04.46.07.73.08.28.02.44.03.48.06s.06.03.04.03c-.02,0,.19.02.63.08.44.06.79.11,1.07.17.28.06.42.1.42.14,0,.03.02.05.06.03.03-.01.03-.02,0-.01-.03,0,.05.01.23.03.18.02.34.03.47.04.13.01.2.02.2.03,0,0,0,0,.01,0,0,0,.2,0,.57,0,.37,0,.87.06,1.49.16.62.1,1.04.17,1.28.22.24.05.42.08.54.11.12.03.18.04.18.03,0,0-.01,0-.03,0-.02,0,.07.02.27.06.2.04.57.11,1.11.23.54.11.94.21,1.2.29.25.08.45.14.58.17.13.03.18.04.14.02-.04-.02.05,0,.25.06s.42.12.65.2c.23.08.45.14.68.17.22.04.33.06.32.07-.01,0,0,.01.03.01.03,0,.02,0-.03,0-.05,0,.07.04.35.11.29.08.46.1.53.05.07-.04.39.07.97.33s1.07.51,1.47.76c.4.24.72.42.95.52.23.1.35.16.35.16,0,0,.09.05.25.12.16.08.31.15.44.22.14.07.2.11.18.1s-.04-.01-.06-.02c-.02-.01.05.02.21.11.16.08.65.3,1.47.64.82.34,1.51.62,2.06.84.55.22,1.04.41,1.47.58.43.17.78.31,1.06.43.28.12.49.2.64.26.15.06.21.07.19.05-.02-.02.04,0,.18.05.14.05.27.1.41.15.14.04.24.08.32.11.08.03.19.07.32.13.13.05.31.1.53.13"/>
</svg>