<?xml version="1.0" encoding="UTF-8"?>
<svg id="Layer_1" data-name="Layer 1" xmlns="http://www.w3.org/2000/svg" width="221.92" height="164.81" viewBox="0 0 221.92 164.81">
  <defs>
    <style>
      .cls-1 {
        fill: none;
        stroke: #ff9adf;
        stroke-linecap: round;
        stroke-linejoin: round;
        stroke-width: 8.43px;
      }
    </style>
  </defs>
  <path id="STROKE_3bd4c189-2f1c-4ee2-b5fd-f51a2fb4aba4" data-name="STROKE 3bd4c189-2f1c-4ee2-b5fd-f51a2fb4aba4" class="cls-1" d="M75.64,103.04c.11.1,2.84,1.92,8.19,5.46,5.35,3.54,10.2,6.67,14.57,9.39,4.37,2.72,8.08,4.97,11.13,6.75,3.05,1.78,9.23,5.25,18.52,10.41,9.3,5.16,18.21,9.62,26.73,13.4,8.52,3.78,14.92,6.36,19.19,7.73,4.27,1.38,8.86,2.5,13.77,3.37,4.91.87,9.13,1.2,12.66.97,3.52-.23,6.17-.67,7.93-1.33s3.25-1.46,4.48-2.4c1.22-.94,2.26-2.13,3.1-3.56s1.38-2.66,1.6-3.67c.22-1.02.27-2.79.14-5.31-.13-2.52-.76-5.49-1.91-8.9-1.15-3.41-3.38-7.86-6.69-13.35s-7.37-11.1-12.17-16.81c-4.81-5.71-10.48-11.57-17.03-17.58-6.55-6-14.5-12.41-23.86-19.21-9.36-6.8-19.19-13.35-29.51-19.64-10.31-6.29-20.5-12.08-30.56-17.38-10.06-5.3-18.96-9.75-26.69-13.36-7.73-3.61-15.28-6.63-22.65-9.07-7.37-2.43-13.34-3.89-17.93-4.36-4.59-.47-8.12-.52-10.58-.14-2.47.38-4.61,1.06-6.43,2.05-1.82.99-3.2,2-4.14,3.04-.94,1.04-1.56,1.84-1.87,2.42-.31.57-.63,1.43-.97,2.56-.33,1.13-.47,3.06-.43,5.79.05,2.72.43,5.38,1.14,7.97.71,2.59,2.86,7.12,6.45,13.61,3.59,6.49,8.72,13.83,15.4,22.03,6.68,8.2,13.86,16.05,21.53,23.57,7.68,7.51,15.23,14.21,22.65,20.08s13.63,10.49,18.63,13.84c5,3.35,17,10,36,19.95"/>
</svg>