<?xml version="1.0" encoding="UTF-8"?>
<svg id="Layer_1" data-name="Layer 1" xmlns="http://www.w3.org/2000/svg" width="87.76" height="91.74" viewBox="0 0 87.76 91.74">
  <defs>
    <style>
      .cls-1 {
        fill: none;
        stroke: #ff9adf;
        stroke-linecap: round;
        stroke-linejoin: round;
        stroke-width: 8.43px;
      }
    </style>
  </defs>
  <path id="STROKE_cf5233d2-7a63-4c2f-9c06-6ea483a688e6" data-name="STROKE cf5233d2-7a63-4c2f-9c06-6ea483a688e6" class="cls-1" d="M32.58,87.53c.06-.06.11-.27.18-.63-.07-.23.63-3.33,2.08-9.32,1.46-5.99,3.45-13.22,5.99-21.7,2.54-8.48,4.47-14.99,5.81-19.54,1.34-4.55,2.75-9.25,4.25-14.1,1.49-4.85,2.85-8.65,4.08-11.41,1.23-2.76,2.69-4.96,4.38-6.61.15,0,.48.12,1.01.36.53.24,1.21.64,2.06,1.22.85.57,1.76,1.22,2.72,1.95.96.73,1.89,1.42,2.79,2.07.9.66,2.05,1.46,3.46,2.39,1.41.94,2.57,1.71,3.48,2.31.91.6,1.59,1.05,2.04,1.34.45.29,1.34.96,2.65,2s2.23,1.89,2.76,2.55c.52.67.86,1.25,1.02,1.77.16.51.22.96.19,1.35-.04.39-.1.71-.19.95-.09.24-.17.5-.26.76s-1.37,1.21-3.86,2.84c-2.49,1.64-4.79,2.83-6.89,3.57-2.1.75-5.23,1.72-9.4,2.93s-7.7,2.17-10.61,2.9c-2.91.73-7.02,1.68-12.33,2.85-5.31,1.18-10.24,2.26-14.77,3.24-4.53.98-7.9,1.77-10.09,2.34-2.2.58-3.81,1.04-4.83,1.38-1.02.34-1.73.6-2.11.77-.38.17-.71.35-.98.53-.27.18-.57.38-.9.6-.34.22-1.04.69-2.11,1.42"/>
  <path id="STROKE_78cf28b1-c48c-40dc-b452-2f3954adc726" data-name="STROKE 78cf28b1-c48c-40dc-b452-2f3954adc726" class="cls-1" d="M67.7,79.58c-.17-.25-.81-1.15-1.91-2.69-1.11-1.54-1.82-2.51-2.13-2.92-.31-.41-1.65-2.26-4.02-5.56-2.36-3.3-6.13-8.54-11.29-15.71-5.16-7.17-9.74-13.28-13.72-18.33-3.99-5.05-6.96-8.76-8.91-11.13-1.96-2.37-3.51-4.24-4.65-5.6-1.14-1.36-2.36-2.87-3.65-4.52s-2.7-3.62-4.24-5.92c-1.54-2.3-2.65-4.43-3.32-6.39.03-.19.1-.35.21-.47.03.01,3.92,2.69,11.66,8.04,7.74,5.35,14.31,10.16,19.72,14.44,5.4,4.27,9.55,7.64,12.45,10.12,2.89,2.47,5.43,4.7,7.6,6.67,2.17,1.97,4.54,4.25,7.11,6.82,2.57,2.58,4.6,4.69,6.09,6.35,1.49,1.66,2.61,2.99,3.38,3.98s2.07,2.77,3.92,5.33"/>
</svg>