<?xml version="1.0" encoding="UTF-8"?>
<svg id="Layer_1" data-name="Layer 1" xmlns="http://www.w3.org/2000/svg" width="320.19" height="353.45" viewBox="0 0 320.19 353.45">
  <defs>
    <style>
      .cls-1 {
        fill: none;
        stroke: #ff9adf;
        stroke-linecap: round;
        stroke-linejoin: round;
        stroke-width: 8.43px;
      }
    </style>
  </defs>
  <path id="STROKE_96cd5bd0-ce80-478e-931a-72d0462d9711" data-name="STROKE 96cd5bd0-ce80-478e-931a-72d0462d9711" class="cls-1" d="M-35.12,270.82c1.17.67,12.42,12.71,33.74,36.12,21.32,23.4,37.51,41.74,48.56,55,11.05,13.26,19.02,23,23.91,29.23,4.89,6.22,8.34,10.68,10.34,13.38,2,2.7,3.57,4.78,4.73,6.24,1.15,1.47,5.94,8.32,14.36,20.56,8.43,12.24,14.78,21.67,19.08,28.3,4.29,6.63,9.16,14.63,14.59,24.02,5.43,9.38,9.57,17.07,12.42,23.07,2.84,6,5.08,11.35,6.71,16.05,1.63,4.7,2.96,9.26,3.98,13.67,1.02,4.41,1.6,9.18,1.73,14.31s-.4,9.63-1.6,13.51c-1.19,3.88-2.23,6.6-3.12,8.16-.89,1.57-2.09,3.19-3.6,4.87-1.51,1.68-3.49,3.4-5.94,5.16-2.45,1.76-5.72,3.37-9.82,4.83-4.1,1.46-10.61,2.26-19.54,2.39-8.93.13-17.3-.57-25.11-2.12-7.82-1.55-14.28-3.06-19.39-4.53-5.11-1.47-10.34-3.1-15.67-4.89s-13.82-5.28-25.44-10.49c-11.62-5.21-20.51-9.35-26.67-12.42-6.15-3.07-11.85-6.03-17.08-8.88-5.24-2.85-14.48-8.39-27.73-16.6-13.25-8.22-23.93-15.09-32.04-20.63-8.11-5.54-15.85-11.08-23.21-16.61-7.36-5.53-15.23-11.6-23.59-18.19-8.36-6.6-17.34-14.01-26.93-22.25-9.59-8.24-18-15.77-25.23-22.59-7.23-6.82-14.13-13.5-20.68-20.02-6.56-6.53-12.82-12.97-18.79-19.33-5.97-6.36-10.92-11.73-14.85-16.11-3.93-4.38-7.72-8.71-11.38-12.98-3.66-4.27-6.33-7.44-8.01-9.5-1.68-2.06-3.68-4.54-5.99-7.43-2.31-2.9-11.49-15.61-27.55-38.14"/>
  <path id="STROKE_ba5d67d6-39c2-4421-87e3-7bd9f7f083c7" data-name="STROKE ba5d67d6-39c2-4421-87e3-7bd9f7f083c7" class="cls-1" d="M142.09,239.17l-.97.51c-.41.21-2.15-.44-5.21-1.96-3.06-1.52-5.76-3.25-8.11-5.2-2.35-1.95-4.26-3.59-5.75-4.92-1.49-1.33-5.01-4.86-10.57-10.58-5.56-5.72-11.13-11.72-16.72-17.98-5.59-6.26-10.2-11.6-13.84-16-3.64-4.4-7.58-9.28-11.84-14.63-4.26-5.35-8.11-10.33-11.56-14.93-3.45-4.6-6.08-8.18-7.89-10.76s-3.15-4.53-4.02-5.87c-.87-1.34-1.57-2.4-2.1-3.19-.53-.78-3.24-5.4-8.14-13.84-4.9-8.44-9.11-16.34-12.63-23.68-3.52-7.34-6.65-15.06-9.39-23.15-2.74-8.09-4.69-14.49-5.84-19.21-1.15-4.72-2.02-9.42-2.6-14.11-.58-4.69-.79-8.57-.64-11.64.15-3.07.72-6.06,1.72-8.96,1-2.91,1.89-4.95,2.68-6.13.79-1.18,1.57-2.18,2.35-3,.78-.83,1.91-1.73,3.38-2.72,1.48-.99,3.53-1.84,6.16-2.57s7.28-.57,13.96.46,12.12,2.23,16.32,3.59c4.2,1.36,8.02,2.73,11.48,4.11,3.46,1.38,6.99,2.91,10.6,4.59,3.61,1.69,9.85,5.07,18.73,10.17s16.13,9.58,21.77,13.47c5.63,3.88,10.01,7.03,13.12,9.43,3.12,2.41,6.98,5.53,11.6,9.36,4.62,3.84,9.52,8.11,14.7,12.83,5.18,4.72,9.9,9.15,14.16,13.29,4.26,4.15,7.62,7.43,10.09,9.84,2.47,2.41,6.75,6.81,12.83,13.19,6.08,6.38,12.39,13.38,18.93,20.99,6.54,7.61,12.32,14.67,17.35,21.18,5.03,6.51,8.81,11.45,11.36,14.83,2.55,3.38,4.46,5.92,5.74,7.62,1.28,1.7,3.48,4.72,6.59,9.07,3.11,4.34,6.84,9.79,11.17,16.34s8.7,13.4,13.09,20.56c4.39,7.15,7.77,12.84,10.14,17.07,2.37,4.23,4.12,7.41,5.26,9.55,1.14,2.14,2.43,4.67,3.89,7.58,1.46,2.91,2.52,5.08,3.19,6.51.67,1.43,2.07,4.5,4.19,9.23,2.13,4.72,4.39,10.22,6.79,16.47,2.4,6.26,4.31,12.27,5.75,18.05,1.44,5.78,2.26,10.39,2.46,13.83.21,3.45.19,6.06-.06,7.85-.25,1.79-.77,3.83-1.55,6.12-.78,2.29-1.94,4.45-3.47,6.46-1.53,2.01-2.93,3.54-4.22,4.6-1.29,1.06-3.46,2.24-6.52,3.56-3.06,1.31-6.87,2.18-11.43,2.61-4.56.43-9.8.11-15.72-.97-5.92-1.08-11.31-2.47-16.16-4.17-4.85-1.7-9.62-3.63-14.32-5.8s-10.24-5.13-16.62-8.88c-6.38-3.75-12.63-7.8-18.74-12.14-6.11-4.34-14.04-10.37-23.79-18.08-9.75-7.72-20.6-17.25-32.53-28.6-11.94-11.36-20.91-20.19-26.92-26.51s-10.8-11.45-14.38-15.4c-3.58-3.95-6.93-7.67-10.07-11.16-3.14-3.49-7.22-8.29-12.23-14.42-5.01-6.12-9.78-12.16-14.29-18.12-4.51-5.96-14.38-21.15-29.62-45.58"/>
</svg>