<?xml version="1.0" encoding="UTF-8"?>
<svg id="Layer_1" data-name="Layer 1" xmlns="http://www.w3.org/2000/svg" width="231.8" height="199.13" viewBox="0 0 231.8 199.13">
  <defs>
    <style>
      .cls-1 {
        fill: none;
        stroke: #ff9adf;
        stroke-linecap: round;
        stroke-linejoin: round;
        stroke-width: 8.43px;
      }
    </style>
  </defs>
  <path id="STROKE_4fea49fc-bdaa-462b-b0f9-17aacd9c5425" data-name="STROKE 4fea49fc-bdaa-462b-b0f9-17aacd9c5425" class="cls-1" d="M227.58,192.16l-.39-.9c-.14-.37-1.35-2.5-3.65-6.38-2.3-3.88-4.43-7.26-6.39-10.14-1.96-2.88-3.41-4.94-4.32-6.17-.92-1.24-2.28-3.12-4.07-5.66-1.8-2.54-6.5-8.86-14.1-18.95-7.6-10.1-13.65-17.94-18.15-23.51-4.5-5.58-7.75-9.56-9.75-11.96-2.01-2.4-4.5-5.33-7.48-8.81-2.98-3.47-5.74-6.66-8.26-9.56-2.52-2.9-4.3-4.97-5.34-6.21s-4.21-4.8-9.52-10.69c-5.3-5.89-9.72-10.6-13.26-14.14-3.54-3.54-5.98-5.96-7.33-7.27-1.35-1.31-3.78-3.52-7.27-6.64-3.49-3.11-6.2-5.47-8.14-7.09-1.93-1.61-3.53-2.92-4.78-3.92-1.25-1-3.72-2.9-7.39-5.68s-7.72-5.57-12.14-8.38c-4.42-2.8-7.95-4.87-10.59-6.21-2.64-1.34-5.14-2.48-7.51-3.42-2.37-.94-4.8-1.8-7.29-2.58-2.49-.78-5.19-1.43-8.11-1.95-2.91-.52-5.61-.82-8.08-.89-2.47-.07-4.8.02-6.97.28-2.18.26-4.34.75-6.5,1.49-2.16.74-4.31,1.88-6.45,3.44-2.14,1.55-4,3.72-5.59,6.49-1.59,2.77-2.77,6.01-3.55,9.7-.78,3.69-1.1,7.54-.94,11.55.15,4,.41,7.12.77,9.34.37,2.22.64,3.74.83,4.54.19.81.71,2.64,1.56,5.49.85,2.85,2.64,7.3,5.35,13.34,2.72,6.04,6.13,12.48,10.24,19.33,4.11,6.85,7.31,11.91,9.61,15.17,2.3,3.26,4.68,6.42,7.15,9.47,2.47,3.05,4.73,5.73,6.78,8.04,2.05,2.31,3.97,4.42,5.76,6.3,1.79,1.89,5.35,5.35,10.67,10.39,5.32,5.03,11.35,10.08,18.08,15.15,6.73,5.07,12.35,9.02,16.85,11.85s8.32,5.13,11.46,6.9c3.14,1.77,6.08,3.35,8.81,4.74,2.73,1.39,6.67,3.28,11.83,5.66,5.16,2.38,10,4.35,14.53,5.92,4.53,1.57,7.98,2.65,10.37,3.24,2.38.6,4.77,1.09,7.15,1.47,2.38.38,4.73.57,7.06.56,2.32,0,4.07-.12,5.24-.33,1.17-.21,2.12-.43,2.86-.66.73-.23,1.45-.5,2.15-.83.7-.32,1.66-.9,2.87-1.72,1.21-.82,2.37-2.14,3.48-3.94,1.11-1.8,1.88-3.94,2.3-6.42.43-2.48.63-4.54.6-6.2-.03-1.65-.24-3.72-.62-6.2-.38-2.48-1.19-5.73-2.44-9.74-1.24-4.02-2.54-7.6-3.9-10.75s-2.7-6.04-4.01-8.67c-1.31-2.63-3.93-7.13-7.86-13.5-3.93-6.37-7.03-11.22-9.32-14.56-2.29-3.34-3.9-5.67-4.82-7-.93-1.32-3.58-4.79-7.94-10.39-4.36-5.6-8.06-10.16-11.09-13.66-3.03-3.5-5.47-6.26-7.32-8.28-1.85-2.02-3.41-3.71-4.66-5.06-1.25-1.35-2.82-3.02-4.7-5.01-1.88-1.99-6.35-6.28-13.41-12.88-7.06-6.6-13.28-12.26-18.66-16.97-5.38-4.71-8.49-7.43-9.32-8.16-.83-.72-8.59-7.31-23.31-19.77"/>
</svg>