<?xml version="1.0" encoding="UTF-8"?>
<svg id="Layer_1" data-name="Layer 1" xmlns="http://www.w3.org/2000/svg" width="162.67" height="110.6" viewBox="0 0 162.67 110.6">
  <defs>
    <style>
      .cls-1 {
        fill: none;
        stroke: #ff9adf;
        stroke-linecap: round;
        stroke-linejoin: round;
        stroke-width: 8.43px;
      }
    </style>
  </defs>
  <path id="STROKE_189e1a73-ea77-4988-8922-86f057c0be58" data-name="STROKE 189e1a73-ea77-4988-8922-86f057c0be58" class="cls-1" d="M102.47,106.39c-.19-.02-.52-.05-.98-.09-.46-.04-.81-.09-1.05-.14-.24-.05-1.36-.36-3.37-.92-2.01-.56-5.26-1.86-9.74-3.91-4.49-2.05-7.93-3.75-10.34-5.09-2.4-1.35-4.48-2.52-6.24-3.53-1.76-1.01-5.67-3.48-11.74-7.4-6.07-3.92-11.71-7.86-16.93-11.81-5.22-3.95-9.21-7.1-11.98-9.44-2.76-2.34-5.77-5.18-9.02-8.53-3.25-3.35-6.03-6.63-8.35-9.82-2.31-3.2-3.93-5.65-4.86-7.35-.93-1.7-1.72-3.54-2.39-5.52-.66-1.98-1.06-3.94-1.2-5.86s-.08-3.61.17-5.04c.25-1.43.64-2.78,1.15-4.06.51-1.28,1.48-2.75,2.91-4.41,1.43-1.66,2.98-3.02,4.64-4.09,1.67-1.06,3.76-2,6.28-2.81,2.52-.81,5.58-1.44,9.18-1.91,3.6-.47,8.21-.55,13.83-.25,5.62.3,9.96.66,13.02,1.1,3.06.43,7.25,1.27,12.59,2.52,5.34,1.24,10.66,2.73,15.96,4.46,5.31,1.73,9.64,3.23,12.99,4.52,3.35,1.29,6.71,2.65,10.08,4.09,3.37,1.44,7.85,3.5,13.46,6.19,5.6,2.68,10.45,5.21,14.56,7.59,4.11,2.38,7.71,4.75,10.81,7.13,3.1,2.37,5.5,4.56,7.19,6.54,1.7,1.99,2.9,3.64,3.61,4.96.71,1.32,1.21,2.77,1.52,4.36.3,1.59.31,3.19.03,4.81-.29,1.62-.94,3.24-1.95,4.84-1.02,1.61-2.3,3.03-3.84,4.27-1.54,1.24-2.96,2.16-4.26,2.75-1.3.59-2.56,1.06-3.78,1.42-1.22.36-2.8.69-4.74,1.01-1.94.32-4.12.49-6.54.53-2.42.03-5.7-.2-9.82-.71-4.13-.51-8.04-1.21-11.74-2.12-3.7-.91-6.51-1.66-8.42-2.25-1.91-.59-3.45-1.08-4.61-1.47-1.16-.38-3.77-1.4-7.83-3.06-4.06-1.66-8.24-3.64-12.53-5.94-4.3-2.31-8.38-4.75-12.23-7.33-3.86-2.58-7.96-5.86-12.29-9.83-4.34-3.97-10.14-11.12-17.41-21.46"/>
</svg>