<?xml version="1.0" encoding="UTF-8"?>
<svg id="Layer_1" data-name="Layer 1" xmlns="http://www.w3.org/2000/svg" width="477.44" height="480.36" viewBox="0 0 477.44 480.36">
  <defs>
    <style>
      .cls-1 {
        fill: none;
        stroke: #ff9adf;
        stroke-linecap: round;
        stroke-linejoin: round;
        stroke-width: 8.43px;
      }
    </style>
  </defs>
  <path id="STROKE_a6759bf7-7ff0-4870-b692-6878a949c876" data-name="STROKE a6759bf7-7ff0-4870-b692-6878a949c876" class="cls-1" d="M325.17,392.48c-.45.07-1.49.2-3.1.39-1.61.19-9.92-4.85-24.93-15.13-15.01-10.28-26.84-19.16-35.49-26.65-8.65-7.48-15.25-13.3-19.78-17.46-4.53-4.15-15.87-15.4-34.01-33.76s-32.28-32.94-42.42-43.77c-10.13-10.83-17.49-18.74-22.06-23.74s-7.89-8.65-9.97-10.96c-2.08-2.31-7.14-8-15.2-17.06-8.06-9.06-18.42-21.41-31.09-37.05-12.67-15.64-24.76-31.73-36.28-48.27-11.52-16.54-20.32-30.29-26.39-41.23-6.08-10.95-10.35-19.18-12.82-24.71-2.47-5.52-4.36-11.21-5.68-17.05-1.32-5.84-1.89-10.42-1.71-13.72.17-3.31.57-5.92,1.2-7.85s1.8-3.77,3.53-5.53c1.73-1.76,3.43-2.95,5.09-3.57,1.66-.62,3.7-1,6.1-1.16,2.4-.15,7.3.85,14.69,3.03,7.39,2.17,13.75,4.49,19.06,6.97,5.31,2.48,12.98,6.56,23,12.25,10.02,5.69,21.85,13.5,35.5,23.42,13.64,9.92,24.12,17.8,31.44,23.62,7.32,5.82,12.96,10.29,16.92,13.4,3.96,3.11,10.65,8.45,20.07,16.04,9.41,7.58,16.93,13.77,22.56,18.56s10.28,8.79,13.97,12.01c3.69,3.22,9.41,8.36,17.16,15.42,7.75,7.06,14.82,13.64,21.22,19.74,6.4,6.09,11.47,10.94,15.21,14.54,3.74,3.6,13.19,13.44,28.36,29.5,15.16,16.07,26.61,28.41,34.36,37.04,7.74,8.63,15.91,18.07,24.52,28.32,8.6,10.25,15.54,18.66,20.82,25.21,5.28,6.56,9.31,11.55,12.09,14.98,2.78,3.43,8.34,10.41,16.68,20.96,8.34,10.55,17.7,23.95,28.09,40.21,10.38,16.26,17.93,28.68,22.63,37.27,4.7,8.59,8.03,15.21,9.98,19.88,1.95,4.66,3.27,9.17,3.98,13.52.71,4.35.93,7.7.67,10.06-.27,2.35-.95,4.62-2.04,6.79-1.09,2.17-2.62,4.01-4.58,5.49-1.96,1.49-4.37,2.58-7.24,3.28-2.87.7-7.91.49-15.12-.62-7.22-1.11-13.52-2.7-18.92-4.76-5.4-2.06-10.98-4.44-16.74-7.15-5.76-2.71-16.38-8.95-31.87-18.73-15.48-9.78-29.95-19.94-43.39-30.48-13.44-10.54-23.92-19.04-31.44-25.51-7.52-6.47-15.19-13.15-23.01-20.05-7.82-6.9-15.38-13.76-22.66-20.56s-13.07-12.27-17.35-16.38c-4.28-4.11-11.71-11.92-22.28-23.44-10.57-11.52-19.07-21.4-25.5-29.65-6.43-8.25-12.5-16.74-18.23-25.46-5.73-8.72-10.27-16.63-13.64-23.73-3.37-7.1-5.55-13.05-6.56-17.85-1-4.8-1.34-8.58-1.03-11.32.32-2.74.78-4.74,1.4-6.01.62-1.27,1.24-2.27,1.86-3.01.62-.74,1.83-1.66,3.61-2.78,1.78-1.12,5.03-1.76,9.76-1.92,4.73-.16,8.73.1,12.01.78,3.28.68,7.63,2.01,13.06,4.01,5.43,1.99,10.72,4.18,15.86,6.57,5.15,2.39,14.77,7.67,28.86,15.86,14.09,8.19,25.88,15.44,35.36,21.77s22.99,16.17,40.52,29.53c17.53,13.36,31.53,24.3,42.01,32.8,10.48,8.5,23.54,19.12,39.2,31.87"/>
  <path id="STROKE_96cd5bd0-ce80-478e-931a-72d0462d9711" data-name="STROKE 96cd5bd0-ce80-478e-931a-72d0462d9711" class="cls-1" d="M202.17-293.73c1.17.67,12.42,12.71,33.74,36.12,21.32,23.4,37.51,41.74,48.56,55,11.05,13.26,19.02,23,23.91,29.23,4.89,6.22,8.34,10.68,10.34,13.38,2,2.7,3.57,4.78,4.73,6.24,1.15,1.47,5.94,8.32,14.36,20.56,8.43,12.24,14.78,21.67,19.08,28.3,4.29,6.63,9.16,14.63,14.59,24.02,5.43,9.38,9.57,17.07,12.42,23.07,2.84,6,5.08,11.35,6.71,16.05,1.63,4.7,2.96,9.26,3.98,13.67,1.02,4.41,1.6,9.18,1.73,14.31s-.4,9.63-1.6,13.51c-1.19,3.88-2.23,6.6-3.12,8.16-.89,1.57-2.09,3.19-3.6,4.87-1.51,1.68-3.49,3.4-5.94,5.16-2.45,1.76-5.72,3.37-9.82,4.83-4.1,1.46-10.61,2.26-19.54,2.39-8.93.13-17.3-.57-25.11-2.12-7.82-1.55-14.28-3.06-19.39-4.53-5.11-1.47-10.34-3.1-15.67-4.89s-13.82-5.28-25.44-10.49c-11.62-5.21-20.51-9.35-26.67-12.42-6.15-3.07-11.85-6.03-17.08-8.88-5.24-2.85-14.48-8.39-27.73-16.6-13.25-8.22-23.93-15.09-32.04-20.63-8.11-5.54-15.85-11.08-23.21-16.61-7.36-5.53-15.23-11.6-23.59-18.19-8.36-6.6-17.34-14.01-26.93-22.25-9.59-8.24-18-15.77-25.23-22.59-7.23-6.82-14.13-13.5-20.68-20.02-6.56-6.53-12.82-12.97-18.79-19.33-5.97-6.36-10.92-11.73-14.85-16.11-3.93-4.38-7.72-8.71-11.38-12.98-3.66-4.27-6.33-7.44-8.01-9.5-1.68-2.06-3.68-4.54-5.99-7.43-2.31-2.9-11.49-15.61-27.55-38.14"/>
</svg>