<?xml version="1.0" encoding="UTF-8"?>
<svg id="Layer_1" data-name="Layer 1" xmlns="http://www.w3.org/2000/svg" width="151.93" height="131.85" viewBox="0 0 151.93 131.85">
  <defs>
    <style>
      .cls-1 {
        fill: none;
        stroke: #ff9adf;
        stroke-linecap: round;
        stroke-linejoin: round;
        stroke-width: 8.43px;
      }
    </style>
  </defs>
  <path id="STROKE_71e761be-2754-4892-9ad4-3487ca14281b" data-name="STROKE 71e761be-2754-4892-9ad4-3487ca14281b" class="cls-1" d="M147.71,49.42c-.57.09-1.18.16-1.84.23-.66.06-1.28.12-1.87.17-.59.05-1.37.14-2.36.27-.99.13-1.63.22-1.94.28-.31.06-.55.1-.73.13-.18.02-1.02.21-2.52.56-1.5.35-3.04.76-4.61,1.24-1.57.48-2.88.9-3.92,1.26-1.04.37-2.38.86-4.03,1.47-1.65.61-2.89,1.07-3.7,1.38-.81.3-1.86.7-3.14,1.18s-2.8,1.05-4.57,1.71c-1.76.65-3.17,1.17-4.22,1.55s-1.89.7-2.53.94c-.64.25-1.43.56-2.36.95s-1.62.67-2.05.85c-.43.18-.99.42-1.7.73-.7.31-1.79.79-3.27,1.44-1.48.65-2.77,1.25-3.86,1.78-1.09.53-1.96.97-2.59,1.3-.63.33-1.23.65-1.79.94-.56.29-1.79.98-3.71,2.07-1.91,1.08-3.34,1.92-4.29,2.51-.94.59-1.81,1.16-2.61,1.7s-1.55,1.07-2.26,1.6c-.71.52-1.17.86-1.39,1.02-.22.16-.75.57-1.59,1.24-.85.67-1.93,1.54-3.25,2.6-1.32,1.06-2.49,2.03-3.51,2.91-1.02.87-1.62,1.39-1.8,1.56-.18.17-.33.32-.46.45-.12.13-.4.42-.84.87-.44.45-.81.85-1.12,1.19-.31.35-.56.64-.76.88-.19.24-.52.66-.99,1.24-.47.58-.78.99-.95,1.23-.17.24-.4.56-.68.95-.28.39-.73,1.02-1.36,1.88-.62.86-1.14,1.58-1.56,2.15-.42.57-.82,1.12-1.19,1.64-.38.52-.69.97-.95,1.33-.26.37-.61.86-1.04,1.48-.43.62-.83,1.17-1.2,1.66-.37.49-.66.87-.87,1.14s-.45.56-.7.86c-.25.31-.43.51-.51.6-.09.1-.15.13-.19.1-.04-.03-.1-.09-.18-.18-.07-.09-.15-.19-.24-.29-.02-.13-.02-.29,0-.46.02-.17.08-.37.16-.6.09-.23.16-.4.21-.51.05-.11.19-.38.4-.8.21-.42.49-.95.84-1.57.35-.63.65-1.18.92-1.65.26-.47.49-.87.69-1.21.2-.34.53-.91.99-1.73.46-.81.97-1.72,1.53-2.73.56-1.01,1.04-1.88,1.46-2.62.41-.74,1.01-1.82,1.8-3.23.79-1.41,1.23-2.21,1.34-2.4.1-.19.31-.53.6-1.04.3-.5.61-1.01.92-1.54.32-.53.58-.97.8-1.33.22-.36.42-.69.61-1,.19-.31.38-.61.56-.89.18-.28.33-.53.46-.74.13-.21.27-.44.42-.67.15-.24.35-.55.58-.93.24-.39.61-.97,1.1-1.76.5-.79,1.04-1.67,1.63-2.66.59-.99,1.1-1.87,1.53-2.66.43-.79.92-1.72,1.46-2.78.54-1.07.91-1.82,1.11-2.26.2-.44.46-1.05.77-1.81.31-.77.53-1.3.64-1.59.12-.29.44-1.25.96-2.88.53-1.63.88-2.73,1.06-3.3s.44-1.48.79-2.73c.35-1.25.61-2.2.79-2.86.18-.66.29-1.09.35-1.28.06-.19.15-.54.28-1.06.13-.52.28-1.07.44-1.67.16-.6.55-1.92,1.17-3.98.61-2.06,1.15-3.82,1.6-5.31.46-1.48.79-2.57.99-3.26s.44-1.49.72-2.42c.28-.92.48-1.61.61-2.06.13-.45.34-1.23.64-2.33.3-1.11.47-1.75.51-1.93.04-.18.28-1.02.71-2.52.43-1.5.77-2.7,1.01-3.6.24-.9.47-1.78.68-2.64.22-.86.4-1.59.56-2.2.16-.61.3-1.21.44-1.81.14-.59.29-1.22.44-1.88.16-.66.31-1.33.46-2.01.15-.68.29-1.37.41-2.07.12-.7.19-1.27.19-1.71,0-.45,0-.72-.03-.83-.02-.1-.05-.19-.07-.25-.03-.06-.07-.12-.13-.18-.06-.06-.14-.09-.22-.07-.08.01-.28.16-.59.44-.31.28-.52.5-.64.67-.12.17-.19.26-.21.29-.02.03-.16.27-.41.72-.25.45-.53,1.08-.84,1.89-.31.81-.51,1.32-.59,1.54-.08.22-.26.8-.53,1.74-.28.94-.48,1.71-.62,2.3-.14.59-.32,1.35-.52,2.28-.21.93-.42,1.89-.62,2.88-.21.99-.39,1.85-.55,2.58-.16.73-.26,1.2-.32,1.41-.05.21-.28,1.18-.67,2.91-.4,1.73-.62,2.72-.68,2.95-.06.24-.22,1.13-.47,2.67-.25,1.54-.44,2.83-.56,3.87-.12,1.04-.2,1.79-.24,2.23s-.1,1.2-.18,2.26c-.08,1.06-.13,2.02-.17,2.87-.04.85-.06,1.7-.08,2.54-.02.85,0,2.13.02,3.84.03,1.72.12,4.26.26,7.62.14,3.36.26,5.88.36,7.54.1,1.66.17,2.87.23,3.62.06.75.13,1.58.2,2.49.07.91.2,2.4.4,4.46.19,2.06.36,3.64.49,4.75.13,1.11.25,2.09.35,2.95.1.86.2,1.78.31,2.76.11.98.18,1.58.21,1.81.03.23.1.78.21,1.66.11.88.19,1.47.23,1.78.04.31.12.82.24,1.52.12.71.3,1.6.54,2.68.24,1.08.45,1.96.63,2.63.18.67.51,1.62.98,2.85.47,1.23.84,2.11,1.1,2.64s.54,1.09.85,1.69c.31.59.85,1.39,1.61,2.41.76,1.02,1.35,1.74,1.76,2.18.41.44.8.81,1.15,1.12.35.31.83.69,1.45,1.14.61.45,1.19.84,1.74,1.17.54.33.85.51.91.56.06.05.89.39,2.48,1.03,1.59.64,3.05,1.14,4.38,1.5,1.33.36,2.17.58,2.52.67.35.08.96.22,1.82.4.86.18,1.71.35,2.54.51.83.16,2,.36,3.49.6,1.5.24,2.77.45,3.83.61,1.05.16,2.15.31,3.29.43,1.14.12,2.24.21,3.3.25,1.06.05,2.25.06,3.57.04,1.32-.02,2.55-.09,3.69-.23,1.14-.13,2.04-.28,2.7-.44.66-.16,1.23-.34,1.71-.53.48-.19.83-.35,1.05-.47.22-.12.43-.25.63-.38.2-.14.37-.27.49-.38.13-.12.28-.26.45-.43s.35-.41.54-.74c.19-.33.32-.71.41-1.14.08-.43.09-.84.03-1.23-.06-.39-.16-.76-.3-1.1-.14-.35-.25-.59-.32-.74s-.41-.59-1-1.32c-.59-.74-1.21-1.4-1.87-1.98-.65-.58-1.3-1.11-1.94-1.6s-1.47-1.07-2.51-1.77c-1.03-.7-1.81-1.21-2.33-1.54-.52-.33-1.36-.86-2.54-1.59-1.18-.73-2.46-1.5-3.85-2.34s-2.79-1.67-4.21-2.51c-1.42-.84-2.54-1.51-3.38-1.99-.84-.48-1.92-1.1-3.25-1.87s-2.59-1.47-3.77-2.13c-1.18-.66-2.4-1.32-3.66-1.98-1.26-.67-3.29-1.6-6.1-2.79-2.8-1.19-4.91-2.05-6.34-2.58-1.42-.53-2.54-.94-3.36-1.22-.82-.29-2.67-.93-5.54-1.94-2.88-1.01-5.09-1.81-6.65-2.41-1.56-.59-3.07-1.19-4.53-1.79-1.46-.6-2.82-1.18-4.08-1.75-1.26-.57-2.1-.94-2.5-1.13-.41-.19-1.37-.7-2.9-1.51-1.52-.82-2.71-1.49-3.55-2.02-.84-.53-1.45-.92-1.82-1.17s-1.11-.77-2.21-1.56c-1.11-.79-1.89-1.37-2.36-1.74-.46-.37-1.03-.87-1.69-1.49s-1.12-1.09-1.37-1.41c-.25-.31-.44-.58-.56-.8-.12-.22-.18-.35-.19-.36,0-.02,0-.27,0-.76l.08-.12c.13-.12.34-.25.64-.36.3-.12.55-.19.76-.22.21-.03.36-.05.44-.06.08-.02.42-.03,1.01-.06.59-.02,1.08-.02,1.47,0,.39.02.72.04.98.07.26.03.66.07,1.19.12.54.06.92.1,1.14.14.22.04.9.13,2.02.29,1.12.16,2.04.29,2.74.39.7.1,1.25.18,1.64.25.39.07.9.15,1.52.24.62.09,1.14.17,1.54.24s.79.14,1.15.21c.36.07.64.12.85.15.21.03.69.12,1.43.27.75.15,2.03.52,3.86,1.09,1.83.58,3.33,1.09,4.51,1.54,1.18.45,2.1.8,2.75,1.06.65.25,1.45.59,2.39,1,.94.41,2.88,1.33,5.8,2.75s5.01,2.47,6.26,3.13c1.25.66,2.48,1.3,3.67,1.91,1.2.61,2.16,1.1,2.88,1.45.72.35,1.54.75,2.46,1.18.92.43,1.77.82,2.54,1.16.78.34,1.44.63,1.99.86.55.23,1.39.55,2.5.95,1.12.4,1.97.68,2.55.84.58.16,1.11.28,1.6.37.49.09.91.16,1.27.21.36.05.91.08,1.65.1.75.02,1.42-.04,2.03-.17.61-.13,1.04-.25,1.29-.36.25-.11.52-.27.82-.48.3-.21.5-.37.6-.47.1-.1.22-.28.36-.52.14-.25.24-.46.3-.65.06-.19.09-.31.09-.35,0-.04.01-.13.04-.26.02-.13.01-.41-.03-.84s-.2-.95-.47-1.56c-.27-.61-1.01-1.53-2.21-2.75-1.2-1.22-2.22-2.14-3.05-2.75-.83-.61-1.7-1.22-2.61-1.83-.91-.61-1.82-1.2-2.74-1.77-.92-.57-1.63-1-2.14-1.29-.5-.29-1.04-.59-1.61-.9-.57-.31-1.75-.89-3.54-1.73-1.79-.84-2.9-1.34-3.34-1.52-.43-.18-1.11-.44-2.02-.79-.91-.35-2.23-.81-3.96-1.35-1.73-.55-3.39-1.03-5-1.46-1.61-.43-2.82-.73-3.62-.9-.81-.18-1.53-.32-2.16-.42s-1.14-.19-1.52-.25c-.38-.06-.69-.1-.92-.13-.23-.03-.93-.06-2.09-.08-1.16-.02-1.92-.01-2.27.04-.35.05-.7.12-1.05.22-.35.1-.67.23-.95.38-.28.15-.53.41-.75.79-.22.38-.38.69-.49.94s-.24.55-.39.89c-.15.35-.23.53-.24.55,0,.02-.09.23-.24.63-.16.4-.33.81-.51,1.23-.18.42-.37.84-.57,1.29-.2.44-.52,1.16-.95,2.17-.44,1-.8,1.88-1.09,2.63-.29.75-.61,1.74-.97,2.98s-.61,2.23-.77,2.97c-.16.74-.3,1.38-.42,1.91-.11.53-.24,1.14-.37,1.83-.13.69-.24,1.27-.33,1.74-.08.48-.18,1.04-.3,1.69-.12.65-.24,1.3-.36,1.95-.12.65-.25,1.3-.39,1.95-.14.65-.42,1.79-.83,3.43-.41,1.64-.63,2.48-.64,2.51-.01.03-.17.61-.46,1.75-.29,1.13-.52,2.02-.67,2.66s-.3,1.27-.43,1.9c-.14.63-.29,1.53-.47,2.72-.17,1.18-.27,2.08-.3,2.69-.03.61-.03,1.1,0,1.46.02.37.05.72.08,1.04.03.33.17.95.42,1.88.25.92.51,1.64.79,2.16.27.51.51.91.71,1.18.2.27.41.52.62.73.22.22.35.35.41.41.06.06.33.24.82.56.48.31.9.53,1.23.66.34.13.64.22.91.28.27.06.86.1,1.78.11s1.78-.1,2.58-.36c.8-.25,1.46-.52,1.97-.81.51-.29.92-.54,1.22-.77.3-.23.58-.45.83-.66.25-.21.73-.72,1.43-1.53.7-.81,1.17-1.37,1.39-1.69.22-.32.4-.59.52-.79.13-.21.24-.39.35-.56.1-.16.67-1.38,1.69-3.63,1.02-2.26,1.83-4.23,2.4-5.91.58-1.69,1.01-2.99,1.3-3.91.29-.92.54-1.68.74-2.28.2-.6.74-2.18,1.62-4.75.88-2.57,1.7-5.09,2.47-7.56.77-2.46,1.34-4.33,1.71-5.61.36-1.28.8-3,1.3-5.18.5-2.18.94-4.21,1.3-6.11.37-1.9.67-3.7.9-5.41.24-1.71.39-2.99.45-3.84.06-.85.1-2.21.1-4.09,0-1.87-.06-3.24-.18-4.1-.12-.86-.28-1.56-.46-2.12-.18-.55-.4-1.03-.64-1.42-.24-.39-.44-.66-.57-.81-.14-.15-.35-.31-.64-.49-.29-.18-.78-.28-1.49-.31-.71-.04-1.39.04-2.06.24-.67.19-1.36.48-2.07.85-.72.37-1.48.84-2.29,1.41-.81.57-1.97,1.6-3.49,3.09-1.52,1.49-2.63,2.64-3.34,3.46-.71.82-1.26,1.46-1.64,1.94-.39.47-.85,1.08-1.41,1.84-.55.75-1.18,1.68-1.88,2.79-.7,1.11-1.22,1.97-1.57,2.6-.35.62-.76,1.43-1.24,2.41-.48.98-.9,1.86-1.26,2.63s-.76,1.72-1.23,2.84c-.47,1.12-1.06,2.7-1.78,4.72-.72,2.02-1.26,3.7-1.63,5.04-.37,1.34-.67,2.76-.92,4.27-.24,1.5-.38,2.6-.43,3.29-.04.69-.03,1.77.03,3.25.07,1.47.32,3.11.78,4.9.45,1.79.87,3.14,1.24,4.03.38.89.66,1.52.84,1.89.19.37.62,1.1,1.31,2.2.69,1.1,1.79,2.49,3.3,4.18,1.51,1.69,2.71,2.93,3.61,3.74.9.81,1.55,1.37,1.95,1.69.4.32.8.63,1.19.93.39.3,1.08.75,2.06,1.35.99.6,1.9,1.07,2.74,1.43.84.35,1.64.61,2.38.79.75.17,1.58.28,2.5.32.92.04,1.78,0,2.59-.08.81-.09,1.84-.34,3.09-.75,1.25-.41,2.2-.78,2.85-1.1.65-.32,1.5-.87,2.54-1.64,1.04-.77,1.89-1.48,2.54-2.12.65-.64,1.27-1.29,1.86-1.94.59-.65,1.01-1.12,1.26-1.41.25-.29.82-1.03,1.71-2.23.89-1.2,1.77-2.45,2.65-3.75.87-1.3,1.5-2.22,1.86-2.77.37-.55.91-1.39,1.62-2.51.71-1.13,1.23-1.96,1.55-2.51.32-.55.59-1.02.82-1.43.23-.4.51-.94.86-1.62s.75-1.52,1.19-2.52c.45-1,.79-1.83,1.04-2.47.25-.65.47-1.28.67-1.89.2-.62.55-1.93,1.05-3.95.5-2.01.84-3.87,1.02-5.58.18-1.71.23-3.35.15-4.95-.08-1.59-.33-3.25-.75-4.96-.42-1.72-.82-3.04-1.2-3.96-.38-.92-.83-1.83-1.35-2.71-.52-.89-1.03-1.67-1.53-2.33-.5-.67-1.28-1.5-2.34-2.51-1.06-1.01-2.02-1.8-2.89-2.38-.86-.57-1.7-1.04-2.51-1.4-.81-.36-1.51-.63-2.12-.82s-1.39-.33-2.34-.44-2.02-.11-3.19,0c-1.18.1-2.29.32-3.34.64-1.05.32-2.32.88-3.8,1.68-1.48.8-2.72,1.56-3.71,2.3-.99.74-1.73,1.34-2.24,1.81-.51.47-1.08,1.04-1.71,1.72-.63.67-1.29,1.42-1.97,2.26-.68.83-1.32,1.71-1.94,2.63-.62.92-1.35,2.15-2.18,3.67-.83,1.53-1.49,2.9-1.99,4.12-.5,1.22-.95,2.63-1.37,4.22-.41,1.6-.7,3.15-.85,4.68-.15,1.52-.19,3.01-.11,4.47.08,1.46.33,3.03.74,4.71.41,1.68.94,3.16,1.57,4.44.63,1.28,1.2,2.27,1.69,2.95.49.68,1.22,1.49,2.19,2.42.97.93,1.78,1.62,2.44,2.08.66.45,1.22.82,1.68,1.09.46.28,1.34.69,2.63,1.25,1.29.56,2.35.96,3.17,1.21.82.25,1.43.43,1.85.53.42.1,1.28.26,2.58.47s3.1.39,5.37.53c2.27.14,4.21.24,5.83.3,1.61.06,2.82.09,3.62.1.8,0,1.39,0,1.77,0,.38-.01.74-.02,1.09-.03.35-.01,1.35-.1,3.02-.25s3.11-.42,4.35-.78,2.12-.7,2.65-1.01c.53-.31.93-.57,1.19-.77.26-.21.57-.56.91-1.06.34-.5.58-.95.72-1.36.14-.41.23-.86.29-1.37.06-.51,0-1.25-.19-2.22s-.51-2-.98-3.07c-.47-1.07-1.72-2.9-3.75-5.49-2.02-2.6-3.69-4.65-5.01-6.15-1.32-1.5-2.98-3.32-5-5.45-2.02-2.13-3.61-3.75-4.77-4.87-1.16-1.12-2.51-2.36-4.04-3.72-1.53-1.36-2.81-2.49-3.84-3.39-1.03-.9-3.22-2.64-6.58-5.21-3.36-2.57-5.94-4.51-7.75-5.82-1.81-1.3-3.93-2.75-6.35-4.35-2.42-1.6-4.53-2.95-6.33-4.07s-4.1-2.53-6.9-4.23c-2.81-1.7-4.92-2.98-6.33-3.84-1.41-.85-2.53-1.52-3.34-2.01s-1.47-.87-1.96-1.16c-.49-.29-2.42-1.41-5.8-3.35-3.38-1.95-6.07-3.5-8.08-4.66-2.01-1.16-3.72-2.16-5.14-2.99-1.42-.84-2.91-1.68-4.48-2.53-1.57-.85-3.17-1.7-4.81-2.55-1.64-.85-3.8-1.87-6.49-3.05-2.69-1.18-4.76-2.02-6.22-2.52-1.46-.49-2.53-.8-3.22-.93-.69-.12-1.28-.17-1.8-.14-.51.03-.88.1-1.1.21-.22.1-.37.2-.44.28-.07.09-.12.28-.15.59-.02.31.1.82.38,1.53.28.71.76,1.54,1.44,2.49.68.95,1.3,1.75,1.87,2.39.56.65.97,1.11,1.23,1.39.26.28.6.65,1.04,1.13.44.48,1.52,1.59,3.26,3.34,1.73,1.75,3.3,3.26,4.7,4.54s2.95,2.59,4.64,3.94c1.69,1.35,3.31,2.59,4.86,3.72,1.54,1.13,2.64,1.93,3.3,2.39.65.46,1.53,1.09,2.63,1.87,1.1.78,2.07,1.45,2.89,2.01.83.56,1.79,1.22,2.9,1.97,1.1.75,2.57,1.74,4.4,2.95,1.83,1.22,3.23,2.16,4.22,2.81.99.66,1.92,1.28,2.81,1.87.88.59,4.25,2.77,10.09,6.53,5.84,3.76,9.46,6.08,10.86,6.96,1.4.88,2.45,1.54,3.16,1.97.71.43,1.69,1.01,2.92,1.74,1.24.73,2.79,1.63,4.67,2.71,1.88,1.08,3.2,1.82,3.96,2.24.76.41,2.16,1.14,4.2,2.2,2.04,1.06,3.89,1.95,5.57,2.68,1.68.73,2.97,1.26,3.88,1.57.91.32,1.84.61,2.81.88.97.27,2,.49,3.1.67,1.1.18,2,.27,2.7.28.7.01,1.46-.05,2.3-.19.84-.14,1.55-.32,2.13-.55.58-.23,1.14-.53,1.69-.9.55-.38.96-.69,1.22-.94.26-.25.53-.53.78-.83.26-.3.42-.49.49-.57.07-.08.32-.48.75-1.21.43-.72.72-1.26.87-1.62.15-.36.26-.64.33-.86.07-.22.12-.4.16-.55.03-.15.06-.25.09-.31.03-.06.11-.6.25-1.64.14-1.04.13-2.26-.03-3.68-.15-1.41-.39-2.62-.7-3.63-.31-1.01-.7-2.04-1.18-3.1s-.9-1.93-1.29-2.61c-.38-.68-.7-1.22-.96-1.62-.26-.4-.5-.78-.73-1.12-.23-.34-.86-1.13-1.9-2.37-1.04-1.24-1.94-2.22-2.72-2.94-.77-.72-1.51-1.34-2.2-1.87-.69-.52-1.23-.91-1.62-1.16-.38-.25-.69-.44-.93-.59-.23-.15-.88-.46-1.93-.94-1.05-.48-1.89-.82-2.52-1.02-.63-.2-1.64-.38-3.04-.55-1.39-.17-2.61-.19-3.65-.05-1.04.13-1.92.3-2.64.49-.72.19-1.67.52-2.84.99-1.17.47-2.06.85-2.68,1.17-.62.31-1.16.6-1.61.87-.45.27-.89.54-1.31.79-.42.26-1.37.95-2.84,2.07-1.47,1.13-2.63,2.09-3.48,2.88-.85.8-1.55,1.49-2.11,2.08-.56.59-1.38,1.53-2.46,2.81-1.08,1.28-1.88,2.26-2.39,2.94-.52.67-.92,1.21-1.21,1.62-.29.41-.77,1.09-1.43,2.04-.66.95-1.38,2.03-2.16,3.24-.77,1.21-1.51,2.37-2.2,3.48-.69,1.12-1.35,2.21-1.98,3.27-.63,1.07-1.14,1.97-1.55,2.72-.41.74-.77,1.43-1.09,2.05-.32.62-.67,1.34-1.06,2.15-.39.81-.91,2-1.56,3.56-.66,1.56-1.16,2.81-1.51,3.75-.35.93-.72,1.93-1.09,3-.37,1.07-.64,1.87-.82,2.41-.17.54-.37,1.18-.59,1.93-.23.75-.5,1.79-.83,3.14-.32,1.34-.66,3.1-1.01,5.26-.35,2.16-.6,4.03-.73,5.61-.14,1.58-.23,2.89-.26,3.95-.03,1.06-.03,2.1,0,3.14.04,1.04.07,1.75.1,2.13.03.39.13.98.29,1.8.16.81.32,1.45.48,1.91.16.46.41,1.02.75,1.69.34.66.69,1.22,1.04,1.67.35.45.62.76.79.94.17.18.41.4.71.66.3.26.62.51.94.75.32.24.71.49,1.17.76.46.27.7.41.74.44.03.02.4.18,1.11.47.71.29,1.29.51,1.76.64.47.14.92.25,1.37.34.45.09.82.15,1.12.19s.73.06,1.3.07c.57.01,1.18-.01,1.85-.08.66-.07,1.35-.19,2.08-.37.72-.18,1.58-.49,2.57-.92.99-.43,2.29-1.34,3.91-2.71,1.62-1.37,3.18-3.03,4.71-4.97,1.52-1.94,2.61-3.38,3.26-4.33.65-.94,1.39-2.02,2.23-3.23.83-1.21,2.18-3.2,4.04-5.96,1.86-2.76,3.05-4.51,3.55-5.23.5-.73,1.26-1.78,2.27-3.17,1.01-1.39,2.21-3.03,3.61-4.95,1.4-1.91,2.6-3.6,3.59-5.08,1-1.47,1.75-2.6,2.27-3.38.51-.78,1.52-2.33,3.04-4.64,1.51-2.31,2.77-4.29,3.77-5.92,1-1.64,1.73-2.85,2.19-3.64.46-.79,1.19-2.03,2.2-3.72,1-1.69,1.85-3.11,2.53-4.25.68-1.14,1.27-2.11,1.74-2.89.48-.78,1.38-2.24,2.69-4.36,1.32-2.12,2.55-4.03,3.7-5.72,1.15-1.69,2.03-2.95,2.65-3.78.62-.83,1.18-1.56,1.67-2.18.5-.63,1.09-1.36,1.76-2.2l.27-.36"/>
</svg>