<?xml version="1.0" encoding="UTF-8"?>
<svg id="Layer_1" data-name="Layer 1" xmlns="http://www.w3.org/2000/svg" width="241.55" height="161.8" viewBox="0 0 241.55 161.8">
  <defs>
    <style>
      .cls-1 {
        fill: none;
        stroke: #ff9adf;
        stroke-linecap: round;
        stroke-linejoin: round;
        stroke-width: 8.43px;
      }
    </style>
  </defs>
  <path id="STROKE_5b1879f7-be61-4b5a-9f59-f5dd99b93643" data-name="STROKE 5b1879f7-be61-4b5a-9f59-f5dd99b93643" class="cls-1" d="M230.03,157.58c-.41.03-2.9-.48-7.45-1.55-4.56-1.06-9.25-2.36-14.08-3.89-4.83-1.53-9.51-3.09-14.04-4.7-4.53-1.6-10.64-3.8-18.34-6.59-7.7-2.79-16.15-6.07-25.36-9.83-9.21-3.76-16.03-6.66-20.47-8.68-4.44-2.02-8.51-3.94-12.21-5.76-3.7-1.81-9.1-4.65-16.18-8.5-7.09-3.85-13.09-7.28-18.01-10.3-4.92-3.02-9.32-5.84-13.19-8.46-3.87-2.62-6.99-4.76-9.37-6.41-2.38-1.66-5.73-4.1-10.04-7.33-4.32-3.23-7.52-5.68-9.61-7.36-2.09-1.68-3.71-3-4.86-3.98-1.16-.97-2.59-2.23-4.3-3.76-1.71-1.53-3.14-2.84-4.3-3.93-1.15-1.09-2.46-2.37-3.93-3.85-1.47-1.48-2.76-2.78-3.88-3.91-1.12-1.13-3.23-3.67-6.33-7.64-3.1-3.96-5.39-7.46-6.88-10.48-1.49-3.03-2.4-5.53-2.73-7.5-.33-1.97-.32-3.72.02-5.23.34-1.51,1.03-3.02,2.08-4.53,1.04-1.51,2.72-2.98,5.04-4.41s4.21-2.41,5.67-2.93c1.46-.52,4.18-1.04,8.18-1.54,3.99-.5,10.89-.47,20.69.1,9.8.56,17.42,1.23,22.86,2,5.44.77,9.59,1.39,12.45,1.87,2.86.47,7.82,1.58,14.86,3.32,7.05,1.74,12.57,3.25,16.58,4.54,4.01,1.29,7.12,2.34,9.35,3.14,2.23.8,4.83,1.75,7.79,2.85,2.97,1.1,8.89,3.7,17.75,7.78,8.87,4.09,17.24,8.38,25.11,12.89,7.87,4.51,15.16,9.14,21.87,13.92,6.71,4.77,12.86,9.79,18.47,15.06,5.6,5.27,9.83,9.59,12.67,12.96,2.84,3.37,5.15,6.5,6.92,9.4,1.77,2.9,3,5.53,3.69,7.91.69,2.38.95,4.52.77,6.44-.18,1.92-.68,3.54-1.49,4.88-.81,1.34-2.19,2.79-4.14,4.34-1.95,1.56-4.98,2.87-9.07,3.93-4.1,1.06-7.68,1.67-10.76,1.83-3.08.16-7.62-.03-13.61-.56-5.99-.53-11-1.16-15.02-1.88-4.02-.72-10.31-2.23-18.88-4.53s-16.21-4.66-22.92-7.08c-6.71-2.42-11.65-4.26-14.84-5.53-3.18-1.27-5.58-2.23-7.21-2.88-1.62-.65-5.11-2.18-10.45-4.58-5.35-2.4-11.9-5.5-19.65-9.32"/>
  <path id="STROKE_b16843c0-aae5-4b7e-9362-f6484e59344a" data-name="STROKE b16843c0-aae5-4b7e-9362-f6484e59344a" class="cls-1" d="M464.1,116.67c-.13-.09-.27-.33-.42-.72-.23-.28-1.27-1.38-3.12-3.31-1.85-1.92-4.49-4.47-7.94-7.63-3.45-3.16-6.16-5.59-8.13-7.27-1.97-1.68-6.72-5.87-14.25-12.56-7.53-6.69-14.62-13.14-21.28-19.34-6.66-6.2-11.85-11.05-15.57-14.55-3.72-3.5-7.67-7.2-11.85-11.09-4.18-3.89-14.55-13.78-31.1-29.66-16.55-15.89-29.6-28.57-39.14-38.06-9.54-9.49-17.46-17.52-23.75-24.1-6.29-6.58-12.44-13.15-18.45-19.71-6.01-6.56-13.31-14.46-21.91-23.7-8.59-9.23-15.2-16.37-19.83-21.41-4.63-5.04-8.13-8.9-10.5-11.59-2.37-2.69-4.06-4.61-5.06-5.75-1-1.15-3.63-4.29-7.89-9.42s-8.43-10.4-12.49-15.81c-4.07-5.41-9.48-12.9-16.23-22.47-6.75-9.57-13.02-18.61-18.81-27.11-5.79-8.5-12.16-17.91-19.13-28.23-6.96-10.31-12.54-18.75-16.72-25.32-4.18-6.56-8.65-13.99-13.4-22.26s-8.47-15.08-11.16-20.39-5.06-10.28-7.11-14.88c-2.05-4.6-3.91-9.37-5.57-14.31-1.66-4.94-2.76-8.63-3.29-11.06-.53-2.43-.91-4.76-1.15-6.99-.24-2.23-.36-4.11-.38-5.64-.02-1.53.17-3.72.56-6.59.39-2.86,1-5.35,1.84-7.45.83-2.1,1.89-4.14,3.18-6.1,1.28-1.97,2.47-3.54,3.57-4.73,1.09-1.18,2.31-2.3,3.64-3.34s2.54-1.85,3.6-2.41c1.06-.56,2.06-1.06,2.98-1.51.92-.45,2.55-1,4.89-1.66,2.34-.66,4.62-1.11,6.84-1.36,2.22-.24,4.97-.27,8.25-.07,3.28.19,6.04.53,8.29.99s3.45.7,3.63.7c.18,0,3.36,1.16,9.55,3.48,6.18,2.32,11,4.38,14.46,6.17,3.46,1.79,7.42,4.02,11.88,6.68,4.46,2.66,10.74,6.84,18.83,12.56,8.09,5.71,14.08,10.16,17.99,13.35,3.9,3.19,9.1,7.73,15.61,13.64,6.51,5.91,11.69,10.71,15.54,14.4,3.86,3.69,9.3,9.04,16.31,16.04,7.02,7,13.22,13.36,18.6,19.09,5.39,5.72,12.11,13.15,20.19,22.29,8.07,9.14,18.74,21.75,32,37.83,13.26,16.08,23.16,28.3,29.68,36.65s17.21,22.41,32.05,42.16c14.84,19.75,27.96,37.57,39.37,53.43,11.41,15.87,21.48,30.28,30.23,43.24,8.74,12.96,16.1,24.12,22.07,33.49,5.97,9.37,10.31,16.25,13.03,20.65,2.72,4.4,6.8,11.19,12.25,20.37,5.45,9.18,10.23,17.73,14.35,25.64,4.11,7.91,7.62,15.06,10.5,21.45,2.89,6.39,5.91,13.74,9.08,22.05,3.17,8.31,5.48,15.23,6.94,20.76,1.46,5.54,2.2,10.5,2.23,14.88.03,4.39-.25,7.81-.85,10.26-.59,2.45-1.11,4.17-1.55,5.16-.44.99-.79,1.74-1.04,2.26-.25.52-1.27,1.77-3.06,3.76s-3.24,3.34-4.35,4.05c-1.11.71-2.65,1.45-4.6,2.22s-5.1,1.15-9.44,1.16c-4.34,0-7.35-.2-9.03-.62-1.68-.42-3.2-.8-4.58-1.12-1.37-.33-8.36-4-20.95-11.04-12.6-7.03-26.41-16.62-41.42-28.75-15.02-12.13-26.42-21.72-34.22-28.77-7.79-7.05-14.45-13.05-19.98-18.01s-16.87-16.25-34.03-33.87c-17.16-17.62-30.05-31.24-38.69-40.87-8.63-9.63-14.92-16.74-18.87-21.33-3.95-4.59-8.95-10.44-15-17.57-6.06-7.12-14.16-16.81-24.31-29.06-10.15-12.25-17.84-21.64-23.07-28.16-5.23-6.52-9.07-11.34-11.51-14.46-2.45-3.12-5.27-6.73-8.47-10.82-3.2-4.09-18.15-23.88-44.85-59.35"/>
</svg>