<?xml version="1.0" encoding="UTF-8"?>
<svg id="Layer_1" data-name="Layer 1" xmlns="http://www.w3.org/2000/svg" width="226.73" height="118.31" viewBox="0 0 226.73 118.31">
  <defs>
    <style>
      .cls-1 {
        fill: none;
        stroke: #ff9adf;
        stroke-linecap: round;
        stroke-linejoin: round;
        stroke-width: 8.43px;
      }
    </style>
  </defs>
  <path id="STROKE_d852b481-d96e-4997-8adc-ef9b8d69c05c" data-name="STROKE d852b481-d96e-4997-8adc-ef9b8d69c05c" class="cls-1" d="M150.1,109.44c-.62.55-.97.86-1.07.93-.1.07-.3.24-.61.49-.31.25-.66.46-1.05.63-.39.17-.7.23-.94.19-.24-.04-.41-.03-.52.03-.11.06-1.31-.13-3.61-.59-2.3-.46-7.7-2.74-16.22-6.83-8.51-4.09-16.96-8.52-25.35-13.27-8.38-4.75-16.01-9.21-22.89-13.37-6.87-4.16-12.87-7.89-18-11.17-5.12-3.29-10.64-6.95-16.55-10.99-5.91-4.04-11.62-8.24-17.13-12.58-5.51-4.35-9.8-8.18-12.88-11.52-3.07-3.33-5.14-5.84-6.2-7.53-1.06-1.69-1.79-3.24-2.2-4.64-.41-1.41-.63-2.45-.66-3.13-.03-.68.02-1.42.14-2.22.12-.8.48-1.7,1.06-2.71s1.45-1.97,2.62-2.88c1.16-.91,3.72-1.9,7.67-2.98s10.5-1.34,19.66-.78c9.16.56,16.44,1.29,21.85,2.21s11.1,2.02,17.07,3.32c5.98,1.29,11.23,2.52,15.77,3.66,4.53,1.15,9.79,2.65,15.77,4.5,5.98,1.86,11.17,3.64,15.57,5.36,4.4,1.71,8.59,3.44,12.58,5.18,3.99,1.74,7.57,3.36,10.74,4.85,3.17,1.49,5.94,2.81,8.29,3.95,2.36,1.14,7.42,3.76,15.2,7.85,7.77,4.1,14.23,7.72,19.37,10.86,5.14,3.14,9.65,6.19,13.53,9.14,3.88,2.95,6.8,5.36,8.76,7.22,1.96,1.86,3.9,3.98,5.81,6.36,1.92,2.38,3.4,4.65,4.46,6.79,1.06,2.14,1.74,4.21,2.06,6.21.31,2,.39,3.55.24,4.66-.15,1.1-.3,1.93-.46,2.47-.16.55-.71,1.64-1.65,3.29-.94,1.64-2.38,3.23-4.3,4.75-1.92,1.53-3.68,2.63-5.28,3.32s-3.37,1.3-5.33,1.83c-1.96.53-5.56,1.02-10.8,1.45-5.24.43-10.41.45-15.5.06-5.09-.39-10.09-1.04-15-1.93-4.9-.9-8.95-1.73-12.12-2.5-3.18-.77-8.2-2.18-15.06-4.24-6.86-2.05-13.1-4.03-18.71-5.94-5.62-1.91-10.94-3.87-15.97-5.88-5.03-2.01-10.96-4.61-17.79-7.81-6.83-3.19-12.25-5.85-16.26-7.96-4.01-2.11-9.54-5.33-16.58-9.65-7.04-4.32-12.84-8.13-17.39-11.43-4.55-3.3-8.92-6.88-13.1-10.73-4.19-3.85-8.8-9.11-13.84-15.78"/>
  <path id="STROKE_41cc306a-40cf-4dff-a6b1-20c034c93bf1" data-name="STROKE 41cc306a-40cf-4dff-a6b1-20c034c93bf1" class="cls-1" d="M152.41,349.57l-1.71.67c-.54.22-3.4-.01-8.6-.69-5.2-.68-12.7-2.62-22.5-5.83-9.8-3.21-17.26-5.89-22.4-8.03-5.14-2.14-9.2-3.88-12.19-5.21-2.99-1.33-7.01-3.12-12.07-5.38-5.06-2.26-9.79-4.36-14.21-6.31-4.42-1.95-12.56-5.82-24.44-11.6s-21.75-10.68-29.64-14.67c-7.89-4-13.85-7.01-17.88-9.03-4.02-2.02-7.07-3.53-9.14-4.52-2.07-.99-11.3-5.85-27.72-14.57-16.41-8.72-29.39-15.76-38.93-21.1-9.54-5.34-20.4-11.58-32.58-18.7-12.18-7.12-24.53-14.38-37.04-21.77s-23.47-13.83-32.87-19.32c-9.4-5.49-16.99-9.95-22.76-13.4-5.77-3.44-12.76-7.81-20.96-13.1-8.2-5.29-17.72-11.9-28.54-19.84-10.83-7.94-20.01-15.15-27.55-21.64-7.54-6.49-14.16-12.49-19.88-18.02-5.71-5.52-9.77-9.58-12.18-12.16-2.41-2.59-4.44-4.85-6.08-6.78-1.64-1.93-3.47-4.48-5.47-7.65-2-3.17-3.36-5.68-4.05-7.53-.7-1.85-1.16-3.36-1.36-4.54-.21-1.18-.16-2.52.15-4.01.31-1.49.98-2.97,2-4.44,1.02-1.47,2.39-2.72,4.11-3.77,1.72-1.05,2.94-1.66,3.65-1.82.71-.16,1.96-.42,3.74-.76,1.78-.34,4.41-.47,7.88-.39,3.48.08,6.42.29,8.82.61,2.4.32,5.49.9,9.26,1.73,3.77.83,7.93,1.84,12.48,3.04,4.55,1.19,10.12,2.87,16.71,5.02,6.59,2.15,13.29,4.53,20.1,7.13,6.81,2.6,13.56,5.26,20.25,7.97,6.69,2.71,15.61,6.75,26.76,12.14,11.15,5.38,19.67,9.62,25.56,12.73,5.89,3.1,12.22,6.47,19,10.11,6.78,3.63,11.91,6.4,15.41,8.31s6.82,3.73,9.97,5.47c3.15,1.74,7.18,4.03,12.09,6.87,4.91,2.84,14.44,8.77,28.6,17.79,14.16,9.02,27.63,17.85,40.4,26.48,12.77,8.63,26.47,18.68,41.1,30.16,14.63,11.47,26.95,21.79,36.98,30.94,10.03,9.15,18.95,17.71,26.79,25.67,7.83,7.96,13.47,13.83,16.91,17.62,3.44,3.79,7.29,8.44,11.54,13.94,4.26,5.5,7.54,10.29,9.86,14.36,2.31,4.08,3.85,7.57,4.6,10.49.76,2.92,1.14,5.08,1.15,6.5s-.49,3.12-1.5,5.13c-1.01,2-2.37,3.48-4.09,4.43s-4.12,1.57-7.22,1.85-6.69.09-10.79-.58c-4.1-.68-7.88-1.48-11.34-2.41-3.46-.93-11.57-4.31-24.34-10.13-12.77-5.82-22.47-10.51-29.11-14.09-6.64-3.57-12.94-7.05-18.89-10.43-5.96-3.38-14.18-8.44-24.66-15.16-10.49-6.73-18.41-11.93-23.77-15.61-5.36-3.68-10.3-7.14-14.81-10.37-4.51-3.24-8.99-6.48-13.45-9.72-4.46-3.24-8.68-6.32-12.65-9.24-3.97-2.92-8.85-6.51-14.62-10.78-5.78-4.27-14.35-10.9-25.73-19.89-11.38-8.99-20.57-16.4-27.55-22.23-6.99-5.83-12.24-10.21-15.76-13.13-3.51-2.92-13.61-11.51-30.28-25.75-16.67-14.24-39.24-35.7-67.69-64.37"/>
</svg>