<?xml version="1.0" encoding="UTF-8"?>
<svg id="Layer_1" data-name="Layer 1" xmlns="http://www.w3.org/2000/svg" width="373.21" height="448.07" viewBox="0 0 373.21 448.07">
  <defs>
    <style>
      .cls-1 {
        fill: none;
        stroke: #ff9adf;
        stroke-linecap: round;
        stroke-linejoin: round;
        stroke-width: 8.43px;
      }
    </style>
  </defs>
  <path id="STROKE_541364d0-1c3e-4ba4-a89f-e3d2c3757442" data-name="STROKE 541364d0-1c3e-4ba4-a89f-e3d2c3757442" class="cls-1" d="M100.97,199.54c-.33-.42-1.95-1.44-4.87-3.05-.59-.44-2.78-2.91-6.58-7.41-3.8-4.5-8.38-12.08-13.74-22.74-5.37-10.66-9.31-19.03-11.84-25.1s-4.5-10.92-5.92-14.56c-1.42-3.64-3.44-9.59-6.05-17.86-2.61-8.27-4.38-14.42-5.31-18.46-.93-4.03-1.66-9.02-2.2-14.94-.54-5.93-.57-10.7-.08-14.33.49-3.62,1.22-6.49,2.2-8.61.98-2.12,2.08-3.85,3.3-5.19s3.16-2.5,5.83-3.47c2.67-.97,6-1.28,10.01-.92,4,.35,10.74,2.86,20.2,7.53,9.46,4.67,16.81,8.76,22.04,12.26,5.23,3.51,10.95,7.69,17.15,12.55,6.21,4.86,11.99,9.66,17.34,14.41,5.35,4.75,9.58,8.57,12.69,11.48s6.64,6.37,10.59,10.37c3.95,4,8.38,8.59,13.27,13.75,4.89,5.16,8.6,9.11,11.13,11.85,2.53,2.74,4.65,5.08,6.36,7,1.71,1.92,4.57,5.2,8.56,9.83,3.99,4.63,8.07,9.45,12.24,14.44,4.17,4.99,7.29,8.79,9.36,11.38,2.08,2.59,4.15,5.19,6.21,7.78,2.07,2.6,6.23,7.94,12.49,16.03,6.26,8.09,13.29,17.5,21.1,28.24,7.81,10.73,12.2,16.79,13.16,18.16.96,1.37,2.53,3.6,4.7,6.7,2.17,3.09,5.2,7.53,9.1,13.32,3.9,5.79,7.31,10.87,10.22,15.24,2.91,4.37,6.66,10.05,11.23,17.04,4.57,6.99,8,12.31,10.28,15.97,2.28,3.66,4,6.46,5.18,8.39,1.17,1.94,4.51,7.6,10.01,16.98,5.5,9.38,10.4,18.51,14.7,27.37,4.3,8.87,7.57,16.88,9.8,24.03,2.23,7.16,3.55,13.35,3.95,18.59.4,5.24.3,9.35-.32,12.33-.61,2.98-1.44,5.44-2.47,7.38-1.03,1.94-2.5,3.78-4.4,5.51-1.9,1.73-4.63,3.16-8.18,4.3-3.55,1.14-9.22.98-17.01-.46-7.79-1.45-16.1-4.27-24.92-8.48-8.83-4.21-18.12-9.34-27.87-15.41-9.75-6.06-17.87-11.4-24.37-16-6.5-4.6-14-10.43-22.51-17.49-8.51-7.06-14.93-12.61-19.26-16.64-4.33-4.03-9.55-9.15-15.67-15.34-6.12-6.2-12.01-12.36-17.67-18.49-5.66-6.13-12.7-14.04-21.11-23.71-8.41-9.68-16.2-18.87-23.37-27.59-7.17-8.72-13.15-16.14-17.95-22.26-4.8-6.12-9-11.6-12.61-16.46-3.61-4.86-6.9-9.31-9.87-13.38-2.97-4.06-8.34-11.88-16.1-23.45-7.76-11.57-13.63-20.55-17.61-26.93-3.98-6.38-6.92-11.12-8.82-14.24-1.9-3.11-5.78-10.17-11.63-21.17s-10.23-19.56-13.12-25.68c-2.9-6.12-5.92-12.87-9.08-20.26-3.16-7.39-5.72-13.77-7.7-19.12-1.97-5.36-3.87-11.24-5.7-17.63-1.82-6.4-3.19-12.5-4.1-18.32-.91-5.81-1.28-10.86-1.11-15.15.17-4.28.56-7.52,1.19-9.7.62-2.18,1.28-3.8,1.97-4.86.69-1.06,1.44-1.98,2.25-2.76.81-.78,2.55-2.05,5.23-3.82,2.8-1.23,4.58-1.95,5.33-2.18.75-.22,3.06-.86,6.91-1.92"/>
</svg>