<?xml version="1.0" encoding="UTF-8"?>
<svg id="Layer_1" data-name="Layer 1" xmlns="http://www.w3.org/2000/svg" width="159.13" height="116.54" viewBox="0 0 159.13 116.54">
  <defs>
    <style>
      .cls-1 {
        fill: none;
        stroke: #ff9adf;
        stroke-linecap: round;
        stroke-linejoin: round;
        stroke-width: 8.43px;
      }
    </style>
  </defs>
  <path id="STROKE_ce170998-eb27-41c3-a4f3-d0022b74228e" data-name="STROKE ce170998-eb27-41c3-a4f3-d0022b74228e" class="cls-1" d="M12.47,142.64c.84.31,1.73.59,2.67.82.94.24,4.5.75,10.67,1.54,6.17.79,14.61,1.3,25.31,1.53,10.71.23,18.77.26,24.2.08,5.43-.18,9.44-.34,12.05-.5,2.6-.16,6.8-.46,12.6-.91,5.79-.45,11.79-.96,17.99-1.52,6.2-.56,10.66-.98,13.4-1.27,2.74-.28,4.94-.55,6.6-.8,1.67-.25,3.02-.5,4.06-.74,1.04-.24,1.94-.46,2.7-.67.76-.21,1.41-.46,1.95-.75.54-.29,1.07-.61,1.58-.95.51-.34.77-.52.78-.52,0,0-.42-.37-1.29-1.12-1.38-.61-3.41-1.25-6.09-1.91s-4.97-1.16-6.86-1.48c-1.89-.32-5.37-.63-10.44-.93-5.06-.3-11.1-.07-18.11.71-7.01.77-12.94,1.79-17.78,3.04-4.85,1.26-9.86,3-15.05,5.22-5.18,2.23-9.02,4.04-11.5,5.44-2.48,1.4-5.29,3.2-8.41,5.38-3.12,2.18-5.39,3.91-6.8,5.18-1.41,1.27-2.4,2.26-2.96,2.97-.56.71-.91,1.19-1.05,1.45-.14.25-.24.62-.28,1.1-.05.48,0,.73.13.75.13.02.23,0,.3-.06l1.54-.54c3.51-1.94,5.77-3.25,6.78-3.92,1.01-.67,2.22-1.54,3.62-2.6,1.4-1.06,2.85-2.23,4.33-3.5,1.48-1.27,2.66-2.31,3.54-3.11.88-.8,2.43-2.53,4.67-5.17,2.23-2.64,3.7-4.54,4.38-5.69.69-1.15,1.08-2.01,1.19-2.57.11-.56.1-1.03-.03-1.4-.45.04-1.17.46-2.18,1.26-1.01.8-1.8,1.52-2.38,2.16-.58.64-1.44,1.69-2.6,3.15-1.15,1.46-2.25,3.11-3.28,4.94-1.03,1.83-1.77,3.25-2.21,4.28-.44,1.02-.87,2.18-1.28,3.47-.41,1.29-.69,2.76-.83,4.42-.14,1.66.44,3.8,1.72,6.45,1.36.19,2.4.2,3.13.03.72-.17,1.46-.47,2.2-.9.74-.44,1.36-.86,1.85-1.27.49-.41,1.19-1.3,2.1-2.66.92-1.36,1.54-2.49,1.87-3.41.33-.91.57-1.75.72-2.5.15-.76.26-1.28.33-1.56s.08-1.87.01-4.76c-.06-2.89-.47-5.58-1.23-8.06-.76-2.49-2.02-5.18-3.77-8.09-1.76-2.9-3.39-5.16-4.89-6.78-1.51-1.62-3.06-3.08-4.66-4.38-1.6-1.3-3.13-2.39-4.58-3.26-1.46-.87-2.52-1.46-3.19-1.76-.67-.3-2.36-1.1-5.08-2.38"/>
  <path id="STROKE_3c7b6c28-d507-47c2-908b-11bafb7ae5c4" data-name="STROKE 3c7b6c28-d507-47c2-908b-11bafb7ae5c4" class="cls-1" d="M78.92,76.5c2.03-.87,3.18-1.38,3.46-1.5s1.31-.55,3.07-1.27c1.76-.72,4.53-1.72,8.3-3.01,3.77-1.29,6.82-2.3,9.15-3.04,2.33-.73,4.88-1.51,7.66-2.33,2.78-.82,5.7-1.72,8.77-2.72,3.07-1,5.23-1.74,6.48-2.24,1.25-.5,2.05-.82,2.38-.98.33-.16.73-.36,1.19-.62.46-.26.91-.57,1.36-.94.44-.37.63-.56.55-.57s-.26-.08-.54-.21c-.28-.12-1.23-.29-2.84-.51-1.61-.22-3.25-.41-4.92-.56-1.67-.15-3.4-.3-5.18-.44-1.78-.14-2.92-.23-3.41-.27-.49-.04-2.37-.14-5.63-.29s-5.73-.26-7.42-.31c-1.68-.05-3.21-.11-4.58-.17s-2.27-.1-2.7-.12c-.43-.02-1.9-.11-4.4-.25-2.51-.14-4.54-.21-6.12-.21-1.57,0-2.84.04-3.82.13-.97.09-2.19.43-3.66,1.01-1.47.58-2.28.97-2.43,1.17-.09.44-.09,1.07.02,1.89.11.82.2,1.35.28,1.6.08.25.36.94.85,2.08.49,1.14,1.74,3.41,3.75,6.81s3.69,6.16,5.01,8.27c1.33,2.12,2.5,3.98,3.52,5.58,1.02,1.6,1.79,2.8,2.3,3.59.51.79,1.47,2.28,2.87,4.46,1.4,2.18,2.96,4.57,4.68,7.16,1.71,2.59,3.15,4.66,4.31,6.23,1.16,1.56,2.3,2.91,3.41,4.05,1.11,1.13,2.1,2.02,2.97,2.67.87.64,1.48,1.04,1.82,1.2.34.15.65.27.95.35.3.08.6.12.91.14.31.02.7-.02,1.18-.12.48-.1.8-.2.97-.29.17-.1.33-.22.49-.36.16-.14.35-.38.59-.72.24-.34.4-.64.49-.89.09-.26.16-.69.21-1.28.05-.6.05-1.15,0-1.65-.05-.5-.19-1.16-.41-1.98-.23-.82-.4-1.36-.5-1.63-.1-.27-.55-1.13-1.34-2.56-.79-1.44-1.67-2.8-2.65-4.08-.98-1.28-1.82-2.31-2.51-3.08-.7-.77-2.78-2.69-6.24-5.74-3.46-3.06-6.69-5.63-9.67-7.72-2.98-2.08-5.31-3.62-6.99-4.6-1.67-.99-3.84-2.02-6.49-3.12-2.65-1.09-4.87-1.86-6.66-2.32-1.79-.45-4.01-.86-6.66-1.22-2.65-.36-5.86-.42-9.61-.18-3.76.24-7,.76-9.75,1.56-2.74.8-4.67,1.5-5.78,2.09-1.11.59-2.01,1.2-2.71,1.85-.7.64-1.21,1.26-1.53,1.86-.32.6-.51,1.09-.57,1.48-.06.39-.06.74-.01,1.08.05.33.11.57.17.71.06.14.12.24.17.29.05.05.16.12.32.21.16.08.29.14.38.16.09.02.77.03,2.06.03,1.29,0,2.72-.23,4.29-.69,1.58-.46,2.88-.95,3.91-1.47,1.03-.51,1.76-.9,2.19-1.16.43-.26,1.63-1.14,3.6-2.65,1.97-1.51,3.6-2.93,4.89-4.28,1.29-1.34,2.29-2.45,2.98-3.32.7-.87,2.13-2.93,4.29-6.18,2.17-3.25,3.77-5.69,4.82-7.31,1.05-1.62,1.89-2.91,2.54-3.88.64-.96,1.8-2.69,3.48-5.17,1.68-2.48,2.94-4.38,3.79-5.68s1.83-2.87,2.92-4.68c1.09-1.81,2.61-4.33,4.54-7.54,1.94-3.21,3.83-6.23,5.68-9.06,1.85-2.83,3.19-4.82,4.02-5.97.83-1.15,1.72-2.24,2.66-3.28.94-1.04,1.77-1.8,2.49-2.3.72-.5,1.3-.83,1.75-.99.45-.16.79-.24,1-.23.21,0,.42.06.61.16.2.1.34.19.42.29s.15.21.22.34c.06.13.13.4.19.81.06.41-.04,1.39-.3,2.92-.26,1.53-.53,2.74-.81,3.62-.28.88-.66,2-1.15,3.35-.49,1.35-1,2.7-1.55,4.02-.55,1.33-1.17,2.76-1.86,4.28-.69,1.53-1.97,4.15-3.84,7.86-1.87,3.71-3.57,7.02-5.09,9.92-1.52,2.9-2.65,5.08-3.39,6.52-.74,1.44-2.23,4.79-4.48,10.03-2.25,5.24-4.07,10-5.46,14.27-1.39,4.27-2.39,7.67-3,10.21-.6,2.54-1.09,4.74-1.46,6.6-.37,1.86-.64,3.3-.8,4.3-.16,1-.34,2.31-.53,3.93-.19,1.62-.29,2.99-.29,4.12,0,1.13.06,1.94.18,2.43.12.49.27.86.45,1.09.18.23.33.37.47.42s.33.05.58.02c.25-.03.94-.44,2.08-1.21,1.14-.78,1.88-1.34,2.22-1.7.34-.36,1.1-1.36,2.27-3.01,1.17-1.65,2.19-3.34,3.06-5.06.87-1.73,1.62-3.4,2.23-5.01.61-1.61,1.03-2.76,1.26-3.43.23-.67.47-1.41.72-2.22.25-.8.68-2.3,1.29-4.48.62-2.19,1.17-4.3,1.67-6.33.5-2.03.88-3.59,1.14-4.67.26-1.08.69-3.23,1.28-6.45.59-3.22,1.03-6,1.34-8.36.3-2.36.49-3.94.55-4.75.07-.81.03-1.62-.11-2.44-.02-.07-.15.04-.4.33-.25.29-.54,1.21-.88,2.75-.34,1.54-.61,3.15-.8,4.84-.19,1.69-.31,3.77-.35,6.26-.05,2.49.03,4.85.24,7.09.21,2.24.59,4.32,1.14,6.26.55,1.94,1.09,3.41,1.61,4.42.52,1.01,1.05,1.9,1.6,2.65.55.75,1.1,1.43,1.67,2.01.57.59,1.35,1.27,2.34,2.06.99.79,2.96,1.99,5.89,3.6,2.93,1.62,5.45,2.86,7.54,3.74,2.09.88,4.88,1.89,8.37,3.03,3.48,1.14,6.33,1.95,8.55,2.42,2.21.48,4.62.76,7.22.84,2.6.08,4.75-.06,6.44-.44,1.7-.38,3-.78,3.93-1.2.92-.42,1.9-1.07,2.93-1.96,1.03-.89,1.74-1.63,2.13-2.22.39-.59.75-1.37,1.11-2.33.35-.96.48-2.17.39-3.63-.09-1.46-.57-3-1.44-4.63-.87-1.63-2.28-3.32-4.24-5.08-1.96-1.76-5.67-3.92-11.12-6.49-5.45-2.57-10-4.46-13.64-5.65-3.64-1.2-6.34-2.04-8.08-2.52s-5.34-1.32-10.8-2.51c-5.46-1.19-10.13-2.12-14.01-2.78-3.88-.66-6.96-1.17-9.24-1.52-2.28-.35-4.5-.67-6.66-.97-2.16-.3-6.3-.98-12.42-2.06-6.12-1.08-10.91-1.98-14.36-2.73-3.45-.74-9.03-2.08-16.72-4.01-7.7-1.93-12.99-3.19-15.89-3.76-2.89-.58-4.88-.93-5.96-1.05-1.08-.13-1.95-.18-2.62-.15-.66.03-1.15.06-1.45.1-.31.04-.61.16-.9.35-.3.2-.46.29-.49.3-.03,0-.06.03-.09.09-.03.06-.2.22-.51.48"/>
</svg>