<?xml version="1.0" encoding="UTF-8"?>
<svg id="Layer_1" data-name="Layer 1" xmlns="http://www.w3.org/2000/svg" width="501.31" height="315.11" viewBox="0 0 501.31 315.11">
  <defs>
    <style>
      .cls-1 {
        fill: none;
        stroke: #ff9adf;
        stroke-linecap: round;
        stroke-linejoin: round;
        stroke-width: 8.43px;
      }
    </style>
  </defs>
  <path id="STROKE_d852b481-d96e-4997-8adc-ef9b8d69c05c" data-name="STROKE d852b481-d96e-4997-8adc-ef9b8d69c05c" class="cls-1" d="M494.78,70.01c-.62.55-.97.86-1.07.93-.1.07-.3.24-.61.49-.31.25-.66.46-1.05.63-.39.17-.7.23-.94.19-.24-.04-.41-.03-.52.03-.11.06-1.31-.13-3.61-.59-2.3-.46-7.7-2.74-16.22-6.83-8.51-4.09-16.96-8.52-25.35-13.27-8.38-4.75-16.01-9.21-22.89-13.37-6.87-4.16-12.87-7.89-18-11.17-5.12-3.29-10.64-6.95-16.55-10.99-5.91-4.04-11.62-8.24-17.13-12.58-5.51-4.35-9.8-8.18-12.88-11.52-3.07-3.33-5.14-5.84-6.2-7.53-1.06-1.69-1.79-3.24-2.2-4.64-.41-1.41-.63-2.45-.66-3.13-.03-.68.02-1.42.14-2.22.12-.8.48-1.7,1.06-2.71s1.45-1.97,2.62-2.88c1.16-.91,3.72-1.9,7.67-2.98s10.5-1.34,19.66-.78c9.16.56,16.44,1.29,21.85,2.21s11.1,2.02,17.07,3.32c5.98,1.29,11.23,2.52,15.77,3.66,4.53,1.15,9.79,2.65,15.77,4.5,5.98,1.86,11.17,3.64,15.57,5.36,4.4,1.71,8.59,3.44,12.58,5.18,3.99,1.74,7.57,3.36,10.74,4.85,3.17,1.49,5.94,2.81,8.29,3.95,2.36,1.14,7.42,3.76,15.2,7.85,7.77,4.1,14.23,7.72,19.37,10.86,5.14,3.14,9.65,6.19,13.53,9.14,3.88,2.95,6.8,5.36,8.76,7.22,1.96,1.86,3.9,3.98,5.81,6.36,1.92,2.38,3.4,4.65,4.46,6.79,1.06,2.14,1.74,4.21,2.06,6.21.31,2,.39,3.55.24,4.66-.15,1.1-.3,1.93-.46,2.47-.16.55-.71,1.64-1.65,3.29-.94,1.64-2.38,3.23-4.3,4.75-1.92,1.53-3.68,2.63-5.28,3.32s-3.37,1.3-5.33,1.83c-1.96.53-5.56,1.02-10.8,1.45-5.24.43-10.41.45-15.5.06-5.09-.39-10.09-1.04-15-1.93-4.9-.9-8.95-1.73-12.12-2.5-3.18-.77-8.2-2.18-15.06-4.24-6.86-2.05-13.1-4.03-18.71-5.94-5.62-1.91-10.94-3.87-15.97-5.88-5.03-2.01-10.96-4.61-17.79-7.81-6.83-3.19-12.25-5.85-16.26-7.96-4.01-2.11-9.54-5.33-16.58-9.65-7.04-4.32-12.84-8.13-17.39-11.43-4.55-3.3-8.92-6.88-13.1-10.73-4.19-3.85-8.8-9.11-13.84-15.78"/>
  <path id="STROKE_41cc306a-40cf-4dff-a6b1-20c034c93bf1" data-name="STROKE 41cc306a-40cf-4dff-a6b1-20c034c93bf1" class="cls-1" d="M497.09,310.14l-1.71.67c-.54.22-3.4-.01-8.6-.69-5.2-.68-12.7-2.62-22.5-5.83-9.8-3.21-17.26-5.89-22.4-8.03-5.14-2.14-9.2-3.88-12.19-5.21-2.99-1.33-7.01-3.12-12.07-5.38-5.06-2.26-9.79-4.36-14.21-6.31-4.42-1.95-12.56-5.82-24.44-11.6s-21.75-10.68-29.64-14.67c-7.89-4-13.85-7.01-17.88-9.03-4.02-2.02-7.07-3.53-9.14-4.52-2.07-.99-11.3-5.85-27.72-14.57-16.41-8.72-29.39-15.76-38.93-21.1-9.54-5.34-20.4-11.58-32.58-18.7-12.18-7.12-24.53-14.38-37.04-21.77s-23.47-13.83-32.87-19.32c-9.4-5.49-16.99-9.95-22.76-13.4-5.77-3.44-12.76-7.81-20.96-13.1-8.2-5.29-17.72-11.9-28.54-19.84-10.83-7.94-20.01-15.15-27.55-21.64-7.54-6.49-14.16-12.49-19.88-18.02-5.71-5.52-9.77-9.58-12.18-12.16-2.41-2.59-4.44-4.85-6.08-6.78-1.64-1.93-3.47-4.48-5.47-7.65-2-3.17-3.36-5.68-4.05-7.53-.7-1.85-1.16-3.36-1.36-4.54-.21-1.18-.16-2.52.15-4.01.31-1.49.98-2.97,2-4.44,1.02-1.47,2.39-2.72,4.11-3.77,1.72-1.05,2.94-1.66,3.65-1.82.71-.16,1.96-.42,3.74-.76,1.78-.34,4.41-.47,7.88-.39,3.48.08,6.42.29,8.82.61,2.4.32,5.49.9,9.26,1.73,3.77.83,7.93,1.84,12.48,3.04,4.55,1.19,10.12,2.87,16.71,5.02,6.59,2.15,13.29,4.53,20.1,7.13,6.81,2.6,13.56,5.26,20.25,7.97,6.69,2.71,15.61,6.75,26.76,12.14,11.15,5.38,19.67,9.62,25.56,12.73,5.89,3.1,12.22,6.47,19,10.11,6.78,3.63,11.91,6.4,15.41,8.31s6.82,3.73,9.97,5.47c3.15,1.74,7.18,4.03,12.09,6.87,4.91,2.84,14.44,8.77,28.6,17.79,14.16,9.02,27.63,17.85,40.4,26.48,12.77,8.63,26.47,18.68,41.1,30.16,14.63,11.47,26.95,21.79,36.98,30.94,10.03,9.15,18.95,17.71,26.79,25.67,7.83,7.96,13.47,13.83,16.91,17.62,3.44,3.79,7.29,8.44,11.54,13.94,4.26,5.5,7.54,10.29,9.86,14.36,2.31,4.08,3.85,7.57,4.6,10.49.76,2.92,1.14,5.08,1.15,6.5s-.49,3.12-1.5,5.13c-1.01,2-2.37,3.48-4.09,4.43s-4.12,1.57-7.22,1.85-6.69.09-10.79-.58c-4.1-.68-7.88-1.48-11.34-2.41-3.46-.93-11.57-4.31-24.34-10.13-12.77-5.82-22.47-10.51-29.11-14.09-6.64-3.57-12.94-7.05-18.89-10.43-5.96-3.38-14.18-8.44-24.66-15.16-10.49-6.73-18.41-11.93-23.77-15.61-5.36-3.68-10.3-7.14-14.81-10.37-4.51-3.24-8.99-6.48-13.45-9.72-4.46-3.24-8.68-6.32-12.65-9.24-3.97-2.92-8.85-6.51-14.62-10.78-5.78-4.27-14.35-10.9-25.73-19.89-11.38-8.99-20.57-16.4-27.55-22.23-6.99-5.83-12.24-10.21-15.76-13.13-3.51-2.92-13.61-11.51-30.28-25.75-16.67-14.24-39.24-35.7-67.69-64.37"/>
  <path id="STROKE_6b3d2339-f178-450c-a778-c92645474e7e" data-name="STROKE 6b3d2339-f178-450c-a778-c92645474e7e" class="cls-1" d="M3.48,397.86l-1.1-.25c-.59-.08-3.49-1.54-8.72-4.38-5.22-2.83-11.9-7.67-20.02-14.52-8.13-6.84-14.2-12.21-18.23-16.1-4.02-3.89-7.02-6.81-9-8.75-1.97-1.94-5.28-5.28-9.91-10-4.63-4.72-8.33-8.58-11.12-11.56-2.78-2.98-5.36-5.8-7.72-8.44-2.36-2.64-6.19-7.09-11.47-13.33-5.29-6.24-9.97-11.92-14.05-17.03s-8.91-11.76-14.49-19.96c-5.58-8.19-9.77-14.6-12.55-19.21-2.79-4.61-4.83-8-6.12-10.18-1.29-2.18-4.06-7.51-8.3-16-4.24-8.49-7.31-15.06-9.22-19.71-1.91-4.65-3.4-8.58-4.48-11.81-1.08-3.23-2.02-6.91-2.81-11.03-.79-4.13-1.24-7.2-1.33-9.23-.1-2.03-.13-3.55-.1-4.58.03-1.03.17-2.29.41-3.78.24-1.49.63-3.03,1.17-4.61.54-1.58,1.59-3.45,3.17-5.62,1.58-2.17,3.85-4.16,6.79-5.98,2.95-1.82,6.81-3.05,11.59-3.71,4.77-.66,8.48-.89,11.11-.71,2.63.18,6.59.8,11.88,1.86,5.29,1.06,9.6,2.07,12.95,3.02,3.34.96,6.8,2.06,10.39,3.29,3.58,1.23,6.99,2.51,10.23,3.83,3.24,1.32,6.61,2.79,10.11,4.4,3.5,1.61,7.45,3.54,11.85,5.8,4.4,2.25,10.12,5.48,17.16,9.68,7.04,4.2,13.61,8.37,19.72,12.52,6.11,4.15,11.5,8.01,16.19,11.6,4.69,3.58,12.18,9.85,22.46,18.81,10.28,8.96,17.86,15.7,22.73,20.23,4.87,4.53,10.23,9.62,16.08,15.27s9.48,9.18,10.9,10.59c1.41,1.41,3.01,3,4.8,4.77,1.79,1.77,5.74,5.98,11.87,12.61,6.13,6.64,12.11,13.38,17.95,20.22,5.84,6.85,10.13,11.92,12.9,15.21,2.76,3.3,4.8,5.73,6.12,7.31,1.32,1.58,3.81,4.65,7.47,9.22,3.66,4.57,8.39,10.73,14.2,18.49,5.81,7.76,10.26,13.76,13.34,17.99,3.08,4.24,8.87,12.44,17.37,24.61,8.5,12.17,15.56,22.62,21.19,31.35,5.63,8.73,9.95,15.66,12.96,20.8,3.01,5.14,6.16,10.73,9.45,16.76,3.29,6.04,6.25,11.66,8.86,16.87,2.62,5.21,4.63,9.32,6.03,12.33,1.41,3.01,2.91,6.25,4.5,9.71,1.6,3.46,3.76,8.34,6.49,14.64,2.73,6.3,5.16,12.46,7.3,18.47,2.14,6.01,3.78,11.56,4.93,16.64,1.15,5.08,1.8,10.2,1.95,15.37.15,5.17-.21,9.57-1.07,13.22-.87,3.64-1.79,6.34-2.77,8.08-.98,1.75-2.15,3.33-3.49,4.74-1.35,1.42-3.1,2.8-5.25,4.14-2.15,1.35-5.16,2.45-9.02,3.32-3.86.87-8.65,1.01-14.36.42-5.72-.59-11.92-1.97-18.6-4.14-6.68-2.17-13.54-4.93-20.59-8.29-7.04-3.36-14.95-7.89-23.73-13.59-8.78-5.7-15.38-10.25-19.81-13.64-4.42-3.39-8.31-6.43-11.65-9.12-3.34-2.69-7.55-6.26-12.63-10.72-5.08-4.45-9.59-8.58-13.52-12.36-3.94-3.79-8.91-8.85-14.91-15.18-6.01-6.33-11.31-12.15-15.91-17.46-4.6-5.31-9.67-11.38-15.21-18.2-5.54-6.83-12.57-16.17-21.1-28.05-8.53-11.87-15.16-21.3-19.89-28.27-4.73-6.98-10.22-15.82-16.45-26.53-6.24-10.71-12.17-21.42-17.79-32.13"/>
</svg>