<?xml version="1.0" encoding="UTF-8"?>
<svg id="Layer_1" data-name="Layer 1" xmlns="http://www.w3.org/2000/svg" width="234.72" height="212.93" viewBox="0 0 234.72 212.93">
  <defs>
    <style>
      .cls-1 {
        fill: none;
        stroke: #ff9adf;
        stroke-linecap: round;
        stroke-linejoin: round;
        stroke-width: 8.43px;
      }
    </style>
  </defs>
  <path id="STROKE_e70bb51a-76c8-4478-98c9-465b3447eb23" data-name="STROKE e70bb51a-76c8-4478-98c9-465b3447eb23" class="cls-1" d="M194.74,47.61l-.98-.16c-.22-.1-.79-.47-1.71-1.12s-2.01-1.46-3.27-2.45c-1.26-.99-4.96-4.9-11.1-11.75-6.14-6.85-12.17-14.16-18.08-21.92-5.91-7.77-10.24-13.56-12.97-17.38-2.73-3.83-5.21-7.32-7.42-10.49-2.21-3.17-6.79-9.61-13.74-19.34-6.95-9.73-11.49-16.1-13.61-19.13s-4.85-6.95-8.16-11.77c-3.32-4.82-5.84-8.52-7.57-11.09-1.73-2.57-4.65-6.99-8.76-13.26-4.11-6.27-7.38-11.29-9.8-15.07-2.42-3.78-5.61-9.46-9.57-17.04-3.96-7.58-6.87-13.4-8.72-17.46-1.85-4.06-3.52-7.91-5-11.57-1.49-3.66-3.2-8.15-5.15-13.49-1.95-5.33-3.49-9.72-4.61-13.17-1.12-3.44-2.11-6.59-2.95-9.44-.84-2.85-1.53-5.69-2.06-8.51-.53-2.82-.81-5.41-.85-7.76-.04-2.36.11-4.3.44-5.83.33-1.53.78-2.82,1.34-3.87.56-1.05,1.26-1.97,2.11-2.78.85-.81,1.91-1.45,3.18-1.94,1.27-.49,2.62-.79,4.05-.93,1.43-.13,2.84-.1,4.22.11,1.38.21,3.18.63,5.37,1.29,2.2.65,4.51,1.49,6.93,2.51,2.42,1.02,5.57,2.61,9.46,4.76,3.89,2.15,7.22,4.09,9.99,5.84,2.77,1.74,6.16,3.94,10.17,6.58,4.01,2.65,10.4,7.19,19.15,13.63,8.75,6.44,16.27,12.29,22.55,17.55,6.28,5.26,11.5,9.75,15.64,13.46,4.14,3.71,7.45,6.72,9.93,9.03,2.48,2.31,8,7.66,16.55,16.06,8.55,8.4,16.95,16.96,25.19,25.68,8.24,8.73,14.52,15.48,18.86,20.26,4.34,4.78,10.16,11.23,17.48,19.36,7.32,8.12,14.77,16.61,22.37,25.47,7.6,8.86,13.32,15.62,17.18,20.29,3.86,4.67,8.28,10.06,13.28,16.17,5,6.11,9.15,11.23,12.46,15.37,3.31,4.14,6.06,7.61,8.26,10.42,2.2,2.81,4.3,5.52,6.29,8.13,2,2.61,4.35,5.69,7.05,9.25,2.7,3.55,7.48,10.32,14.35,20.29,6.87,9.97,11.85,17.88,14.96,23.73,3.1,5.84,5.33,11.24,6.69,16.2,1.36,4.96,1.96,8.07,1.82,9.33-.14,1.26-.33,2.16-.55,2.71-.23.54-.47.99-.72,1.34-.26.35-.67.74-1.25,1.19s-1.08.75-1.5.93c-.42.18-.87.31-1.33.41-.46.09-1.07.15-1.81.18-.75.03-1.47,0-2.17-.06-.7-.07-1.48-.2-2.33-.39-.86-.19-2.56-.79-5.1-1.82-2.55-1.02-5.73-2.77-9.54-5.25-3.82-2.48-7.85-5.58-12.09-9.28-4.24-3.71-7.36-6.54-9.35-8.48s-4.05-4.04-6.2-6.27c-2.15-2.23-4.41-4.67-6.8-7.33-2.39-2.65-4.46-5.01-6.23-7.07-1.77-2.06-3.53-4.16-5.29-6.29-1.76-2.13-4.19-5.13-7.27-9-3.09-3.87-6.6-8.56-10.53-14.05-3.93-5.49-7.04-10.03-9.31-13.61-2.28-3.58-4.74-7.78-7.39-12.6-2.65-4.82-5.51-10.31-8.57-16.47"/>
  <path id="STROKE_6e040e7f-9396-46de-9bc7-781e0f66ac56" data-name="STROKE 6e040e7f-9396-46de-9bc7-781e0f66ac56" class="cls-1" d="M230.51,208.72c-1.98-.21-4.5-.72-7.55-1.54-3.05-.82-5.48-1.51-7.28-2.06-1.8-.55-4.44-1.45-7.9-2.7-3.46-1.25-8.96-3.65-16.49-7.19-7.53-3.54-16.95-8.68-28.24-15.4-11.3-6.72-19.92-12.05-25.88-15.98s-13.74-9.51-23.34-16.73c-9.6-7.23-17.79-13.6-24.56-19.12-6.77-5.52-16.42-14.59-28.93-27.19-12.52-12.6-21.69-22.19-27.51-28.78-5.83-6.59-9.94-11.44-12.35-14.55-2.41-3.12-4.13-5.44-5.17-6.97-1.04-1.53-2.59-4.08-4.64-7.66-2.05-3.58-3.62-7.16-4.7-10.74-1.08-3.58-1.65-6.18-1.71-7.79-.06-1.62.02-3.13.25-4.55.23-1.42.65-2.77,1.28-4.06.63-1.29,1.89-2.79,3.79-4.49,1.9-1.71,3.58-2.94,5.04-3.7s2.49-1.25,3.09-1.47c.6-.22,1.55-.48,2.83-.79s3.2-.6,5.74-.86c2.55-.26,5.92-.22,10.11.13,4.19.35,7.38.77,9.55,1.26,2.18.49,5.33,1.46,9.45,2.9,4.13,1.44,7.04,2.54,8.73,3.33,1.7.78,3.81,1.79,6.35,3.02s7.12,4.11,13.74,8.65c6.62,4.53,11.65,8.28,15.09,11.23,3.44,2.95,5.77,4.99,7.01,6.12,1.24,1.13,3.32,3.19,6.25,6.18,2.92,2.99,6.4,6.71,10.43,11.18,4.03,4.46,8.43,9.76,13.2,15.89,4.77,6.13,8.41,11.35,10.92,15.66,2.51,4.31,4.47,8.44,5.89,12.37,1.42,3.94,2.24,7.27,2.46,9.99.22,2.73.21,4.79-.04,6.19-.24,1.4-.76,2.95-1.54,4.65-.78,1.7-2.03,3.33-3.74,4.88s-3.8,2.85-6.28,3.88-5.5,1.67-9.06,1.92c-3.56.25-7.03.08-10.39-.52-3.36-.6-6.64-1.48-9.84-2.65-3.2-1.17-6.34-2.55-9.44-4.13-3.1-1.58-7.48-4.28-13.14-8.1-5.67-3.82-11.31-8.3-16.92-13.46-5.62-5.15-11.38-11.08-17.29-17.77-5.91-6.69-12.42-14.62-19.52-23.77"/>
</svg>