<?xml version="1.0" encoding="UTF-8"?>
<svg id="Layer_1" data-name="Layer 1" xmlns="http://www.w3.org/2000/svg" width="134.31" height="136.02" viewBox="0 0 134.31 136.02">
  <defs>
    <style>
      .cls-1 {
        fill: none;
        stroke: #ff9adf;
        stroke-linecap: round;
        stroke-linejoin: round;
        stroke-width: 8.43px;
      }
    </style>
  </defs>
  <path id="STROKE_beb1763b-25a8-4e68-8862-3bc6e5452802" data-name="STROKE beb1763b-25a8-4e68-8862-3bc6e5452802" class="cls-1" d="M8.02,63.31c-.04-.31-.46-.88-1.25-1.74-1.33-3.82-2.12-7.48-2.38-10.99-.26-3.51-.23-6.67.1-9.47.32-2.8.94-5.76,1.84-8.87.9-3.12,2.04-5.99,3.42-8.63,1.38-2.64,3.06-5.11,5.04-7.4,1.98-2.3,4.03-4.17,6.14-5.61,2.11-1.44,4.6-2.77,7.46-3.98,2.87-1.22,7.19-1.97,12.96-2.27,5.78-.3,10.7-.1,14.76.59,4.06.69,8.19,1.84,12.39,3.46,4.2,1.62,8.16,3.56,11.88,5.82,3.72,2.26,7.21,4.71,10.45,7.34s7.2,6.69,11.89,12.15c4.69,5.46,8.96,11.68,12.83,18.67,3.87,6.99,6.64,12.61,8.32,16.88,1.68,4.26,3.08,8.6,4.21,13,1.13,4.4,1.79,8.5,1.97,12.3.18,3.8-.3,7.66-1.43,11.6-1.13,3.94-2.39,7.06-3.76,9.38-1.38,2.32-3.39,4.67-6.04,7.06-2.65,2.39-5.11,4.17-7.37,5.33-2.26,1.16-5.03,2.13-8.34,2.9-3.3.77-6.55,1.09-9.74.95-3.19-.14-7.49-1.11-12.9-2.94-5.42-1.82-9.74-3.71-12.98-5.66-3.24-1.95-6.61-4.38-10.12-7.29-3.51-2.91-7.35-6.88-11.51-11.91-4.16-5.04-7.83-10.56-11-16.58-3.17-6.02-5.5-11.36-6.97-16.02-1.48-4.66-2.31-9.67-2.48-15.03-.18-5.36.13-9.94.94-13.75.81-3.81,1.66-6.99,2.57-9.55.91-2.56,3.79-8.62,8.65-18.19"/>
</svg>