<?xml version="1.0" encoding="UTF-8"?>
<svg id="Layer_1" data-name="Layer 1" xmlns="http://www.w3.org/2000/svg" width="140.3" height="113.82" viewBox="0 0 140.3 113.82">
  <defs>
    <style>
      .cls-1 {
        fill: none;
        stroke: #ff9adf;
        stroke-linecap: round;
        stroke-linejoin: round;
        stroke-width: 8.43px;
      }
    </style>
  </defs>
  <path id="STROKE_cdfbb6ec-2063-45e5-8d04-66e91c18b755" data-name="STROKE cdfbb6ec-2063-45e5-8d04-66e91c18b755" class="cls-1" d="M61.73,78.88c-.23-.05-.39-.07-.47-.07-.08,0-.22-.09-.41-.26-.2-.17-.32-.36-.36-.57-.05-.21.44-.76,1.47-1.66,1.03-.9,3.69-2.41,7.98-4.53,4.29-2.12,8.23-3.85,11.82-5.21,3.59-1.36,6.98-2.65,10.18-3.86,3.2-1.22,5.61-2.18,7.23-2.88,1.62-.71,2.88-1.31,3.78-1.81.9-.5,1.5-.89,1.82-1.17.32-.27.62-.66.9-1.15.04-.07-.04-.21-.24-.43-.2-.22-.71-.48-1.53-.79-.81-.31-1.35-.48-1.6-.52-.25-.04-.92-.13-2.02-.28-1.1-.14-2.26-.27-3.48-.36-1.22-.1-2.67-.16-4.35-.18-1.68-.03-4-.02-6.97,0-2.96.03-6.58.19-10.83.48-4.26.29-7.37.59-9.35.91-1.97.32-3.54.65-4.71,1-1.17.35-2.13.74-2.9,1.18-.77.44-1.49,1.08-2.17,1.92l.05,1.62c.13.71.62,2.09,1.46,4.17.84,2.07,1.54,3.6,2.1,4.6.57,1,1.01,1.78,1.32,2.33s.76,1.31,1.35,2.26c.59.95,1.93,3.18,4.01,6.7,2.09,3.52,4.51,7.59,7.25,12.23,2.75,4.64,4.91,8.23,6.48,10.77,1.57,2.54,2.88,4.54,3.92,6.01,1.04,1.46,2.28,2.93,3.74,4.39-.06-.81-.33-1.95-.8-3.42-.47-1.47-1.53-3.67-3.19-6.6-1.65-2.93-4.9-7.82-9.73-14.67-4.83-6.85-8.65-12.2-11.46-16.05-2.81-3.86-5.43-7.44-7.85-10.74s-5.52-7.79-9.26-13.45c-3.75-5.66-6.7-10.85-8.87-15.56,0-.49,0-.75-.03-.8s-.11-.43-.26-1.16"/>
  <path id="STROKE_3d90de34-a093-4926-8ead-66c3eeb19e50" data-name="STROKE 3d90de34-a093-4926-8ead-66c3eeb19e50" class="cls-1" d="M136.08,95.01c-1.46-.94-3.39-2.09-5.79-3.45-2.4-1.36-3.79-2.13-4.17-2.32-.38-.19-.84-.42-1.37-.7s-2.21-1.07-5.03-2.37c-2.82-1.3-6.1-2.7-9.82-4.19-3.73-1.49-6.04-2.39-6.92-2.7-.88-.31-3.14-1.1-6.77-2.38-3.63-1.28-7.61-2.66-11.94-4.13-4.33-1.47-7.85-2.59-10.56-3.34-2.71-.76-5.18-1.36-7.42-1.81-2.24-.45-3.75-.73-4.55-.84-.79-.1-2.12-.22-3.97-.34-1.86-.13-3.71-.18-5.57-.15-1.86.03-2.99.06-3.42.08-.42.03-1.77.15-4.04.36-2.27.21-5.38.73-9.31,1.56-3.93.83-7.85,2.03-11.77,3.6-3.91,1.57-7.3,3.26-10.14,5.07-2.85,1.8-4.67,3.08-5.47,3.83-.8.75-1.55,1.62-2.25,2.61-.7.99-1.1,1.6-1.19,1.83-.1.23-.18.63-.24,1.2.14.37.27.6.37.69.1.09.32.19.65.31.33.12.7.18,1.11.2.41.02,1.26-.12,2.55-.42,1.28-.3,2.2-.56,2.74-.78.54-.22,1.57-.75,3.08-1.6,1.51-.85,3.08-1.87,4.71-3.06,1.63-1.19,2.47-1.79,2.52-1.82.05-.03,1.2-1.11,3.44-3.23,2.24-2.13,4.48-4.57,6.71-7.33,2.23-2.76,3.51-4.36,3.83-4.8.32-.44,1.42-1.96,3.28-4.57,1.86-2.6,3.48-4.94,4.86-7,1.37-2.06,3.05-4.74,5.03-8.04,1.98-3.3,3.38-5.62,4.19-6.97.81-1.34,1.54-2.55,2.18-3.62.64-1.07,1.83-2.92,3.56-5.56,1.73-2.63,3.35-5.02,4.87-7.16,1.52-2.14,2.31-3.26,2.37-3.36.06-.1.63-.84,1.7-2.23,1.07-1.39,1.92-2.45,2.54-3.19.63-.74,1.33-1.55,2.1-2.44s1.46-1.64,2.06-2.25c.6-.61,1.07-1.09,1.42-1.45.35-.36.92-.84,1.7-1.44.79-.61,1.22-.92,1.31-.95.09-.03.19-.08.31-.14.12-.06.23-.01.33.15.1.16.19.43.26.8.08.37.11.72.11,1.06,0,.33-.09,1.33-.26,3-.17,1.67-.33,2.92-.46,3.75-.14.84-.58,2.9-1.33,6.2-.75,3.3-1.51,6.57-2.29,9.84-.78,3.26-1.66,6.75-2.66,10.47-.99,3.72-1.83,6.68-2.51,8.88-.68,2.2-1.48,4.56-2.41,7.08-.93,2.52-1.6,4.31-2.02,5.39-.42,1.07-1.03,2.51-1.8,4.31-.78,1.8-1.65,3.75-2.63,5.86-.97,2.11-1.95,4.54-2.94,7.27-.98,2.74-1.67,4.84-2.05,6.29s-.74,2.99-1.06,4.6c-.32,1.62-.56,3.17-.72,4.66-.16,1.49-.23,3.12-.21,4.89.02,1.76.08,2.94.18,3.54.1.6.16,1.01.2,1.22.03.22.19.74.47,1.56.28.82.61,1.52,1,2.1.39.58.73.99,1.04,1.22.3.23.67.45,1.11.65.44.2.86.32,1.27.36.41.04.67.07.79.08.12.01.46-.06,1.03-.21.57-.16,1.12-.4,1.64-.72.53-.33,1.07-.79,1.64-1.4.57-.61,1.06-1.25,1.49-1.94.42-.69.87-1.57,1.33-2.64.46-1.07,1.02-3.54,1.67-7.41.65-3.87.98-6.61.99-8.23.01-1.62,0-2.63,0-3.03-.01-.4-.07-1.11-.16-2.11-.1-1.01-.23-1.99-.39-2.94-.16-.96-.35-1.85-.58-2.69-.23-.84-.54-1.79-.94-2.86-.4-1.07-.82-1.96-1.28-2.66-.45-.7-.85-1.19-1.19-1.46-.34-.27-.61-.42-.79-.45-.19-.03-.38-.03-.56.01-.19.04-.36.1-.52.19-.16.09-.41.39-.75.9-.34.51-.67,1.37-.98,2.59-.31,1.22-.49,2.39-.53,3.51s-.02,2.25.07,3.38c.09,1.13.2,2.09.34,2.89.14.79.48,2.18,1,4.15.52,1.97.92,3.34,1.21,4.09.28.76.85,2,1.69,3.72.84,1.72,2.03,3.63,3.57,5.73,1.53,2.1,3.09,3.84,4.66,5.24,1.57,1.4,2.75,2.33,3.53,2.79.78.46,1.54.83,2.28,1.11.74.28,1.62.47,2.64.54,1.02.08,1.71.07,2.09-.01.38-.09.67-.17.88-.25.21-.08.43-.2.67-.35.24-.15.51-.42.81-.8.31-.39.52-.7.64-.93.12-.23.33-1.01.62-2.32.29-1.31.17-3.72-.38-7.21-.55-3.49-1.76-7.34-3.64-11.53-1.88-4.2-4.07-8.11-6.55-11.75-2.48-3.64-4.9-6.77-7.26-9.4-2.36-2.63-5.01-5.38-7.94-8.24s-5.44-5.22-7.52-7.07c-2.07-1.85-4.41-3.86-7.02-6.02-2.6-2.16-5.36-4.31-8.27-6.45-2.91-2.14-5.15-3.73-6.71-4.75-1.56-1.03-2.75-1.81-3.55-2.35-.81-.53-2.62-1.56-5.44-3.06-2.82-1.51-4.84-2.54-6.06-3.09-1.22-.56-2.17-.98-2.86-1.26-.69-.29-1.78-.7-3.26-1.24-1.48-.54-2.92-1.06-4.33-1.55-1.4-.49-2.68-.95-3.81-1.39"/>
</svg>