<?xml version="1.0" encoding="UTF-8"?>
<svg id="Layer_1" data-name="Layer 1" xmlns="http://www.w3.org/2000/svg" width="517.21" height="302.41" viewBox="0 0 517.21 302.41">
  <defs>
    <style>
      .cls-1 {
        fill: none;
        stroke: #ff9adf;
        stroke-linecap: round;
        stroke-linejoin: round;
        stroke-width: 8.43px;
      }
    </style>
  </defs>
  <path id="STROKE_39ddd139-a537-4dbf-9e25-b1bd310905d6" data-name="STROKE 39ddd139-a537-4dbf-9e25-b1bd310905d6" class="cls-1" d="M614.7,123.86c-1.04,1.45-1.82,2.42-2.35,2.91-.53.49-.97.84-1.34,1.05-.36.21-.9.41-1.62.58-.71.17-1.51.21-2.38.1-.87-.11-2.88-.75-6.03-1.94-3.15-1.19-6.24-2.64-9.28-4.35s-6.26-3.67-9.66-5.88c-3.4-2.21-6.08-3.98-8.05-5.32-1.97-1.34-3.6-2.44-4.88-3.29-1.28-.85-6.85-4.69-16.7-11.51-9.85-6.83-17.71-12.38-23.58-16.65-5.87-4.28-10.3-7.54-13.3-9.78s-6.09-4.57-9.28-6.97c-3.19-2.4-8-6.03-14.45-10.86-6.44-4.84-11.86-8.95-16.24-12.34-4.38-3.39-13.18-10.31-26.4-20.78-13.22-10.47-26.07-20.76-38.56-30.87-12.49-10.11-23.25-19.11-32.3-26.98-9.04-7.88-16.39-14.32-22.03-19.34-5.64-5.02-13.54-12.19-23.71-21.51-10.16-9.33-20.07-18.73-29.71-28.21-9.64-9.48-16.82-16.58-21.53-21.29-4.71-4.71-10.59-10.76-17.62-18.15-7.03-7.39-12.35-13.04-15.95-16.96-3.6-3.92-9.25-10.13-16.94-18.65-7.69-8.52-15.59-17.42-23.7-26.71-8.11-9.29-15.97-18.85-23.58-28.68-7.61-9.83-13.03-17.23-16.25-22.17-3.22-4.95-5.44-8.65-6.67-11.1-1.22-2.45-2.13-4.32-2.71-5.61-.58-1.29-1.29-3.92-2.12-7.87-.84-3.96-1.1-7.14-.79-9.56.31-2.42.81-4.25,1.51-5.49.7-1.24,1.31-2.12,1.82-2.65.51-.52,1.04-.97,1.57-1.34.53-.37,1.42-.75,2.67-1.15,1.25-.4,2.79-.66,4.62-.78,1.83-.12,6.12.64,12.89,2.27,6.76,1.63,12.3,3.33,16.61,5.1,4.31,1.77,9.54,4.16,15.68,7.18,6.15,3.02,10.9,5.47,14.26,7.35,3.36,1.88,7.84,4.55,13.43,8.02,5.59,3.46,9.91,6.21,12.96,8.23,3.05,2.02,13.33,10.35,30.85,24.99,17.52,14.63,32.11,26.93,43.79,36.89s20.67,17.59,27,22.91c6.33,5.31,15.45,12.95,27.37,22.91,11.92,9.96,23.05,19.41,33.39,28.35s20.08,17.59,29.22,25.97c9.14,8.38,15.37,14.1,18.69,17.18,3.32,3.08,5.78,5.38,7.37,6.89,1.6,1.52,9.6,8.67,24,21.47,14.4,12.79,27.27,24.24,38.61,34.35,11.34,10.11,19.76,17.96,25.26,23.55,5.51,5.59,9.94,10.78,13.31,15.56,3.37,4.78,5.55,8.42,6.54,10.91.99,2.49,1.56,4.61,1.71,6.35.15,1.74.05,3.21-.31,4.42-.35,1.21-.66,1.99-.92,2.35-.26.36-.56.77-.9,1.24-.34.47-1.13,1.15-2.35,2.04-1.22.89-3.25,1.64-6.09,2.24-2.84.6-5.38.91-7.64.92-2.26.02-5.36-.27-9.32-.84-3.95-.58-10.58-2.33-19.87-5.26-9.3-2.93-17.56-5.93-24.78-8.99-7.23-3.06-13.31-5.82-18.27-8.27-4.95-2.45-10.55-5.38-16.8-8.8-6.25-3.42-12.33-6.87-18.25-10.34-5.92-3.47-11.99-7.15-18.21-11.05-6.21-3.9-16.05-10.4-29.51-19.52-13.46-9.12-24.95-17.23-34.45-24.33-9.51-7.1-17.46-13.22-23.85-18.35s-13.74-11.21-22.03-18.24c-8.29-7.03-15.05-13.01-20.28-17.92-5.23-4.92-10.83-10.61-16.79-17.07-5.96-6.46-13.71-15.73-23.24-27.81"/>
  <path id="STROKE_2d54e969-be57-4386-ae3d-225bd9a2a3b3" data-name="STROKE 2d54e969-be57-4386-ae3d-225bd9a2a3b3" class="cls-1" d="M158.73,143.29c.55.64,3.89,3.25,10.02,7.83,6.13,4.58,10.9,8.03,14.31,10.34,3.41,2.32,11.12,6.49,23.14,12.53,12.02,6.04,22.09,10.77,30.2,14.2,8.12,3.43,18.19,7.51,30.22,12.23,12.03,4.72,24.44,9.4,37.23,14.02,12.79,4.62,21.17,7.61,25.15,8.96,3.98,1.35,8.32,2.77,13.02,4.25,4.71,1.48,10.01,3.06,15.92,4.74,5.91,1.68,14.65,4.05,26.24,7.12,11.59,3.07,19.8,5.23,24.65,6.47,4.85,1.25,12.23,3.03,22.16,5.34,9.93,2.31,19.81,4.19,29.65,5.64,9.83,1.45,17.34,2.22,22.51,2.31,5.17.09,9.05-.02,11.64-.32,2.59-.3,5.29-.95,8.12-1.95,2.83-1,4.78-1.92,5.85-2.75,1.07-.84,1.98-1.75,2.72-2.73.74-.99,1.22-2.25,1.43-3.78.21-1.53-.01-3.4-.68-5.6-.67-2.2-2.53-5.28-5.58-9.23-3.05-3.95-6.5-7.58-10.34-10.9s-9.32-7.41-16.43-12.28c-7.12-4.87-17.58-11.05-31.39-18.56-13.81-7.51-26.56-14.04-38.24-19.6-11.68-5.56-31.33-14.53-58.95-26.91-27.62-12.38-48.44-21.79-62.48-28.24-14.04-6.45-24.29-11.19-30.77-14.23-6.48-3.04-11.31-5.31-14.51-6.81-3.19-1.5-10.89-5.25-23.1-11.25-12.21-6-25.82-12.75-40.84-20.26-15.02-7.51-29.77-14.3-44.24-20.39-14.48-6.08-26.05-10.66-34.74-13.72s-17.41-6.08-26.19-9.03c-8.78-2.95-15.48-5.18-20.09-6.68-4.62-1.5-11.08-3.39-19.4-5.67-8.32-2.28-14.38-3.58-18.19-3.89-3.81-.31-6.32-.35-7.54-.12-1.22.23-2.15.54-2.8.93-.65.39-1.11.73-1.37,1.03-.26.3-.48.78-.67,1.43s-.22,1.61-.09,2.89c.13,1.27.45,2.65.96,4.14.51,1.49,2.64,5,6.4,10.54,3.75,5.54,7.03,9.94,9.85,13.21,2.82,3.27,5,5.78,6.56,7.51,1.55,1.74,6.71,7.13,15.48,16.18,8.77,9.05,17.18,17.31,25.23,24.78,8.05,7.47,17.84,15.79,29.36,24.95,11.52,9.16,20.35,15.98,26.5,20.46,6.15,4.48,12.41,8.82,18.8,13.03,6.39,4.21,16.04,10.19,28.94,17.94,12.9,7.75,30.26,17.47,52.07,29.14,21.81,11.67,38.23,20.34,49.27,26.01s20.31,10.3,27.82,13.9c7.51,3.6,13.2,6.29,17.06,8.07,3.86,1.78,11.23,5.06,22.12,9.82,10.88,4.77,23.67,9.96,38.35,15.57,14.69,5.61,26.01,9.73,33.97,12.36,7.96,2.63,16.86,5.26,26.7,7.9,9.84,2.64,17.24,4.52,22.21,5.64,4.97,1.13,9.18,2.02,12.62,2.68,3.45.66,12.14,1.9,26.07,3.7"/>
  <path id="STROKE_46047bfb-175b-4e0d-94f0-5fb3883f46f1" data-name="STROKE 46047bfb-175b-4e0d-94f0-5fb3883f46f1" class="cls-1" d="M57.55,476.54c-.41-.04-1.21-.11-2.41-.23-.29-.16-1.25-.59-2.9-1.3-1.64-.71-5.91-3.29-12.82-7.75-6.9-4.46-12.28-8.2-16.12-11.22-3.84-3.02-7.35-5.84-10.52-8.48-3.18-2.64-4.99-4.14-5.43-4.5-.44-.36-2.82-2.47-7.13-6.33-4.32-3.86-11.89-11.07-22.71-21.61-10.82-10.54-20.02-19.85-27.6-27.93-7.58-8.08-13.27-14.26-17.09-18.54s-9.21-10.68-16.16-19.19c-6.95-8.51-12.09-14.94-15.43-19.29-3.34-4.35-6.44-8.46-9.3-12.32-2.87-3.86-7.51-10.52-13.94-19.98-6.43-9.46-11.88-17.84-16.37-25.12-4.49-7.29-8.75-14.71-12.79-22.26-4.04-7.56-7.02-13.46-8.95-17.73-1.93-4.26-3.91-9.56-5.95-15.88-2.03-6.32-3.41-11.14-4.13-14.44-.72-3.3-1.19-6.94-1.41-10.9-.22-3.96-.06-7.21.47-9.75.53-2.54,1.17-4.53,1.92-5.99.75-1.46,2.11-3.03,4.07-4.73s4.54-2.85,7.73-3.44c3.19-.6,6.1-.78,8.73-.56,2.63.23,6.51,1.07,11.64,2.51s9.39,2.84,12.76,4.19c3.37,1.35,6.38,2.63,9.03,3.85,2.65,1.22,7.6,3.79,14.85,7.7,7.26,3.91,13.54,7.54,18.85,10.89,5.31,3.34,11.48,7.5,18.52,12.46,7.03,4.96,14.14,10.19,21.32,15.67,7.18,5.49,12.74,9.86,16.7,13.12,3.95,3.26,8.78,7.46,14.48,12.61,5.7,5.15,10.16,9.25,13.38,12.31,3.22,3.06,8.35,8.27,15.38,15.63,7.04,7.36,12.98,13.85,17.83,19.46,4.85,5.62,8.48,9.87,10.87,12.77,2.39,2.89,5.02,6.11,7.89,9.65,2.87,3.54,6.32,7.91,10.37,13.1,4.05,5.2,7.15,9.21,9.31,12.02,2.16,2.81,5.92,7.92,11.27,15.32,5.35,7.4,9.43,13.15,12.21,17.27,2.79,4.11,6.7,10.29,11.74,18.53,5.04,8.24,9.06,15.2,12.06,20.86,3,5.67,5.19,9.91,6.56,12.73,1.37,2.82,3.12,6.99,5.23,12.52,2.11,5.53,3.62,9.99,4.54,13.39.92,3.4,1.66,6.81,2.24,10.24.57,3.43.98,6.89,1.2,10.37.23,3.49.21,7-.06,10.54-.26,3.54-.89,7.09-1.87,10.66-.98,3.57-2.31,6.73-3.98,9.48-1.67,2.75-3.82,5.22-6.47,7.41-2.64,2.19-5.62,3.91-8.92,5.18-3.3,1.27-6.48,2.09-9.54,2.48-3.06.39-6.5.49-10.32.29-3.82-.2-6.68-.43-8.57-.69-1.89-.26-5.93-1.1-12.1-2.51-6.17-1.41-11.98-3.02-17.43-4.84-5.44-1.82-9.56-3.25-12.34-4.3-2.78-1.05-7.36-2.95-13.74-5.7s-11.12-4.86-14.23-6.32c-3.11-1.46-7.19-3.4-12.25-5.81s-13.06-6.64-24.02-12.7c-10.96-6.06-19.63-11.08-26-15.07-6.38-3.99-11.78-7.48-16.21-10.46-4.42-2.98-9.82-6.66-16.19-11.04-6.37-4.38-11.98-8.33-16.84-11.87-4.86-3.53-8.67-6.38-11.43-8.53-2.76-2.16-5.38-4.2-7.83-6.14-2.46-1.94-7.52-6.1-15.2-12.48-7.67-6.38-13.77-11.59-18.28-15.63-4.51-4.04-11.55-10.85-21.11-20.42-9.56-9.57-16.73-16.92-21.5-22.04-4.77-5.13-9.06-9.94-12.86-14.44-3.8-4.5-7.11-8.58-9.92-12.22-2.81-3.65-5.67-7.54-8.56-11.69s-6.1-9.26-9.62-15.34c-3.52-6.08-6.2-11.33-8.04-15.75-1.85-4.42-3.17-8.29-3.96-11.61-.79-3.33-1.23-6.77-1.29-10.32-.07-3.56.15-6.35.67-8.38.51-2.03,1.3-3.95,2.37-5.74,1.07-1.8,2.16-3.2,3.27-4.2,1.11-1,2.32-1.84,3.61-2.51,1.3-.68,2.37-1.12,3.21-1.34.84-.22,2.19-.4,4.03-.54,1.84-.14,4.59.1,8.23.74,3.65.63,6.66,1.37,9.05,2.21,2.39.84,5.74,2.27,10.07,4.28,4.32,2.01,8.74,4.22,13.24,6.63,4.5,2.41,10.83,5.96,18.98,10.65"/>
</svg>