<?xml version="1.0" encoding="UTF-8"?>
<svg id="Layer_1" data-name="Layer 1" xmlns="http://www.w3.org/2000/svg" width="156.07" height="107.61" viewBox="0 0 156.07 107.61">
  <defs>
    <style>
      .cls-1 {
        fill: none;
        stroke: #ff9adf;
        stroke-linecap: round;
        stroke-linejoin: round;
        stroke-width: 8.43px;
      }
    </style>
  </defs>
  <path id="STROKE_23f62bfc-2697-4306-8072-b8a5e67f5fc1" data-name="STROKE 23f62bfc-2697-4306-8072-b8a5e67f5fc1" class="cls-1" d="M65.89,60l.86-.17c.67-.18,3.66-.7,8.98-1.55,5.32-.86,10.65-1.62,15.97-2.3,5.32-.68,9.63-1.21,12.91-1.59,3.28-.38,5.71-.67,7.26-.85,1.56-.18,3.76-.5,6.61-.95,2.85-.45,4.84-.84,5.97-1.17s1.97-.65,2.52-.96c.55-.31.92-.62,1.13-.92l-.04-.24c-.1-.18-.26-.37-.49-.58-.23-.21-.67-.51-1.34-.89-.67-.38-1.48-.77-2.46-1.19-.97-.42-2.91-1.13-5.82-2.14-2.91-1.01-6.62-2.3-11.12-3.86-4.51-1.56-7.95-2.82-10.32-3.79-2.37-.97-4.55-1.93-6.53-2.9-1.98-.97-3.56-1.8-4.74-2.49-1.18-.69-2.32-1.42-3.42-2.18-1.09-.76-2.11-1.62-3.04-2.57-.93-.95-1.63-1.93-2.1-2.95-.46-1.02-.7-1.77-.71-2.25,0-.48.07-.93.24-1.36.17-.43.33-.78.48-1.04.15-.26.3-.5.43-.72.13-.22.78-.88,1.93-1.98,1.15-1.1,2.16-1.95,3.02-2.56s1.48-1.03,1.86-1.27c.38-.24,2.75-1.51,7.12-3.81,4.37-2.3,6.95-3.58,7.72-3.83.77-.25,1.57-.44,2.4-.56.83-.12,1.49-.18,1.98-.16.49.02,1,.12,1.51.29.52.17,1.02.44,1.5.79s.98.87,1.48,1.55c.5.68.92,1.4,1.25,2.15.33.75.64,1.79.92,3.1s.48,3.01.59,5.09c.11,2.07.14,4.11.09,6.1-.05,1.99-.12,4.2-.21,6.61-.09,2.41-.14,5.84-.16,10.29-.01,4.45,0,7.93.03,10.46.03,2.53.04,4.26,0,5.19-.03.93-.13,1.91-.29,2.95-.17,1.04-.3,1.67-.41,1.89-.11.22-.19.36-.27.42s-.29.06-.67,0c-.37-.05-.89-.3-1.55-.74-.66-.44-1.5-1.22-2.52-2.33-1.02-1.11-1.98-2.3-2.89-3.58-.91-1.28-1.42-2-1.53-2.17-.11-.16-.81-1.34-2.1-3.53-1.29-2.19-2.33-4.28-3.12-6.25-.79-1.98-1.24-3.64-1.36-4.98-.12-1.34-.14-2.19-.08-2.56.07-.37.18-.75.34-1.14.16-.39.33-.7.5-.91.17-.21.33-.38.47-.5.14-.12.36-.25.66-.39.3-.14.57-.22.8-.26.24-.03.43-.05.58-.04.15,0,.63.13,1.45.35.81.23,1.61.53,2.38.92s1.37.71,1.81.98c.44.27,1.04.72,1.8,1.34.76.62,1.49,1.29,2.2,2.01.71.72,1.29,1.36,1.75,1.91.46.55.78.97.95,1.24.17.27.33.53.47.78s.36.66.65,1.22c.3.56.74,1.48,1.33,2.76.59,1.28,1.01,2.22,1.27,2.82.26.6.51,1.2.75,1.81.25.61.57,1.45.97,2.52.4,1.07.83,2.11,1.29,3.1.46,1,.96,1.99,1.48,2.96.53.97.96,1.74,1.29,2.31.33.56.79,1.31,1.36,2.25.58.94,1.31,2.23,2.19,3.87.88,1.65,1.42,2.68,1.6,3.1.18.42.41,1.04.68,1.85.27.81.46,1.53.58,2.15.12.62.19,1.25.22,1.87.03.63.03,1.14,0,1.54-.02.4-.03.63-.03.7,0,.07-.28,1.03-.84,2.88-.56,1.85-1.53,3.75-2.9,5.69-1.37,1.94-2.49,3.35-3.37,4.23-.88.88-2.48,2.14-4.81,3.8-2.33,1.66-4.88,3.13-7.66,4.42-2.78,1.29-5.42,2.28-7.93,2.98-2.51.69-5.15,1.11-7.93,1.25-2.78.14-5.23.03-7.35-.33-2.12-.36-4.17-.95-6.14-1.78-1.97-.83-3.84-1.92-5.62-3.28-1.78-1.36-3.24-2.81-4.38-4.35-1.14-1.55-2.02-3.12-2.63-4.72-.61-1.6-.99-3.14-1.11-4.64-.13-1.49,0-3.27.4-5.33.39-2.06,1.08-4.15,2.08-6.24.99-2.1,1.96-3.84,2.91-5.22.95-1.38,1.88-2.61,2.82-3.7.93-1.08,1.88-2.1,2.86-3.04.97-.94,2.27-2.03,3.89-3.27,1.62-1.24,3.37-2.45,5.23-3.64,1.86-1.19,3.34-2.1,4.44-2.74,1.1-.64,2-1.16,2.7-1.56.7-.4,1.89-1.07,3.57-2.03,1.68-.96,4.6-2.73,8.78-5.32,4.17-2.59,7.37-4.64,9.6-6.15,2.23-1.51,4.33-2.97,6.31-4.39,1.98-1.41,3.76-2.79,5.34-4.13,1.58-1.34,3.17-2.84,4.79-4.52,1.62-1.67,3-3.17,4.13-4.48,1.14-1.32,2.01-2.34,2.63-3.06.62-.72,1.13-1.31,1.53-1.77.41-.46.86-.95,1.36-1.49.5-.54,1.26-1.24,2.29-2.11,1.03-.87,1.75-1.43,2.16-1.69.41-.26.83-.46,1.26-.6.43-.15.76-.23.99-.26.24-.03.49-.01.74.05.26.06.59.28.99.67.4.39.76.95,1.08,1.7.32.74.64,2.2.95,4.36.32,2.16.54,4,.66,5.51.13,1.51.22,2.6.29,3.28.07.68.38,3.69.93,9.05.55,5.36.93,9.51,1.15,12.47.22,2.96.36,5.37.44,7.24.07,1.87.05,3.78-.08,5.75-.13,1.97-.38,3.58-.74,4.84-.36,1.25-.73,2.23-1.1,2.92-.37.69-.79,1.32-1.25,1.89-.46.57-1.15,1.17-2.08,1.82-.92.65-2.06,1.17-3.41,1.58-1.35.4-3.06.65-5.14.73-2.07.09-5.39-.28-9.95-1.12-4.56-.83-8.07-1.57-10.53-2.22-2.46-.65-4.91-1.34-7.37-2.07-2.46-.73-5.24-1.63-8.34-2.69-3.1-1.06-5.5-1.91-7.2-2.53-1.7-.62-5.03-1.93-10.01-3.93-4.97-2-9.74-4.03-14.31-6.1-4.57-2.06-8.35-3.83-11.36-5.3-3.01-1.47-6.91-3.66-11.71-6.57-4.8-2.91-8.94-5.59-12.42-8.02-3.48-2.43-6.97-4.83-10.48-7.18-3.51-2.35-6.06-3.98-7.64-4.88-1.59-.91-3.02-1.63-4.29-2.17s-2.3-.91-3.08-1.1c-.78-.2-1.4-.31-1.87-.35-.47-.04-.81-.06-1.03-.08-.21-.01-.43,0-.65.02-.22.03-.74.12-1.58.26"/>
</svg>