<?xml version="1.0" encoding="UTF-8"?>
<svg id="Layer_1" data-name="Layer 1" xmlns="http://www.w3.org/2000/svg" width="225.44" height="212.84" viewBox="0 0 225.44 212.84">
  <defs>
    <style>
      .cls-1 {
        fill: none;
        stroke: #ff9adf;
        stroke-linecap: round;
        stroke-linejoin: round;
        stroke-width: 8.43px;
      }
    </style>
  </defs>
  <path id="STROKE_5951a5d6-a0d5-41b0-8483-3ae6a811d4d1" data-name="STROKE 5951a5d6-a0d5-41b0-8483-3ae6a811d4d1" class="cls-1" d="M177.79,208.62c-.6-.23-6.23-3.39-16.9-9.48-10.67-6.1-21-12.7-31-19.81-9.99-7.11-19.7-14.36-29.13-21.76-9.43-7.4-15.43-12.19-18.01-14.37-2.58-2.18-6.25-5.37-11.02-9.57-4.77-4.19-9.16-8.06-13.16-11.6-4-3.54-9.98-9.39-17.93-17.56-7.95-8.17-14.24-15.43-18.88-21.81-4.64-6.37-8.36-12.48-11.16-18.31s-4.66-11.88-5.56-18.14c-.9-6.26-1.06-10.62-.48-13.1.58-2.47,1.73-5.08,3.44-7.82,1.72-2.74,3.73-5.11,6.04-7.1,2.31-1.99,4.56-3.64,6.76-4.94,2.2-1.3,4.31-2.37,6.33-3.22,2.02-.85,4.72-1.75,8.08-2.68,3.37-.94,7.36-1.71,11.99-2.32,4.63-.61,10.39-.89,17.27-.83,6.88.06,14.71.82,23.48,2.29,8.77,1.47,15.86,3.14,21.29,5.02,5.42,1.87,9.61,3.45,12.57,4.74,2.95,1.28,8.75,5.19,17.39,11.73,8.64,6.53,15.76,12.81,21.35,18.81,5.59,6.01,10.11,11.16,13.55,15.45,3.44,4.29,6.91,9.03,10.4,14.21,3.49,5.18,6.59,9.93,9.31,14.26,2.72,4.32,6.63,12.37,11.74,24.13,5.1,11.76,8.6,20.75,10.51,26.96,1.9,6.21,3.35,12.87,4.35,19.99.99,7.12,1.08,13.58.27,19.4-.81,5.82-1.95,10.04-3.42,12.67s-3.39,4.97-5.77,7.03c-2.38,2.05-4.56,3.55-6.54,4.49-1.98.94-5.67,1.46-11.06,1.56-5.39.1-9.86-.28-13.4-1.13-3.54-.85-9.42-3.14-17.64-6.89-8.22-3.75-18.23-10.11-30.06-19.1s-38.02-35.57-78.59-79.75"/>
</svg>