<?xml version="1.0" encoding="UTF-8"?>
<svg id="Layer_1" data-name="Layer 1" xmlns="http://www.w3.org/2000/svg" width="293.57" height="328.05" viewBox="0 0 293.57 328.05">
  <defs>
    <style>
      .cls-1 {
        fill: none;
        stroke: #ff9adf;
        stroke-linecap: round;
        stroke-linejoin: round;
        stroke-width: 8.43px;
      }
    </style>
  </defs>
  <path id="STROKE_26331ed1-626c-4ff6-98c9-2889bd90e49e" data-name="STROKE 26331ed1-626c-4ff6-98c9-2889bd90e49e" class="cls-1" d="M222.52,285.46c-.07.05-.04.03.07-.07.11-.1.13-.09.05.02s-.54.52-1.38,1.23c-.94-.46-1.35-.64-1.25-.52.2.21-1.78-1.21-5.95-4.24-4.16-3.03-7.64-5.75-10.43-8.14-2.79-2.4-4.86-4.17-6.2-5.33-1.34-1.16-3.56-3.21-6.65-6.16-3.09-2.95-8.53-8.14-16.31-15.55-7.78-7.42-14.51-13.83-20.19-19.23s-11.38-11.07-17.11-16.98c-5.72-5.92-10.18-10.46-13.39-13.63-3.2-3.17-5.7-5.7-7.5-7.58-1.8-1.88-4.39-4.57-7.77-8.07-3.37-3.49-9.01-9.47-16.92-17.93-7.9-8.46-15.44-16.91-22.62-25.35-7.18-8.44-12.35-14.71-15.53-18.8-3.17-4.09-5.51-7.17-7.01-9.23-1.5-2.07-4.05-5.56-7.66-10.48-3.61-4.92-7.37-10.75-11.29-17.48-3.92-6.73-6.84-11.93-8.76-15.61-1.92-3.67-3.74-7.17-5.47-10.49-1.73-3.32-3.42-7.5-5.07-12.55-1.66-5.04-2.76-9.41-3.3-13.12-.55-3.7-.77-6.58-.67-8.62.1-2.04.32-3.9.64-5.56.32-1.66.89-3.35,1.71-5.07.82-1.72,1.81-3.09,2.97-4.11s2.17-1.7,3.04-2.02,1.45-.5,1.75-.51c.29-.02,1.15-.04,2.55-.06,1.41-.02,4.33.76,8.76,2.34s8.71,3.43,12.82,5.53c4.11,2.1,9.66,5.71,16.64,10.82,6.98,5.11,14.73,11.81,23.25,20.1,8.52,8.3,15.32,15.02,20.4,20.19,5.08,5.16,9.54,9.66,13.38,13.49,3.84,3.83,6.74,6.83,8.69,8.99,1.95,2.16,4.09,4.39,6.41,6.71s5.29,5.35,8.89,9.1c3.61,3.75,6.31,6.53,8.12,8.33,1.81,1.8,6.5,6.56,14.08,14.27,7.58,7.71,13.45,13.76,17.58,18.15,4.14,4.39,8.43,8.95,12.88,13.69,4.45,4.74,8.02,8.48,10.71,11.23,2.69,2.74,5.17,5.32,7.44,7.72,2.26,2.4,4.15,4.43,5.65,6.09,1.5,1.65,3.69,4.16,6.56,7.52,2.87,3.36,6.01,7.04,9.42,11.04,3.4,4,7.68,9.29,12.82,15.87,5.15,6.58,10.15,13.23,15.01,19.96,4.86,6.72,8.87,12.74,12.03,18.06,3.16,5.32,5.78,9.82,7.84,13.51,2.07,3.69,4.02,7.62,5.88,11.8,1.85,4.18,3.24,7.59,4.17,10.23.93,2.64,1.64,5.34,2.15,8.09.5,2.75.79,5.27.87,7.57.07,2.3-.03,4.4-.3,6.31-.27,1.91-.86,3.66-1.75,5.25-.9,1.59-1.59,2.61-2.09,3.06-.5.45-1.24,1.18-2.22,2.18-.98,1-2.7,1.69-5.17,2.07-2.47.38-4.44.46-5.92.25-1.48-.21-2.62-.39-3.4-.55-.78-.16-1.55-.34-2.31-.56-.76-.21-1.9-.51-3.42-.88-1.53-.37-4.53-1.51-9.02-3.4-4.49-1.9-8.67-3.93-12.56-6.1-3.89-2.17-7.29-4.19-10.21-6.07s-7.33-4.79-13.22-8.74c-5.89-3.95-10.66-7.37-14.31-10.27-3.65-2.9-6.59-5.26-8.82-7.09-2.22-1.82-5.16-4.24-8.81-7.26-3.65-3.02-7.15-5.9-10.5-8.66-3.35-2.75-7.17-6.1-11.47-10.04-4.3-3.94-8.24-7.7-11.84-11.28-3.6-3.58-8.28-8.27-14.05-14.07-5.76-5.8-11.78-12.19-18.05-19.17-6.27-6.98-11.64-13.16-16.1-18.55-4.46-5.39-7.92-9.48-10.37-12.26s-6.53-7.6-12.25-14.43c-5.71-6.83-13.63-17-23.74-30.49"/>
  <path id="STROKE_326932b0-1b28-43f1-a553-61f2e84d0d63" data-name="STROKE 326932b0-1b28-43f1-a553-61f2e84d0d63" class="cls-1" d="M165.82-97.56l1.12,3.38c.17.92,1.17,3.1,3.01,6.53s3.49,6.18,4.95,8.26c1.46,2.07,2.92,4.04,4.37,5.91,1.45,1.86,4.96,5.7,10.52,11.52,5.56,5.81,10.3,10.54,14.22,14.19,3.92,3.64,7.2,6.66,9.84,9.04,2.64,2.38,5.5,4.97,8.59,7.75,3.09,2.79,9.84,8.72,20.28,17.79,10.43,9.07,18.92,16.18,25.46,21.32,6.54,5.14,11.57,8.97,15.08,11.47,3.51,2.5,6.89,4.71,10.14,6.61,3.25,1.91,5.92,3.33,8.01,4.28,2.09.95,4.67,1.78,7.74,2.48,3.07.71,5.43,1,7.06.88,1.64-.12,3.01-.42,4.11-.89,1.1-.48,1.95-.98,2.56-1.51.6-.53,1.2-1.66,1.79-3.38s.93-3.16,1.02-4.31c.09-1.15-.64-4.38-2.17-9.69-1.54-5.31-3.46-10.08-5.76-14.33-2.31-4.25-6.71-10.97-13.22-20.17-6.51-9.2-12.04-16.62-16.6-22.26-4.56-5.64-9.35-11.3-14.38-16.98-5.03-5.68-9.18-10.26-12.47-13.74-3.29-3.47-5.88-6.19-7.76-8.15-1.89-1.96-5.1-5.23-9.64-9.8-4.54-4.57-9.59-9.64-15.17-15.21s-12.49-12.17-20.75-19.79c-8.26-7.63-15.9-14.21-22.93-19.75-7.03-5.54-12.36-9.51-16-11.9-3.64-2.39-7.68-4.68-12.13-6.86s-8.06-3.62-10.85-4.32c-2.79-.7-4.99-1.08-6.6-1.15-1.61-.07-3.11.06-4.5.4-1.39.34-2.52.73-3.4,1.18-.88.45-1.62.96-2.23,1.54-.61.58-1.04,1.11-1.28,1.59-.25.48-.52,1.06-.83,1.74-.3.68-.38,3.19-.24,7.51.14,4.33,2.02,10.5,5.62,18.52,3.6,8.02,7.12,14.62,10.55,19.81,3.43,5.19,6.51,9.68,9.24,13.49,2.73,3.81,8.21,10.86,16.45,21.16,8.24,10.3,15.23,18.67,20.99,25.11,5.76,6.44,12.29,13.16,19.61,20.16,7.31,7,16.18,14.84,26.61,23.53"/>
  <path id="STROKE_39ddd139-a537-4dbf-9e25-b1bd310905d6" data-name="STROKE 39ddd139-a537-4dbf-9e25-b1bd310905d6" class="cls-1" d="M140.45,599.89c-1.04,1.45-1.82,2.42-2.35,2.91-.53.49-.97.84-1.34,1.05-.36.21-.9.41-1.62.58-.71.17-1.51.21-2.38.1-.87-.11-2.88-.75-6.03-1.94-3.15-1.19-6.24-2.64-9.28-4.35s-6.26-3.67-9.66-5.88c-3.4-2.21-6.08-3.98-8.05-5.32-1.97-1.34-3.6-2.44-4.88-3.29-1.28-.85-6.85-4.69-16.7-11.51-9.85-6.83-17.71-12.38-23.58-16.65-5.87-4.28-10.3-7.54-13.3-9.78s-6.09-4.57-9.28-6.97c-3.19-2.4-8-6.03-14.45-10.86-6.44-4.84-11.86-8.95-16.24-12.34-4.38-3.39-13.18-10.31-26.4-20.78-13.22-10.47-26.07-20.76-38.56-30.87-12.49-10.11-23.25-19.11-32.3-26.98-9.04-7.88-16.39-14.32-22.03-19.34-5.64-5.02-13.54-12.19-23.71-21.51-10.16-9.33-20.07-18.73-29.71-28.21-9.64-9.48-16.82-16.58-21.53-21.29-4.71-4.71-10.59-10.76-17.62-18.15-7.03-7.39-12.35-13.04-15.95-16.96-3.6-3.92-9.25-10.13-16.94-18.65-7.69-8.52-15.59-17.42-23.7-26.71-8.11-9.29-15.97-18.85-23.58-28.68-7.61-9.83-13.03-17.23-16.25-22.17-3.22-4.95-5.44-8.65-6.67-11.1-1.22-2.45-2.13-4.32-2.71-5.61-.58-1.29-1.29-3.92-2.12-7.87-.84-3.96-1.1-7.14-.79-9.56.31-2.42.81-4.25,1.51-5.49.7-1.24,1.31-2.12,1.82-2.65.51-.52,1.04-.97,1.57-1.34.53-.37,1.42-.75,2.67-1.15,1.25-.4,2.79-.66,4.62-.78,1.83-.12,6.12.64,12.89,2.27,6.76,1.63,12.3,3.33,16.61,5.1,4.31,1.77,9.54,4.16,15.68,7.18,6.15,3.02,10.9,5.47,14.26,7.35,3.36,1.88,7.84,4.55,13.43,8.02,5.59,3.46,9.91,6.21,12.96,8.23,3.05,2.02,13.33,10.35,30.85,24.99,17.52,14.63,32.11,26.93,43.79,36.89s20.67,17.59,27,22.91c6.33,5.31,15.45,12.95,27.37,22.91,11.92,9.96,23.05,19.41,33.39,28.35s20.08,17.59,29.22,25.97c9.14,8.38,15.37,14.1,18.69,17.18,3.32,3.08,5.78,5.38,7.37,6.89,1.6,1.52,9.6,8.67,24,21.47,14.4,12.79,27.27,24.24,38.61,34.35,11.34,10.11,19.76,17.96,25.26,23.55,5.51,5.59,9.94,10.78,13.31,15.56,3.37,4.78,5.55,8.42,6.54,10.91.99,2.49,1.56,4.61,1.71,6.35.15,1.74.05,3.21-.31,4.42-.35,1.21-.66,1.99-.92,2.35-.26.36-.56.77-.9,1.24-.34.47-1.13,1.15-2.35,2.04-1.22.89-3.25,1.64-6.09,2.24-2.84.6-5.38.91-7.64.92-2.26.02-5.36-.27-9.32-.84-3.95-.58-10.58-2.33-19.87-5.26-9.3-2.93-17.56-5.93-24.78-8.99-7.23-3.06-13.31-5.82-18.27-8.27-4.95-2.45-10.55-5.38-16.8-8.8-6.25-3.42-12.33-6.87-18.25-10.34-5.92-3.47-11.99-7.15-18.21-11.05-6.21-3.9-16.05-10.4-29.51-19.52-13.46-9.12-24.95-17.23-34.45-24.33-9.51-7.1-17.46-13.22-23.85-18.35s-13.74-11.21-22.03-18.24c-8.29-7.03-15.05-13.01-20.28-17.92-5.23-4.92-10.83-10.61-16.79-17.07-5.96-6.46-13.71-15.73-23.24-27.81"/>
</svg>