<?xml version="1.0" encoding="UTF-8"?>
<svg id="Layer_1" data-name="Layer 1" xmlns="http://www.w3.org/2000/svg" width="479.88" height="306.13" viewBox="0 0 479.88 306.13">
  <defs>
    <style>
      .cls-1 {
        fill: none;
        stroke: #ff9adf;
        stroke-linecap: round;
        stroke-linejoin: round;
        stroke-width: 8.43px;
      }
    </style>
  </defs>
  <path id="STROKE_bcb3408a-7f95-4a9c-b775-b866b7b07580" data-name="STROKE bcb3408a-7f95-4a9c-b775-b866b7b07580" class="cls-1" d="M238.08,249.24c-.32.1-.96.26-1.92.49-.96.23-1.5.36-1.65.38-.14.03-.47.04-.99.04-.52,0-1.16-.07-1.93-.19-.77-.13-2.94-.75-6.51-1.87-3.57-1.12-6.91-2.44-10.01-3.95-3.1-1.51-5.77-2.89-8-4.15-2.23-1.26-4.51-2.59-6.81-3.98-2.31-1.39-4.91-3.02-7.82-4.89-2.9-1.86-5.43-3.52-7.59-4.98-2.15-1.46-6.19-4.28-12.12-8.47-5.93-4.19-11.08-7.91-15.46-11.16s-10.37-8.01-17.96-14.28-13.25-11.02-16.94-14.25c-3.69-3.23-7.88-6.98-12.56-11.25-4.68-4.27-9.34-8.67-13.97-13.17-4.63-4.51-10.46-10.56-17.5-18.15-7.04-7.59-12.14-13.19-15.31-16.8-3.16-3.62-6.24-7.18-9.21-10.69-2.98-3.51-6.37-7.79-10.19-12.85-3.82-5.06-6.59-8.84-8.31-11.35-1.72-2.51-3.7-5.62-5.94-9.32-2.24-3.71-4.27-7.59-6.09-11.65-1.82-4.06-3.04-7.35-3.65-9.86-.62-2.52-1.03-4.99-1.23-7.43-.2-2.44,0-5.3.6-8.6.61-3.3,1.51-6.1,2.71-8.41,1.21-2.31,2.94-4.52,5.19-6.62,2.26-2.1,4.91-3.81,7.95-5.13,3.04-1.32,6.79-2.09,11.23-2.31,4.44-.22,9.26.27,14.44,1.48,5.19,1.21,9.35,2.43,12.48,3.67,3.13,1.23,7.48,3.26,13.03,6.08,5.55,2.82,12.81,7.23,21.77,13.23,8.96,6,17.26,12.04,24.9,18.11,7.64,6.07,13.33,10.75,17.09,14.06,3.76,3.3,6.13,5.41,7.13,6.31,1,.9,2.66,2.45,5,4.65,2.34,2.2,4.85,4.63,7.55,7.3,2.7,2.67,5.7,5.68,9.01,9.02,3.31,3.34,8,8.25,14.07,14.7s11.51,12.65,16.33,18.58c4.81,5.93,9.22,12.05,13.21,18.34,4,6.3,6.95,11.66,8.87,16.09,1.92,4.43,3.15,7.83,3.71,10.2.56,2.37.86,4.81.9,7.31.04,2.51-.16,4.67-.6,6.49-.45,1.82-1.37,3.61-2.76,5.35-1.39,1.75-3.1,3.07-5.11,3.96-2.01.89-4.5,1.43-7.45,1.59-2.95.17-6.8-.33-11.55-1.48s-9.78-3.01-15.09-5.55c-5.31-2.55-9.82-4.93-13.53-7.14-3.71-2.22-9.57-6.47-17.57-12.77-8-6.3-15.12-12.47-21.35-18.53-6.23-6.06-11.02-10.94-14.38-14.64-3.36-3.7-5.82-6.52-7.4-8.45-1.57-1.93-2.68-3.31-3.33-4.13-.65-.82-2.98-4.24-7-10.25-4.02-6.01-8.5-13.68-13.44-23"/>
  <path id="STROKE_2132ee3f-5990-4656-86ad-fb2bc8570b24" data-name="STROKE 2132ee3f-5990-4656-86ad-fb2bc8570b24" class="cls-1" d="M293.78,202.66c-.47.42-1.23,1.31-2.27,2.67-1.05,1.36-1.88,2.33-2.5,2.92-.62.58-1.11.97-1.48,1.16-.37.19-1.05.37-2.05.54-1,.17-2.2.17-3.61-.01-1.41-.18-3.85-1.05-7.32-2.62-3.47-1.57-7.36-4-11.69-7.3s-8.94-7.22-13.81-11.79c-4.88-4.57-11.26-10.87-19.14-18.91-7.88-8.04-14.37-14.76-19.45-20.15s-11.66-12.47-19.71-21.24c-8.05-8.77-16.16-17.84-24.3-27.2-8.15-9.36-14.35-16.63-18.6-21.8-4.25-5.17-8.02-10.05-11.32-14.64-3.3-4.59-5.78-8.21-7.46-10.86-1.68-2.66-3.61-6.07-5.8-10.26-2.19-4.18-3.83-8-4.92-11.46-1.09-3.46-1.66-6.62-1.73-9.5-.06-2.88.2-5.3.79-7.28.59-1.98,1.47-3.72,2.65-5.22,1.18-1.5,2.49-2.68,3.94-3.52,1.44-.84,2.75-1.42,3.92-1.73,1.17-.31,3.96-.3,8.37.02,4.41.33,11.09,2.33,20.04,6.02,8.95,3.69,17.36,7.68,25.22,11.99,7.86,4.3,13.79,7.62,17.81,9.95,4.02,2.33,10.45,6.13,19.29,11.42,8.84,5.29,17.77,11.05,26.79,17.28,9.02,6.23,15.63,10.93,19.82,14.09,4.19,3.16,8.38,6.41,12.55,9.76,4.18,3.34,7.3,5.85,9.35,7.52,2.06,1.67,4.46,3.64,7.21,5.91,2.75,2.26,5.11,4.2,7.08,5.82s8.85,7.48,20.63,17.57c11.78,10.09,21.21,18.28,28.28,24.55,7.07,6.27,12.66,11.38,16.77,15.33,4.11,3.94,7.3,7.04,9.58,9.3,2.28,2.25,7.83,7.85,16.65,16.78,8.82,8.94,17.11,17.5,24.85,25.69s14.45,15.51,20.12,21.97c5.67,6.46,10.42,12.04,14.23,16.75,3.82,4.71,6.75,8.44,8.8,11.19,2.05,2.75,4.39,6.3,7.02,10.65,2.62,4.35,4.46,7.92,5.5,10.73,1.04,2.81,1.62,4.97,1.74,6.48.12,1.51.07,2.76-.13,3.75-.21.99-.64,1.99-1.3,2.99-.66,1.01-2.1,1.9-4.33,2.67-2.23.77-4.09,1.2-5.58,1.28-1.49.08-4.87-.35-10.14-1.29-5.27-.94-11.76-2.68-19.49-5.2-7.72-2.52-13.46-4.5-17.2-5.93-3.74-1.43-8.61-3.39-14.61-5.88-6-2.49-13.04-5.66-21.14-9.5-8.09-3.84-14.5-6.92-19.21-9.23-4.71-2.31-10.12-5.07-16.23-8.29-6.11-3.22-11.59-6.23-16.43-9.05-4.84-2.82-8.92-5.25-12.24-7.3-3.32-2.05-5.84-3.62-7.57-4.71-1.73-1.09-7.11-4.75-16.12-10.97-9.02-6.22-16.22-11.31-21.62-15.26-5.4-3.95-12.23-9.65-20.49-17.09-8.26-7.44-16.34-15.19-24.22-23.25"/>
</svg>