<?xml version="1.0" encoding="UTF-8"?>
<svg id="Layer_1" data-name="Layer 1" xmlns="http://www.w3.org/2000/svg" width="330.65" height="313.7" viewBox="0 0 330.65 313.7">
  <defs>
    <style>
      .cls-1 {
        fill: none;
        stroke: #ff9adf;
        stroke-linecap: round;
        stroke-linejoin: round;
        stroke-width: 8.43px;
      }
    </style>
  </defs>
  <path id="STROKE_daea41a5-f315-4a26-b2d9-5acaa95ef6ad" data-name="STROKE daea41a5-f315-4a26-b2d9-5acaa95ef6ad" class="cls-1" d="M302.3,302.42c-1.51.22-2.35.31-2.54.28-.18-.03-1.15-.26-2.91-.69-1.76-.43-3.17-.82-4.24-1.17s-3.73-1.47-7.97-3.39c-4.24-1.91-9.92-4.94-17.03-9.07-7.11-4.13-15.26-9.19-24.45-15.18-9.19-5.99-19.96-13.69-32.31-23.1s-21.17-16.16-26.44-20.26c-5.27-4.1-12.68-10.33-22.23-18.68s-16.61-14.67-21.18-18.94c-4.57-4.27-9.21-8.67-13.91-13.22-4.7-4.54-8.67-8.4-11.91-11.58-3.24-3.18-7.43-7.38-12.57-12.59-5.14-5.22-9.87-10.01-14.17-14.39-4.31-4.38-11.41-11.7-21.3-21.97-9.9-10.27-18.46-19.69-25.7-28.26-7.24-8.56-12.71-15.53-16.43-20.89-3.71-5.36-6.51-9.69-8.4-12.98-1.89-3.29-3.71-6.84-5.47-10.64-1.76-3.8-3.24-7.57-4.45-11.32-1.21-3.74-1.94-6.67-2.2-8.8-.26-2.13-.34-3.84-.24-5.14.1-1.3.32-2.53.64-3.69.33-1.16.64-2.03.94-2.62.3-.59.8-1.33,1.49-2.24.69-.9,1.28-1.57,1.77-2.01.49-.44,1.26-1.06,2.33-1.86,1.06-.8,2.73-1.59,5-2.36,2.27-.77,4.06-1.22,5.37-1.33,1.31-.11,2.77-.13,4.38-.05,1.61.08,3.41.29,5.41.62,2,.33,4.23.8,6.69,1.39s4.38,1.11,5.78,1.55c1.39.43,2.58.8,3.55,1.09s3.95,1.42,8.93,3.38c4.98,1.96,9.11,3.75,12.39,5.37,3.28,1.62,8.22,4.64,14.82,9.06,6.6,4.42,11.59,7.93,14.95,10.53,3.36,2.6,9.17,7.43,17.42,14.5,8.25,7.07,14.48,12.52,18.69,16.34,4.22,3.82,8.81,8.02,13.79,12.58s9.74,8.97,14.29,13.21c4.55,4.24,10.29,9.64,17.21,16.18s13.55,12.82,19.86,18.8c6.31,5.99,14.58,14.21,24.8,24.68,10.23,10.47,18.35,19.06,24.39,25.77,6.03,6.71,12.5,14.07,19.4,22.1,6.9,8.03,13.14,15.51,18.73,22.44,5.58,6.93,10.74,13.7,15.45,20.31,4.72,6.61,8.64,12.75,11.76,18.4,3.12,5.65,5.26,9.79,6.41,12.43,1.15,2.64,2.21,5.42,3.17,8.35s1.64,5.93,2.03,8.98c.39,3.06.44,5.48.13,7.28s-.65,3.15-1.03,4.05c-.39.9-1.06,1.84-2,2.82-.95.98-1.82,1.66-2.61,2.05-.79.38-1.81.66-3.07.83-1.26.17-2.95.16-5.09-.04-2.13-.2-5.53-1.22-10.2-3.05-4.66-1.83-8.87-3.84-12.63-6.02-3.75-2.18-10.06-6.65-18.92-13.4-8.86-6.75-17.05-13.66-24.58-20.74-7.53-7.08-13.23-12.62-17.12-16.63-3.89-4.01-11.91-12.67-24.08-25.98-12.17-13.31-28.85-32.16-50.04-56.56"/>
  <path id="STROKE_016fc92e-6226-4902-a924-7149ffbd237a" data-name="STROKE 016fc92e-6226-4902-a924-7149ffbd237a" class="cls-1" d="M26.14,7.19c-.83,0-1.85-.02-3.07-.07-1.32-.61-2.67-1.32-4.06-2.14-1.39-.82-2.34-1.38-2.86-1.67-.52-.3-5.36-4.34-14.54-12.14-9.18-7.8-22.72-21.03-40.62-39.69-17.9-18.67-31.64-33.21-41.21-43.64-9.57-10.43-16.64-18.27-21.22-23.52s-11.04-13.02-19.38-23.32c-8.35-10.29-16.57-21.22-24.67-32.78-8.1-11.56-15.13-22.57-21.11-33.05-5.98-10.47-10.27-18.26-12.88-23.34s-5.27-10.68-8.01-16.78c-2.73-6.1-4.99-11.46-6.79-16.08-1.79-4.62-3.16-9.45-4.08-14.46-.93-5.02-1.27-8.93-1.02-11.74.25-2.81.69-4.75,1.3-5.82.62-1.07,1.14-1.8,1.57-2.2.43-.4,1.23-.88,2.38-1.44,1.15-.56,2.15-.91,2.98-1.05.83-.14,2.17-.18,4.01-.12,1.84.06,4.02.36,6.55.91,2.53.55,4.38,1.02,5.56,1.41,1.18.39,3.21,1.2,6.08,2.42,2.88,1.23,7.91,3.82,15.11,7.78,7.2,3.96,17.81,10.83,31.82,20.61s25.79,18.92,35.32,27.42c9.53,8.5,16.7,15.12,21.53,19.84,4.83,4.72,10.42,10.38,16.79,16.97,6.37,6.59,12.32,12.98,17.86,19.17,5.54,6.19,14.8,17.55,27.79,34.08,12.99,16.53,23.32,29.86,30.98,40.01,7.66,10.14,13.58,17.98,17.76,23.49,4.17,5.52,10.12,13.74,17.85,24.67,7.73,10.93,13.45,19.13,17.16,24.61s8.56,13.25,14.54,23.3c5.98,10.05,10.41,18.6,13.29,25.66,2.88,7.06,4.48,12.15,4.81,15.27.32,3.12.4,5.19.23,6.22-.17,1.02-.56,2.07-1.16,3.12-.6,1.06-1.25,1.79-1.95,2.2-.7.41-1.4.67-2.09.79-.69.12-1.5.2-2.41.26-.92.05-3.87-.74-8.87-2.38s-12.06-5.25-21.18-10.84c-9.12-5.59-21.36-14.55-36.72-26.87C24.2-10.06,11.51-20.72,1.49-29.71c-10.02-9-27.43-25.05-52.23-48.15"/>
</svg>