<?xml version="1.0" encoding="UTF-8"?>
<svg id="Layer_1" data-name="Layer 1" xmlns="http://www.w3.org/2000/svg" width="429.42" height="405.14" viewBox="0 0 429.42 405.14">
  <defs>
    <style>
      .cls-1 {
        fill: none;
        stroke: #ff9adf;
        stroke-linecap: round;
        stroke-linejoin: round;
        stroke-width: 8.43px;
      }
    </style>
  </defs>
  <path id="STROKE_b5ce1f74-2332-44dd-ac3d-75767978e135" data-name="STROKE b5ce1f74-2332-44dd-ac3d-75767978e135" class="cls-1" d="M11.36,459.11l-2.5-.12c-.93-.25-1.69-.48-2.27-.7-.58-.22-1.31-.45-2.18-.7s-5.1-2.11-12.68-5.58c-7.58-3.47-13.7-6.57-18.34-9.3-4.65-2.73-8.97-5.42-12.98-8.08s-9.08-6.29-15.24-10.9c-6.15-4.61-12.81-10.21-19.97-16.81-7.16-6.59-12.47-11.98-15.94-16.15-3.46-4.17-6.29-8.2-8.46-12.07-2.18-3.87-3.61-6.81-4.3-8.81-.69-2-1.17-4.09-1.44-6.27-.27-2.17-.27-4.18.02-6.02.29-1.84.8-3.49,1.52-4.94.73-1.45,1.43-2.6,2.1-3.45.67-.85,1.74-1.91,3.22-3.18,1.48-1.27,4.08-2.61,7.81-4,3.73-1.39,9.12-2.28,16.19-2.65,7.07-.37,15.91.35,26.53,2.16,10.62,1.81,19.4,3.75,26.32,5.82,6.93,2.07,14.07,4.69,21.43,7.84,7.36,3.16,13.7,6.16,19.03,9.02,5.33,2.86,11.47,6.66,18.42,11.41,6.95,4.75,12.53,9.13,16.74,13.13,4.21,4,7.47,7.89,9.77,11.64,2.3,3.76,3.76,6.61,4.37,8.55.61,1.94.87,4,.79,6.19-.08,2.19-.24,3.69-.49,4.52-.25.82-.99,2.22-2.24,4.2-1.24,1.98-3.41,3.98-6.5,6.02-3.09,2.04-6.91,3.46-11.47,4.27-4.56.81-8.75,1.08-12.59.83-3.83-.25-8.65-1.15-14.44-2.68-5.79-1.53-12.48-4.11-20.05-7.74-7.58-3.62-14.79-7.86-21.65-12.71-6.86-4.85-13.41-10.29-19.65-16.33-6.24-6.03-13.26-14.11-21.07-24.22"/>
  <path id="STROKE_6b3d2339-f178-450c-a778-c92645474e7e" data-name="STROKE 6b3d2339-f178-450c-a778-c92645474e7e" class="cls-1" d="M-9.19-92.33l-1.1-.25c-.59-.08-3.49-1.54-8.72-4.38-5.22-2.83-11.9-7.67-20.02-14.52-8.13-6.84-14.2-12.21-18.23-16.1-4.02-3.89-7.02-6.81-9-8.75-1.97-1.94-5.28-5.28-9.91-10-4.63-4.72-8.33-8.58-11.12-11.56-2.78-2.98-5.36-5.8-7.72-8.44-2.36-2.64-6.19-7.09-11.47-13.33-5.29-6.24-9.97-11.92-14.05-17.03s-8.91-11.76-14.49-19.96c-5.58-8.19-9.77-14.6-12.55-19.21-2.79-4.61-4.83-8-6.12-10.18-1.29-2.18-4.06-7.51-8.3-16-4.24-8.49-7.31-15.06-9.22-19.71-1.91-4.65-3.4-8.58-4.48-11.81-1.08-3.23-2.02-6.91-2.81-11.03-.79-4.13-1.24-7.2-1.33-9.23-.1-2.03-.13-3.55-.1-4.58.03-1.03.17-2.29.41-3.78.24-1.49.63-3.03,1.17-4.61.54-1.58,1.59-3.45,3.17-5.62,1.58-2.17,3.85-4.16,6.79-5.98,2.95-1.82,6.81-3.05,11.59-3.71,4.77-.66,8.48-.89,11.11-.71,2.63.18,6.59.8,11.88,1.86,5.29,1.06,9.6,2.07,12.95,3.02,3.34.96,6.8,2.06,10.39,3.29,3.58,1.23,6.99,2.51,10.23,3.83,3.24,1.32,6.61,2.79,10.11,4.4,3.5,1.61,7.45,3.54,11.85,5.8,4.4,2.25,10.12,5.48,17.16,9.68,7.04,4.2,13.61,8.37,19.72,12.52,6.11,4.15,11.5,8.01,16.19,11.6,4.69,3.58,12.18,9.85,22.46,18.81,10.28,8.96,17.86,15.7,22.73,20.23,4.87,4.53,10.23,9.62,16.08,15.27s9.48,9.18,10.9,10.59c1.41,1.41,3.01,3,4.8,4.77,1.79,1.77,5.74,5.98,11.87,12.61,6.13,6.64,12.11,13.38,17.95,20.22,5.84,6.85,10.13,11.92,12.9,15.21,2.76,3.3,4.8,5.73,6.12,7.31,1.32,1.58,3.81,4.65,7.47,9.22,3.66,4.57,8.39,10.73,14.2,18.49,5.81,7.76,10.26,13.76,13.34,17.99,3.08,4.24,8.87,12.44,17.37,24.61,8.5,12.17,15.56,22.62,21.19,31.35,5.63,8.73,9.95,15.66,12.96,20.8,3.01,5.14,6.16,10.73,9.45,16.76,3.29,6.04,6.25,11.66,8.86,16.87,2.62,5.21,4.63,9.32,6.03,12.33,1.41,3.01,2.91,6.25,4.5,9.71,1.6,3.46,3.76,8.34,6.49,14.64,2.73,6.3,5.16,12.46,7.3,18.47,2.14,6.01,3.78,11.56,4.93,16.64,1.15,5.08,1.8,10.2,1.95,15.37.15,5.17-.21,9.57-1.07,13.22-.87,3.64-1.79,6.34-2.77,8.08-.98,1.75-2.15,3.33-3.49,4.74-1.35,1.42-3.1,2.8-5.25,4.14-2.15,1.35-5.16,2.45-9.02,3.32-3.86.87-8.65,1.01-14.36.42-5.72-.59-11.92-1.97-18.6-4.14-6.68-2.17-13.54-4.93-20.59-8.29-7.04-3.36-14.95-7.89-23.73-13.59-8.78-5.7-15.38-10.25-19.81-13.64-4.42-3.39-8.31-6.43-11.65-9.12-3.34-2.69-7.55-6.26-12.63-10.72-5.08-4.45-9.59-8.58-13.52-12.36-3.94-3.79-8.91-8.85-14.91-15.18-6.01-6.33-11.31-12.15-15.91-17.46-4.6-5.31-9.67-11.38-15.21-18.2-5.54-6.83-12.57-16.17-21.1-28.05C4.48-47.2-2.15-56.62-6.88-63.6c-4.73-6.98-10.22-15.82-16.45-26.53-6.24-10.71-12.17-21.42-17.79-32.13"/>
  <path id="STROKE_54b50d17-ba3e-44ce-8389-eb720cc71274" data-name="STROKE 54b50d17-ba3e-44ce-8389-eb720cc71274" class="cls-1" d="M186.56,252.72c-1.77-.35-3.96-.97-6.57-1.86-2.6-.89-4.93-1.77-6.98-2.65-2.05-.88-3.76-1.68-5.11-2.4-1.36-.72-5.25-3.16-11.67-7.32-6.43-4.16-12.79-8.68-19.1-13.53-6.31-4.86-11.48-8.95-15.51-12.27-4.03-3.32-8.47-7.19-13.32-11.61-4.85-4.42-9.2-8.42-13.06-11.99-3.86-3.57-10.05-9.77-18.58-18.6-8.53-8.83-14.85-15.56-18.98-20.2-4.12-4.64-8.19-9.46-12.21-14.48-4.02-5.02-8.68-11.62-14-19.8-5.31-8.19-9.76-16-13.34-23.45-3.58-7.45-6.12-13.28-7.64-17.51-1.52-4.23-2.81-8.73-3.88-13.53s-1.79-9.03-2.17-12.72c-.38-3.69-.3-7.79.23-12.31.52-4.52,1.55-8.52,3.07-12.01,1.52-3.49,3.39-6.45,5.61-8.9,2.22-2.44,4.74-4.49,7.55-6.15,2.81-1.65,6.6-2.92,11.37-3.81,4.77-.89,8.59-1.36,11.47-1.4,2.88-.05,5.54,0,7.99.15,2.44.15,5.8.45,10.06.89,4.27.44,10.5,1.66,18.7,3.64,8.2,1.99,14.09,3.56,17.66,4.73,3.57,1.17,7.59,2.53,12.06,4.1,4.46,1.57,8.11,2.9,10.94,4,2.83,1.1,8.59,3.63,17.28,7.59,8.69,3.96,15.37,7.2,20.05,9.73,4.68,2.53,9.01,5,13,7.42,3.99,2.41,7.38,4.49,10.17,6.21,2.79,1.73,6.73,4.27,11.81,7.61,5.08,3.35,11.67,8.09,19.77,14.22,8.1,6.14,15.71,12.49,22.83,19.06s13.94,13.27,20.46,20.11c6.51,6.84,10.86,11.47,13.06,13.91,2.19,2.43,5.8,6.47,10.83,12.12,5.03,5.64,10.96,12.43,17.8,20.36,6.84,7.93,13.63,16.13,20.38,24.61,6.75,8.48,12.01,15.18,15.8,20.1s7.28,9.52,10.47,13.79c3.19,4.27,6.57,8.83,10.14,13.69,3.57,4.86,6.95,9.47,10.14,13.84,3.19,4.37,6.9,9.6,11.14,15.69,4.24,6.09,9.06,13.69,14.48,22.79,5.42,9.1,9.36,15.97,11.82,20.61,2.46,4.64,4.49,8.6,6.09,11.87,1.6,3.28,3.6,7.71,6,13.29,2.4,5.58,4.5,11.36,6.31,17.33,1.8,5.97,3.03,11.51,3.7,16.61.66,5.1.7,9.54.1,13.33-.59,3.79-1.51,6.98-2.76,9.57-1.25,2.59-2.9,4.84-4.94,6.73s-4.4,3.44-7.05,4.63c-2.65,1.19-6.29,1.95-10.91,2.27-4.62.33-10.67-.52-18.16-2.53-7.49-2.01-13.02-3.75-16.58-5.22-3.57-1.47-7.6-3.35-12.09-5.64-4.5-2.29-8.4-4.38-11.71-6.27-3.31-1.89-6.46-3.75-9.45-5.6-2.99-1.85-5.47-3.36-7.44-4.54-1.97-1.18-8.6-5.96-19.88-14.34-11.29-8.38-19.83-14.89-25.64-19.55-5.81-4.66-10.09-8.11-12.85-10.36-2.76-2.25-8.55-7.27-17.37-15.07-8.83-7.8-17.72-16.01-26.68-24.63-8.96-8.62-16.32-15.98-22.1-22.08-5.77-6.1-12.06-12.83-18.87-20.2-6.8-7.37-13.73-14.88-20.76-22.54-7.04-7.66-21.07-25.53-42.09-53.61"/>
</svg>