<?xml version="1.0" encoding="UTF-8"?>
<svg id="Layer_1" data-name="Layer 1" xmlns="http://www.w3.org/2000/svg" width="279.85" height="313.9" viewBox="0 0 279.85 313.9">
  <defs>
    <style>
      .cls-1 {
        fill: none;
        stroke: #ff9adf;
        stroke-linecap: round;
        stroke-linejoin: round;
        stroke-width: 8.43px;
      }
    </style>
  </defs>
  <path id="STROKE_15a6deb9-a29a-4dd6-91e8-fe8b20f6ec33" data-name="STROKE 15a6deb9-a29a-4dd6-91e8-fe8b20f6ec33" class="cls-1" d="M275.64,309.68c-1.97-.62-4.29-1.65-6.94-3.1-2.65-1.45-6.17-3.55-10.54-6.3-4.37-2.75-8.49-5.45-12.37-8.11-3.87-2.66-9.95-6.97-18.24-12.93-8.29-5.96-15.18-11.06-20.65-15.3-5.48-4.24-11.74-9.16-18.79-14.76-7.05-5.6-16.94-13.91-29.67-24.93-12.73-11.02-23.4-20.52-32.01-28.5-8.61-7.98-14.79-13.79-18.55-17.42-3.75-3.63-10.19-10.34-19.3-20.14-9.11-9.79-16.04-17.37-20.78-22.73-4.74-5.36-9.33-10.71-13.75-16.03s-8.53-10.46-12.31-15.4-6.64-8.79-8.57-11.55c-1.93-2.76-3.47-5-4.6-6.74-1.13-1.74-2.13-3.25-3-4.54-.86-1.29-3.44-5.79-7.74-13.48-4.3-7.7-7.53-14.43-9.7-20.19-2.17-5.76-3.41-10.43-3.73-14-.31-3.57-.25-6.39.19-8.47.44-2.07,1.08-3.88,1.93-5.41.85-1.54,1.68-2.77,2.49-3.69s1.8-1.86,2.94-2.8c1.15-.94,1.75-1.42,1.82-1.44.07-.02.7-.41,1.89-1.17,1.19-.76,3.93-1.87,8.21-3.34s8.28-2.39,11.99-2.76c3.71-.37,8.88-.28,15.51.27,6.63.55,12.94,1.75,18.95,3.59,6.01,1.85,10.5,3.43,13.48,4.75,2.98,1.32,6.02,2.75,9.1,4.27,3.09,1.53,7.18,3.77,12.27,6.72,5.09,2.96,9.23,5.48,12.43,7.57,3.2,2.09,5.83,3.85,7.87,5.29,2.05,1.44,5.31,3.87,9.8,7.3,4.49,3.43,9.92,8.01,16.31,13.75,6.39,5.73,13.41,13.13,21.07,22.2,7.66,9.07,13.47,16.22,17.41,21.46,3.94,5.24,10.28,14.11,19.02,26.63,8.73,12.52,16.23,24.21,22.48,35.08,6.25,10.87,10.65,19.03,13.18,24.49,2.53,5.46,4.51,10.38,5.93,14.76s2.25,7.96,2.5,10.73c.25,2.77.12,5.28-.39,7.53-.51,2.24-1.57,4.34-3.18,6.29-1.61,1.95-3.4,3.43-5.35,4.46-1.95,1.02-4.38,1.81-7.29,2.38-2.91.56-6.98.76-12.23.6-5.25-.17-10.22-.67-14.9-1.52-4.68-.84-8.89-1.75-12.62-2.72-3.73-.97-10.35-3.32-19.85-7.06-9.5-3.74-16.71-6.83-21.62-9.29-4.91-2.46-9.93-5.18-15.05-8.16-5.12-2.98-10.2-6.15-15.23-9.5-5.03-3.35-9.27-6.28-12.72-8.8-3.45-2.52-7.94-6.01-13.47-10.47-5.53-4.46-13.26-11.17-23.2-20.12s-23.28-22.15-40.04-39.59"/>
</svg>