<?xml version="1.0" encoding="UTF-8"?>
<svg id="Layer_1" data-name="Layer 1" xmlns="http://www.w3.org/2000/svg" width="134.19" height="106.21" viewBox="0 0 134.19 106.21">
  <defs>
    <style>
      .cls-1 {
        fill: none;
        stroke: #ff9adf;
        stroke-linecap: round;
        stroke-linejoin: round;
        stroke-width: 8.43px;
      }
    </style>
  </defs>
  <path id="STROKE_f1e24d7d-88b1-49f3-9692-5d51428d66b6" data-name="STROKE f1e24d7d-88b1-49f3-9692-5d51428d66b6" class="cls-1" d="M51.05,68.31h.57c.21-.01.79-.1,1.74-.26s2.76-.48,5.42-.96c2.67-.48,6.02-1.14,10.07-1.97,4.05-.83,9.39-1.94,16.03-3.34,6.64-1.39,10.77-2.32,12.38-2.79,1.61-.47,2.89-.95,3.82-1.43.94-.48,1.75-1.18,2.45-2.11.02-.25-.58-.81-1.79-1.67-1.21-.86-2.85-1.75-4.92-2.65-2.07-.91-4.82-2.09-8.26-3.54-3.44-1.45-6.46-2.86-9.05-4.22-2.59-1.36-4.51-2.43-5.75-3.21-1.24-.78-2.65-1.77-4.24-2.97-1.59-1.2-3.04-2.46-4.37-3.79-1.33-1.33-2.29-2.46-2.87-3.38-.58-.93-.96-1.61-1.12-2.05-.16-.44-.28-.93-.35-1.45-.07-.52-.1-.87-.08-1.04.01-.17.1-.54.26-1.11.16-.57.36-1.08.6-1.55.24-.47.82-1.29,1.73-2.47.91-1.18,4.83-4.87,11.77-11.08"/>
  <path id="STROKE_a7acf023-779a-4e05-9075-9a9e8519fc31" data-name="STROKE a7acf023-779a-4e05-9075-9a9e8519fc31" class="cls-1" d="M87.12,4.21c.32,1.1.58,2.05.76,2.84.18.8.36,1.69.56,2.68.19.99.32,1.71.39,2.15.07.44.28,2.1.63,4.98.35,2.88.54,6.17.59,9.87.04,3.7,0,6.56-.1,8.58-.11,2.02-.22,3.97-.33,5.85-.11,1.89-.27,4.76-.49,8.62-.22,3.86-.37,6.68-.46,8.47-.09,1.79-.15,2.96-.18,3.49-.03.54-.05.88-.07,1.03-.02.15-.02.3,0,.44.17.1.31.1.43.02l-.02-.31-.05-.22c-.02-.23-.3-1.01-.85-2.33-.55-1.33-1.04-2.42-1.47-3.28-.44-.86-1.22-2.31-2.35-4.34-1.13-2.03-1.98-3.6-2.55-4.72-.57-1.11-1.03-2.1-1.39-2.95-.35-.85-.65-1.72-.89-2.59s-.39-1.71-.44-2.5-.04-1.41.04-1.84c.08-.44.19-.82.32-1.15.13-.33.29-.6.46-.82.18-.22.37-.41.58-.58.21-.17.57-.36,1.08-.57.51-.21,1.07-.35,1.68-.41.61-.06,2.07.21,4.37.8,2.3.59,4.5,1.47,6.61,2.64,2.11,1.17,4.05,2.63,5.83,4.39,1.78,1.75,2.76,2.84,2.96,3.25.2.42.33.78.41,1.09.08.31.12.57.14.78.01.21,0,.42-.02.65-.03.23-.06.47-.11.74-.04.27-.48,1.16-1.32,2.69-.83,1.53-1.61,2.74-2.32,3.63-.71.89-1.27,1.58-1.68,2.05-.41.48-1.06,1.21-1.96,2.19-.9.98-2.44,2.65-4.63,5-2.19,2.36-5.47,5.61-9.84,9.77-4.37,4.16-7.79,7.3-10.25,9.43-2.47,2.13-4.52,3.99-6.16,5.57s-3.13,3.26-4.47,5.03c-1.34,1.77-2.22,3.08-2.64,3.93-.42.86-.69,1.49-.8,1.91-.11.42-.18.72-.19.89-.01.17.01.32.07.43.05.12.18.23.38.35.2.12.44.16.73.13.29-.03.57-.13.85-.29.28-.16.68-.47,1.2-.94.52-.47.88-.8,1.07-1s.52-.57.98-1.11c.46-.55,2.09-2.49,4.9-5.83,2.8-3.34,5.02-5.92,6.65-7.74,1.63-1.82,5.14-5.56,10.55-11.23,5.4-5.67,9.71-10.16,12.92-13.49,3.2-3.33,5.99-6.24,8.37-8.73,2.37-2.49,4.75-4.98,7.14-7.46,2.38-2.48,4.7-5.02,6.95-7.61s3.84-4.48,4.79-5.67c.94-1.19,1.64-2.09,2.09-2.69.45-.6,1.08-1.41,1.89-2.42-.1.24-.48,1.14-1.13,2.69-.65,1.55-1.58,3.9-2.78,7.06-1.2,3.16-2.28,6.36-3.25,9.6-.96,3.24-1.66,5.79-2.1,7.64-.43,1.85-.77,3.36-1.02,4.53-.25,1.17-.45,2.13-.6,2.88-.15.75-.51,2.44-1.08,5.07-.57,2.63-1.25,5.16-2.04,7.59-.79,2.43-2.05,5.12-3.78,8.06-1.73,2.94-3.65,5.59-5.76,7.97-2.11,2.38-3.9,4.16-5.36,5.35-1.46,1.19-2.65,2.08-3.59,2.68-.93.59-2.2,1.19-3.79,1.8s-2.84.9-3.75.85c.02-.09,2.47-1.26,7.34-3.5,4.87-2.25,9.01-4.04,12.42-5.37,3.41-1.34,6.03-2.34,7.84-3.02s3.61-1.39,5.41-2.13c1.79-.74,3.55-1.72,5.28-2.94,1.73-1.22,2.74-2.12,3.02-2.7.28-.58.37-1.22.27-1.93-.1-.71-.38-1.43-.84-2.16-.46-.73-1.25-1.56-2.36-2.5-1.11-.93-2.59-1.93-4.43-3-1.84-1.07-4.76-2.55-8.74-4.44-3.98-1.89-8.46-3.93-13.43-6.12s-9.51-4.13-13.6-5.79-8.13-3.3-12.11-4.9c-3.98-1.6-7.4-3.04-10.27-4.32-2.87-1.28-5.13-2.34-6.78-3.16-1.65-.83-3.77-1.94-6.36-3.32-2.59-1.39-5.09-2.77-7.5-4.13-2.41-1.37-4.22-2.4-5.43-3.11-1.21-.71-3.98-2.34-8.32-4.9-4.34-2.56-7.66-4.53-9.95-5.9-2.29-1.37-4.45-2.7-6.48-3.98s-3.58-2.28-4.66-2.98c-1.08-.7-1.88-1.21-2.4-1.53-.52-.32-1.21-.77-2.08-1.35"/>
</svg>