<?xml version="1.0" encoding="UTF-8"?>
<svg id="Layer_1" data-name="Layer 1" xmlns="http://www.w3.org/2000/svg" width="120.75" height="113.9" viewBox="0 0 120.75 113.9">
  <defs>
    <style>
      .cls-1 {
        fill: none;
        stroke: #ff9adf;
        stroke-linecap: round;
        stroke-linejoin: round;
        stroke-width: 8.43px;
      }
    </style>
  </defs>
  <path id="STROKE_6c7bd9cf-fe37-4e93-8be0-17f648bba0d1" data-name="STROKE 6c7bd9cf-fe37-4e93-8be0-17f648bba0d1" class="cls-1" d="M116.53,43.66c-.14.05-.37.12-.69.2-.32.08-.93.25-1.83.51s-1.55.45-1.94.58c-.39.12-.74.23-1.06.33-.32.1-1.03.33-2.15.69-1.11.36-2.22.7-3.31,1.02-1.09.32-1.95.57-2.57.74-.62.17-1.55.42-2.8.77-1.25.35-2,.55-2.27.63-.26.07-.76.21-1.47.42-.72.21-1.89.55-3.51,1.04-1.62.48-3.83,1.21-6.65,2.17-2.81.96-4.89,1.7-6.25,2.2-1.36.51-2.75,1.03-4.18,1.56-1.43.53-2.88,1.05-4.34,1.56s-3.28,1.15-5.43,1.92c-2.15.78-3.9,1.46-5.26,2.03-1.36.58-2.42,1.06-3.2,1.44-.77.38-1.48.76-2.13,1.13-.65.37-1.99,1.22-4.04,2.53-2.05,1.32-3.75,2.44-5.1,3.38-1.36.93-2.75,1.9-4.19,2.9-1.43,1-2.67,1.89-3.7,2.67-1.03.77-1.77,1.34-2.22,1.71-.45.36-1,.86-1.67,1.48-.66.62-1.38,1.33-2.14,2.13-.76.8-1.27,1.35-1.53,1.65s-.44.51-.56.63c-.11.12-.49.58-1.12,1.37-.63.79-1.15,1.48-1.55,2.07-.4.59-.85,1.28-1.35,2.07-.5.79-.89,1.43-1.16,1.91s-.59,1.07-.96,1.79-.68,1.31-.93,1.8c-.25.48-.48.95-.7,1.39-.22.44-.42.88-.62,1.3-.2.43-.37.81-.52,1.14-.15.33-.25.56-.3.69-.05.13-.17.4-.35.82-.18.42-.32.78-.41,1.08-.1.3-.18.65-.25,1.05-.07.4-.1.65-.1.75,0,.1.02.21.07.32.05.11.12.18.21.2s.21,0,.36-.04c.15-.05.41-.24.81-.58.39-.34.67-.6.84-.79.17-.19.35-.39.52-.6s.49-.63.93-1.25c.45-.62.88-1.24,1.29-1.87.42-.63.99-1.48,1.72-2.56.73-1.08,1.33-1.99,1.81-2.75.47-.76.87-1.42,1.19-1.99.32-.57.5-.87.54-.92.03-.05.22-.39.57-1.03.35-.64.62-1.15.82-1.52.2-.37.58-1.11,1.11-2.2.54-1.09.89-1.81,1.06-2.17.17-.36.58-1.25,1.23-2.68.65-1.43,1.18-2.62,1.6-3.58.42-.96.74-1.69.96-2.2.22-.5.46-1.07.72-1.7.27-.63.52-1.19.75-1.69.23-.49.44-.94.62-1.34.18-.4.29-.63.31-.68.03-.05.42-.88,1.18-2.47.76-1.6,1.27-2.67,1.53-3.22.27-.55.59-1.22.98-2.01.39-.79.71-1.44.96-1.95.25-.51.51-1.02.76-1.54s.7-1.4,1.32-2.64c.62-1.24,1.37-2.71,2.24-4.42.87-1.71,1.52-2.97,1.94-3.8.42-.83,1.05-2.14,1.88-3.94.83-1.8,1.48-3.31,1.95-4.53.47-1.22.86-2.3,1.16-3.23.3-.94.55-1.76.74-2.46s.3-1.09.32-1.17c.02-.07.16-.7.41-1.89.25-1.19.49-2.46.73-3.81.24-1.35.46-2.61.66-3.78.21-1.17.36-2.06.47-2.68.11-.62.23-1.29.35-2.03.13-.73.28-1.76.44-3.08.17-1.32.29-2.37.38-3.16.08-.78.16-1.58.22-2.38.06-.8.09-1.33.09-1.56,0-.24-.03-.6-.07-1.09-.05-.49-.14-.92-.27-1.3-.13-.38-.22-.6-.27-.67-.05-.07-.12-.13-.19-.18-.07-.05-.15-.07-.23-.07-.08,0-.19.03-.32.09-.13.05-.33.23-.61.54-.28.3-.62.87-1.02,1.72-.4.84-.74,1.76-1.04,2.74-.29.99-.52,1.86-.69,2.6-.16.75-.36,2.22-.59,4.4-.23,2.19-.38,4.12-.46,5.81-.08,1.69-.15,3.06-.21,4.1-.07,1.05-.12,1.86-.17,2.42-.05.56-.16,1.91-.35,4.03-.19,2.12-.34,3.84-.46,5.15-.12,1.3-.21,2.32-.27,3.05s-.1,1.29-.14,1.67c-.03.38-.09,1.36-.17,2.94-.08,1.58-.14,3.33-.16,5.25-.02,1.92-.04,3.9-.05,5.94-.01,2.04-.02,3.55-.03,4.53,0,.98-.02,1.94-.03,2.88-.01.94-.02,1.82-.03,2.62,0,.81-.02,1.61-.04,2.4-.02.79-.03,1.47-.05,2.03-.01.56-.02,1.33-.03,2.31,0,.97,0,1.89.02,2.76.02.87.09,2.12.22,3.75.12,1.64.29,3.09.49,4.36.2,1.27.39,2.25.55,2.92.16.68.3,1.22.42,1.63.12.41.37,1.18.74,2.3.37,1.12.84,2.34,1.41,3.66.56,1.32,1.07,2.38,1.53,3.18.46.8.85,1.42,1.17,1.87.33.44.72.91,1.19,1.4.46.49.85.87,1.15,1.13.3.26.68.55,1.14.88.46.33.83.58,1.11.75.28.17.63.36,1.05.58.42.22.87.43,1.35.64.48.21.98.41,1.48.6.51.19.99.36,1.43.51.45.15.97.31,1.59.49.61.18,1.16.34,1.64.47.48.14,1.19.31,2.12.53.93.22,1.67.39,2.23.51s1.34.27,2.38.45c1.03.18,2.05.34,3.06.47,1.01.13,2.03.23,3.06.3s1.89.11,2.57.11c.68,0,1.34-.02,1.99-.05.65-.03,1.23-.08,1.76-.15.53-.06,1.22-.16,2.07-.3.85-.14,1.77-.32,2.76-.54.99-.22,2.56-.75,4.71-1.58,2.15-.83,3.76-1.55,4.81-2.18,1.05-.63,1.75-1.1,2.1-1.4.34-.31.65-.62.92-.94.27-.32.47-.6.6-.83.13-.23.27-.56.41-.99.14-.43.22-.83.22-1.19,0-.37-.01-.66-.05-.89-.03-.23-.14-.56-.31-1-.17-.44-.39-.85-.66-1.25-.27-.4-.56-.76-.86-1.07-.3-.31-.69-.65-1.17-1.01-.48-.36-.9-.66-1.29-.91-.38-.24-1.03-.59-1.93-1.05-.91-.46-1.61-.79-2.11-1.01-.5-.22-1.24-.51-2.22-.89-.98-.37-1.75-.66-2.33-.87-.57-.2-1.53-.54-2.86-1.02-1.33-.48-2.65-.96-3.95-1.43-1.3-.47-3.06-1.15-5.27-2.02-2.21-.87-4.21-1.67-5.99-2.39-1.78-.72-3.24-1.32-4.4-1.8-1.15-.49-2.59-1.1-4.3-1.85-1.72-.75-3.08-1.35-4.1-1.81-1.02-.45-4.12-1.87-9.3-4.24-5.18-2.37-9.42-4.32-12.71-5.85-3.29-1.53-6.4-2.93-9.31-4.21-2.92-1.28-5.07-2.22-6.45-2.82-1.38-.6-2.85-1.24-4.4-1.91-1.55-.67-2.78-1.22-3.69-1.63-.91-.41-1.95-.89-3.13-1.41-1.18-.53-2.09-.94-2.75-1.25-.65-.31-1.11-.54-1.36-.7-.25-.16-.4-.26-.43-.3-.03-.04.06-.07.28-.09.21-.02.46-.02.73,0,.27.03.5.05.68.07.18.02.61.09,1.29.21.67.12,1.63.3,2.86.55s2.46.48,3.69.71c1.22.23,2.13.4,2.71.5.58.1,1.37.24,2.36.42.99.17,1.95.34,2.88.5.93.16,1.59.27,1.96.33.38.06,1.56.27,3.53.62,1.98.35,3.56.6,4.73.76,1.18.16,2.5.32,3.97.48,1.47.16,3.07.33,4.82.5,1.74.17,3.07.3,3.98.39.91.09,1.74.16,2.51.23.76.07,2.65.24,5.67.54,3.02.29,5.3.53,6.84.72,1.54.19,2.47.3,2.79.34.32.04.55.08.7.11.15.03.38.06.68.1.3.04,1.18.17,2.64.4,1.46.23,2.59.41,3.4.55.81.14,1.83.3,3.06.49,1.23.19,2.34.33,3.33.43.99.1,1.63.16,1.91.2.28.03.49.05.62.05.13,0,.48.02,1.04.05.56.03,1.18.04,1.87.03.69,0,1.32-.03,1.89-.07.58-.04.98-.08,1.21-.13.23-.04.4-.08.51-.13.11-.05.16-.09.18-.13.01-.04-.06-.12-.22-.24-.16-.12-.85-.42-2.07-.88-1.22-.46-2.79-1.02-4.7-1.65-1.92-.64-3.81-1.29-5.67-1.95-1.86-.67-4.67-1.77-8.43-3.3-3.75-1.53-6.9-2.79-9.45-3.77-2.55-.98-4.67-1.79-6.36-2.43-1.69-.64-3.05-1.14-4.07-1.51-1.02-.37-2.6-.96-4.76-1.77-2.15-.81-3.77-1.43-4.87-1.86-1.09-.43-1.89-.74-2.4-.94s-1.96-.82-4.37-1.87c-2.4-1.05-4.29-1.9-5.67-2.55-1.38-.65-2.39-1.15-3.05-1.5-.66-.35-1.4-.74-2.22-1.18-.82-.44-2.18-1.25-4.07-2.43-1.9-1.18-3.31-2.1-4.24-2.77-.93-.66-1.86-1.36-2.78-2.11-.92-.75-1.86-1.57-2.83-2.47-.97-.9-1.89-1.84-2.76-2.81-.87-.98-1.71-2.01-2.51-3.1-.8-1.09-1.37-1.97-1.73-2.65-.36-.68-.58-1.14-.66-1.38-.08-.24-.15-.52-.19-.83.03-.08.09-.15.2-.19.1-.05.17-.08.2-.1.03-.02.06-.03.1-.03.04,0,.21-.05.51-.17"/>
</svg>