<?xml version="1.0" encoding="UTF-8"?>
<svg id="Layer_1" data-name="Layer 1" xmlns="http://www.w3.org/2000/svg" width="468.25" height="443.27" viewBox="0 0 468.25 443.27">
  <defs>
    <style>
      .cls-1 {
        fill: none;
        stroke: #ff9adf;
        stroke-linecap: round;
        stroke-linejoin: round;
        stroke-width: 8.43px;
      }
    </style>
  </defs>
  <path id="STROKE_26331ed1-626c-4ff6-98c9-2889bd90e49e" data-name="STROKE 26331ed1-626c-4ff6-98c9-2889bd90e49e" class="cls-1" d="M546.11,119.92c-.07.05-.04.03.07-.07.11-.1.13-.09.05.02s-.54.52-1.38,1.23c-.94-.46-1.35-.64-1.25-.52.2.21-1.78-1.21-5.95-4.24-4.16-3.03-7.64-5.75-10.43-8.14-2.79-2.4-4.86-4.17-6.2-5.33-1.34-1.16-3.56-3.21-6.65-6.16-3.09-2.95-8.53-8.14-16.31-15.55-7.78-7.42-14.51-13.83-20.19-19.23s-11.38-11.07-17.11-16.98c-5.72-5.92-10.18-10.46-13.39-13.63-3.2-3.17-5.7-5.7-7.5-7.58-1.8-1.88-4.39-4.57-7.77-8.07-3.37-3.49-9.01-9.47-16.92-17.93-7.9-8.46-15.44-16.91-22.62-25.35-7.18-8.44-12.35-14.71-15.53-18.8-3.17-4.09-5.51-7.17-7.01-9.23-1.5-2.07-4.05-5.56-7.66-10.48-3.61-4.92-7.37-10.75-11.29-17.48-3.92-6.73-6.84-11.93-8.76-15.61-1.92-3.67-3.74-7.17-5.47-10.49-1.73-3.32-3.42-7.5-5.07-12.55-1.66-5.04-2.76-9.41-3.3-13.12-.55-3.7-.77-6.58-.67-8.62.1-2.04.32-3.9.64-5.56.32-1.66.89-3.35,1.71-5.07.82-1.72,1.81-3.09,2.97-4.11s2.17-1.7,3.04-2.02,1.45-.5,1.75-.51c.29-.02,1.15-.04,2.55-.06,1.41-.02,4.33.76,8.76,2.34s8.71,3.43,12.82,5.53c4.11,2.1,9.66,5.71,16.64,10.82,6.98,5.11,14.73,11.81,23.25,20.1,8.52,8.3,15.32,15.02,20.4,20.19,5.08,5.16,9.54,9.66,13.38,13.49,3.84,3.83,6.74,6.83,8.69,8.99,1.95,2.16,4.09,4.39,6.41,6.71s5.29,5.35,8.89,9.1c3.61,3.75,6.31,6.53,8.12,8.33,1.81,1.8,6.5,6.56,14.08,14.27,7.58,7.71,13.45,13.76,17.58,18.15,4.14,4.39,8.43,8.95,12.88,13.69,4.45,4.74,8.02,8.48,10.71,11.23,2.69,2.74,5.17,5.32,7.44,7.72,2.26,2.4,4.15,4.43,5.65,6.09,1.5,1.65,3.69,4.16,6.56,7.52,2.87,3.36,6.01,7.04,9.42,11.04,3.4,4,7.68,9.29,12.82,15.87,5.15,6.58,10.15,13.23,15.01,19.96,4.86,6.72,8.87,12.74,12.03,18.06,3.16,5.32,5.78,9.82,7.84,13.51,2.07,3.69,4.02,7.62,5.88,11.8,1.85,4.18,3.24,7.59,4.17,10.23.93,2.64,1.64,5.34,2.15,8.09.5,2.75.79,5.27.87,7.57.07,2.3-.03,4.4-.3,6.31-.27,1.91-.86,3.66-1.75,5.25-.9,1.59-1.59,2.61-2.09,3.06-.5.45-1.24,1.18-2.22,2.18-.98,1-2.7,1.69-5.17,2.07-2.47.38-4.44.46-5.92.25-1.48-.21-2.62-.39-3.4-.55-.78-.16-1.55-.34-2.31-.56-.76-.21-1.9-.51-3.42-.88-1.53-.37-4.53-1.51-9.02-3.4-4.49-1.9-8.67-3.93-12.56-6.1-3.89-2.17-7.29-4.19-10.21-6.07s-7.33-4.79-13.22-8.74c-5.89-3.95-10.66-7.37-14.31-10.27-3.65-2.9-6.59-5.26-8.82-7.09-2.22-1.82-5.16-4.24-8.81-7.26-3.65-3.02-7.15-5.9-10.5-8.66-3.35-2.75-7.17-6.1-11.47-10.04-4.3-3.94-8.24-7.7-11.84-11.28-3.6-3.58-8.28-8.27-14.05-14.07-5.76-5.8-11.78-12.19-18.05-19.17-6.27-6.98-11.64-13.16-16.1-18.55-4.46-5.39-7.92-9.48-10.37-12.26s-6.53-7.6-12.25-14.43c-5.71-6.83-13.63-17-23.74-30.49"/>
  <path id="STROKE_39ddd139-a537-4dbf-9e25-b1bd310905d6" data-name="STROKE 39ddd139-a537-4dbf-9e25-b1bd310905d6" class="cls-1" d="M464.04,434.36c-1.04,1.45-1.82,2.42-2.35,2.91-.53.49-.97.84-1.34,1.05-.36.21-.9.41-1.62.58-.71.17-1.51.21-2.38.1-.87-.11-2.88-.75-6.03-1.94-3.15-1.19-6.24-2.64-9.28-4.35s-6.26-3.67-9.66-5.88c-3.4-2.21-6.08-3.98-8.05-5.32-1.97-1.34-3.6-2.44-4.88-3.29-1.28-.85-6.85-4.69-16.7-11.51-9.85-6.83-17.71-12.38-23.58-16.65-5.87-4.28-10.3-7.54-13.3-9.78s-6.09-4.57-9.28-6.97c-3.19-2.4-8-6.03-14.45-10.86-6.44-4.84-11.86-8.95-16.24-12.34-4.38-3.39-13.18-10.31-26.4-20.78-13.22-10.47-26.07-20.76-38.56-30.87-12.49-10.11-23.25-19.11-32.3-26.98-9.04-7.88-16.39-14.32-22.03-19.34-5.64-5.02-13.54-12.19-23.71-21.51-10.16-9.33-20.07-18.73-29.71-28.21-9.64-9.48-16.82-16.58-21.53-21.29-4.71-4.71-10.59-10.76-17.62-18.15-7.03-7.39-12.35-13.04-15.95-16.96-3.6-3.92-9.25-10.13-16.94-18.65-7.69-8.52-15.59-17.42-23.7-26.71-8.11-9.29-15.97-18.85-23.58-28.68-7.61-9.83-13.03-17.23-16.25-22.17-3.22-4.95-5.44-8.65-6.67-11.1-1.22-2.45-2.13-4.32-2.71-5.61-.58-1.29-1.29-3.92-2.12-7.87-.84-3.96-1.1-7.14-.79-9.56.31-2.42.81-4.25,1.51-5.49.7-1.24,1.31-2.12,1.82-2.65.51-.52,1.04-.97,1.57-1.34.53-.37,1.42-.75,2.67-1.15,1.25-.4,2.79-.66,4.62-.78,1.83-.12,6.12.64,12.89,2.27,6.76,1.63,12.3,3.33,16.61,5.1,4.31,1.77,9.54,4.16,15.68,7.18,6.15,3.02,10.9,5.47,14.26,7.35,3.36,1.88,7.84,4.55,13.43,8.02,5.59,3.46,9.91,6.21,12.96,8.23,3.05,2.02,13.33,10.35,30.85,24.99,17.52,14.63,32.11,26.93,43.79,36.89s20.67,17.59,27,22.91c6.33,5.31,15.45,12.95,27.37,22.91,11.92,9.96,23.05,19.41,33.39,28.35s20.08,17.59,29.22,25.97c9.14,8.38,15.37,14.1,18.69,17.18,3.32,3.08,5.78,5.38,7.37,6.89,1.6,1.52,9.6,8.67,24,21.47,14.4,12.79,27.27,24.24,38.61,34.35,11.34,10.11,19.76,17.96,25.26,23.55,5.51,5.59,9.94,10.78,13.31,15.56,3.37,4.78,5.55,8.42,6.54,10.91.99,2.49,1.56,4.61,1.71,6.35.15,1.74.05,3.21-.31,4.42-.35,1.21-.66,1.99-.92,2.35-.26.36-.56.77-.9,1.24-.34.47-1.13,1.15-2.35,2.04-1.22.89-3.25,1.64-6.09,2.24-2.84.6-5.38.91-7.64.92-2.26.02-5.36-.27-9.32-.84-3.95-.58-10.58-2.33-19.87-5.26-9.3-2.93-17.56-5.93-24.78-8.99-7.23-3.06-13.31-5.82-18.27-8.27-4.95-2.45-10.55-5.38-16.8-8.8-6.25-3.42-12.33-6.87-18.25-10.34-5.92-3.47-11.99-7.15-18.21-11.05-6.21-3.9-16.05-10.4-29.51-19.52-13.46-9.12-24.95-17.23-34.45-24.33-9.51-7.1-17.46-13.22-23.85-18.35s-13.74-11.21-22.03-18.24c-8.29-7.03-15.05-13.01-20.28-17.92-5.23-4.92-10.83-10.61-16.79-17.07-5.96-6.46-13.71-15.73-23.24-27.81"/>
  <path id="STROKE_d1b46184-9fa8-41a3-abe4-3700558e35f9" data-name="STROKE d1b46184-9fa8-41a3-abe4-3700558e35f9" class="cls-1" d="M60.85,17.94c-.26-.08-1.74.1-4.45.53-9.33-2.95-20.11-7.88-32.35-14.77C11.81-3.19,2.5-8.64-3.89-12.62c-6.39-3.99-11.27-7.05-14.63-9.2-3.36-2.15-11.67-7.88-24.92-17.19-13.25-9.31-23.3-16.55-30.15-21.73-6.85-5.18-11.85-8.96-14.99-11.35-3.14-2.39-12.49-10.03-28.04-22.91-15.55-12.88-28.36-23.78-38.44-32.7-10.08-8.92-18.4-16.55-24.97-22.88s-11.49-11.24-14.78-14.73c-3.29-3.49-6.73-7.3-10.31-11.43s-7.73-9.39-12.46-15.79c-4.73-6.4-8.33-12.08-10.81-17.03-2.48-4.96-3.98-8.39-4.52-10.29-.54-1.9-.88-3.56-1.04-4.97-.16-1.41-.22-2.67-.2-3.78.02-1.11.18-2.23.49-3.36.3-1.13.62-1.98.94-2.53.33-.55.86-1.23,1.61-2.05.75-.82,1.73-1.53,2.95-2.15,1.22-.61,2.51-1.1,3.87-1.47,1.37-.36,6.21-.32,14.52.13,8.31.45,18.07,2.03,29.28,4.73,11.21,2.7,20.8,5.27,28.77,7.71,7.97,2.44,14.46,4.56,19.46,6.35,5,1.79,11.38,4.3,19.14,7.52,7.76,3.22,15.02,6.41,21.79,9.55,6.77,3.14,14.82,7.14,24.15,12,9.33,4.86,16.55,8.75,21.64,11.67,5.09,2.92,11.32,6.77,18.69,11.54,7.37,4.77,13.59,8.94,18.65,12.5,5.06,3.56,10.44,7.49,16.13,11.79,5.69,4.29,10.14,7.7,13.36,10.21,3.21,2.51,5.34,4.18,6.37,5.02,1.04.83,3.16,2.54,6.38,5.11,3.22,2.58,5.92,4.75,8.09,6.52,2.17,1.77,5.14,4.21,8.9,7.3,3.76,3.1,8.81,7.35,15.14,12.76,6.33,5.41,11.92,10.2,16.77,14.37,4.85,4.17,12.7,11.43,23.56,21.78,10.86,10.35,19,18.41,24.43,24.18s10.04,10.8,13.85,15.08,7.16,8.16,10.08,11.63c2.91,3.47,6.76,8.28,11.54,14.42,4.78,6.15,9.06,12.03,12.85,17.64,3.79,5.61,6.92,10.69,9.39,15.24,2.47,4.55,4.48,8.92,6.03,13.11,1.55,4.19,2.53,7.91,2.93,11.14.4,3.23.42,5.89.06,7.98-.36,2.09-.78,3.56-1.26,4.43-.48.86-1.22,1.82-2.24,2.87-1.02,1.05-3.52,1.89-7.51,2.52-3.99.64-9.81-.06-17.45-2.08-7.64-2.03-14.38-4.3-20.2-6.83-5.82-2.53-10.23-4.51-13.24-5.95-3-1.44-5.05-2.41-6.14-2.93-1.09-.51-4.27-2.12-9.54-4.82-5.27-2.7-9.31-4.82-12.11-6.36-2.8-1.54-5.74-3.17-8.83-4.89-3.09-1.72-11.02-6.62-23.79-14.68-12.77-8.06-23.22-15.01-31.34-20.84C35.87,3.4,29.97-.91,26.3-3.7c-3.67-2.79-6.64-5.06-8.91-6.8-2.27-1.74-7.2-5.65-14.79-11.71-7.59-6.07-15.66-12.73-24.21-19.99-8.55-7.26-15.21-13.01-19.99-17.26s-10.3-9.36-16.56-15.34c-6.27-5.98-11.25-10.84-14.95-14.58-3.7-3.75-6.97-7.11-9.82-10.1s-6.45-6.83-10.81-11.53c-4.35-4.7-7.71-8.4-10.08-11.11-2.37-2.7-4.99-5.75-7.86-9.14-2.87-3.39-5.91-7.09-9.1-11.1-3.19-4.01-9.39-12.32-18.61-24.91"/>
  <path id="STROKE_2d54e969-be57-4386-ae3d-225bd9a2a3b3" data-name="STROKE 2d54e969-be57-4386-ae3d-225bd9a2a3b3" class="cls-1" d="M8.06,453.78c.55.64,3.89,3.25,10.02,7.83,6.13,4.58,10.9,8.03,14.31,10.34,3.41,2.32,11.12,6.49,23.14,12.53,12.02,6.04,22.09,10.77,30.2,14.2,8.12,3.43,18.19,7.51,30.22,12.23,12.03,4.72,24.44,9.4,37.23,14.02,12.79,4.62,21.17,7.61,25.15,8.96,3.98,1.35,8.32,2.77,13.02,4.25,4.71,1.48,10.01,3.06,15.92,4.74,5.91,1.68,14.65,4.05,26.24,7.12,11.59,3.07,19.8,5.23,24.65,6.47,4.85,1.25,12.23,3.03,22.16,5.34,9.93,2.31,19.81,4.19,29.65,5.64,9.83,1.45,17.34,2.22,22.51,2.31,5.17.09,9.05-.02,11.64-.32,2.59-.3,5.29-.95,8.12-1.95,2.83-1,4.78-1.92,5.85-2.75,1.07-.84,1.98-1.75,2.72-2.73.74-.99,1.22-2.25,1.43-3.78.21-1.53-.01-3.4-.68-5.6-.67-2.2-2.53-5.28-5.58-9.23-3.05-3.95-6.5-7.58-10.34-10.9s-9.32-7.41-16.43-12.28c-7.12-4.87-17.58-11.05-31.39-18.56-13.81-7.51-26.56-14.04-38.24-19.6-11.68-5.56-31.33-14.53-58.95-26.91-27.62-12.38-48.44-21.79-62.48-28.24-14.04-6.45-24.29-11.19-30.77-14.23-6.48-3.04-11.31-5.31-14.51-6.81-3.19-1.5-10.89-5.25-23.1-11.25-12.21-6-25.82-12.75-40.84-20.26-15.02-7.51-29.77-14.3-44.24-20.39-14.48-6.08-26.05-10.66-34.74-13.72s-17.41-6.08-26.19-9.03c-8.78-2.95-15.48-5.18-20.09-6.68-4.62-1.5-11.08-3.39-19.4-5.67-8.32-2.28-14.38-3.58-18.19-3.89-3.81-.31-6.32-.35-7.54-.12-1.22.23-2.15.54-2.8.93-.65.39-1.11.73-1.37,1.03-.26.3-.48.78-.67,1.43s-.22,1.61-.09,2.89c.13,1.27.45,2.65.96,4.14.51,1.49,2.64,5,6.4,10.54,3.75,5.54,7.03,9.94,9.85,13.21,2.82,3.27,5,5.78,6.56,7.51,1.55,1.74,6.71,7.13,15.48,16.18,8.77,9.05,17.18,17.31,25.23,24.78,8.05,7.47,17.84,15.79,29.36,24.95,11.52,9.16,20.35,15.98,26.5,20.46,6.15,4.48,12.41,8.82,18.8,13.03,6.39,4.21,16.04,10.19,28.94,17.94,12.9,7.75,30.26,17.47,52.07,29.14,21.81,11.67,38.23,20.34,49.27,26.01s20.31,10.3,27.82,13.9c7.51,3.6,13.2,6.29,17.06,8.07,3.86,1.78,11.23,5.06,22.12,9.82,10.88,4.77,23.67,9.96,38.35,15.57,14.69,5.61,26.01,9.73,33.97,12.36,7.96,2.63,16.86,5.26,26.7,7.9,9.84,2.64,17.24,4.52,22.21,5.64,4.97,1.13,9.18,2.02,12.62,2.68,3.45.66,12.14,1.9,26.07,3.7"/>
</svg>